<svg width="1122" height="546" viewBox="0 0 1122 546" fill="none" xmlns="http://www.w3.org/2000/svg">
<g clip-path="url(#clip0_584_101)">
<rect x="0.5" y="0.5" width="1121" height="545" rx="7.5" fill="white" stroke="#DFE0EB"/>
<path d="M256 42H280" stroke="#00FF47" stroke-width="2" stroke-linecap="round"/>
<path d="M295.72 51.144C294.909 51.144 294.2 50.9787 293.592 50.648C292.995 50.3067 292.531 49.8213 292.2 49.192C291.88 48.552 291.72 47.7947 291.72 46.92C291.72 46.056 291.885 45.3147 292.216 44.696C292.547 44.0773 293.011 43.608 293.608 43.288C294.205 42.9573 294.909 42.792 295.72 42.792C296.243 42.792 296.749 42.8827 297.24 43.064C297.731 43.2347 298.136 43.48 298.456 43.8L297.928 44.936C297.629 44.648 297.293 44.4347 296.92 44.296C296.547 44.1467 296.184 44.072 295.832 44.072C295.064 44.072 294.461 44.3173 294.024 44.808C293.587 45.2987 293.368 46.008 293.368 46.936C293.368 47.8747 293.587 48.5947 294.024 49.096C294.461 49.5973 295.064 49.848 295.832 49.848C296.173 49.848 296.531 49.784 296.904 49.656C297.277 49.5173 297.619 49.2987 297.928 49L298.456 50.136C298.125 50.456 297.709 50.7067 297.208 50.888C296.717 51.0587 296.221 51.144 295.72 51.144ZM303.494 51.144C302.779 51.144 302.155 50.9787 301.622 50.648C301.089 50.3173 300.673 49.8373 300.374 49.208C300.086 48.5787 299.942 47.832 299.942 46.968C299.942 46.0933 300.086 45.3467 300.374 44.728C300.673 44.1093 301.089 43.6347 301.622 43.304C302.155 42.9627 302.779 42.792 303.494 42.792C304.198 42.792 304.811 42.968 305.334 43.32C305.857 43.672 306.203 44.152 306.374 44.76H306.198L306.358 42.936H307.926C307.894 43.2667 307.862 43.5973 307.83 43.928C307.809 44.248 307.798 44.5627 307.798 44.872V51H306.182V49.208H306.358C306.187 49.8053 305.835 50.28 305.302 50.632C304.779 50.9733 304.177 51.144 303.494 51.144ZM303.894 49.88C304.587 49.88 305.142 49.6347 305.558 49.144C305.985 48.6533 306.198 47.928 306.198 46.968C306.198 46.008 305.985 45.288 305.558 44.808C305.142 44.3173 304.587 44.072 303.894 44.072C303.19 44.072 302.625 44.3173 302.198 44.808C301.782 45.288 301.574 46.008 301.574 46.968C301.574 47.928 301.782 48.6533 302.198 49.144C302.614 49.6347 303.179 49.88 303.894 49.88ZM313.224 51.144C312.552 51.144 311.933 51.0587 311.368 50.888C310.803 50.7173 310.333 50.4773 309.96 50.168L310.456 49.064C310.851 49.3627 311.288 49.5867 311.768 49.736C312.248 49.8853 312.739 49.96 313.24 49.96C313.827 49.96 314.269 49.8587 314.568 49.656C314.867 49.4427 315.016 49.1547 315.016 48.792C315.016 48.5147 314.92 48.2907 314.728 48.12C314.547 47.9493 314.243 47.8213 313.816 47.736L312.28 47.432C311.597 47.2827 311.08 47.0267 310.728 46.664C310.376 46.3013 310.2 45.8373 310.2 45.272C310.2 44.792 310.328 44.3653 310.584 43.992C310.851 43.6187 311.224 43.3253 311.704 43.112C312.195 42.8987 312.765 42.792 313.416 42.792C314.013 42.792 314.568 42.8773 315.08 43.048C315.592 43.2187 316.019 43.464 316.36 43.784L315.848 44.856C315.517 44.5787 315.144 44.3653 314.728 44.216C314.312 44.056 313.891 43.976 313.464 43.976C312.867 43.976 312.424 44.088 312.136 44.312C311.848 44.536 311.704 44.8293 311.704 45.192C311.704 45.4693 311.789 45.6987 311.96 45.88C312.141 46.0507 312.424 46.184 312.808 46.28L314.344 46.584C315.069 46.7333 315.613 46.9787 315.976 47.32C316.339 47.6613 316.52 48.12 316.52 48.696C316.52 49.1973 316.381 49.6347 316.104 50.008C315.827 50.3813 315.443 50.664 314.952 50.856C314.461 51.048 313.885 51.144 313.224 51.144ZM321.589 51.144C320.618 51.144 319.887 50.8827 319.397 50.36C318.917 49.8267 318.677 49.0107 318.677 47.912V42.936H320.293V47.88C320.293 48.552 320.431 49.048 320.709 49.368C320.986 49.688 321.407 49.848 321.973 49.848C322.613 49.848 323.13 49.6347 323.525 49.208C323.919 48.7813 324.117 48.216 324.117 47.512V42.936H325.733V51H324.165V49.272H324.373C324.149 49.8693 323.791 50.3333 323.301 50.664C322.81 50.984 322.239 51.144 321.589 51.144ZM331.488 51.144C330.773 51.144 330.149 50.9787 329.616 50.648C329.082 50.3173 328.666 49.8373 328.368 49.208C328.08 48.5787 327.936 47.832 327.936 46.968C327.936 46.0933 328.08 45.3467 328.368 44.728C328.666 44.1093 329.082 43.6347 329.616 43.304C330.149 42.9627 330.773 42.792 331.488 42.792C332.192 42.792 332.805 42.968 333.328 43.32C333.85 43.672 334.197 44.152 334.368 44.76H334.192L334.352 42.936H335.92C335.888 43.2667 335.856 43.5973 335.824 43.928C335.802 44.248 335.792 44.5627 335.792 44.872V51H334.176V49.208H334.352C334.181 49.8053 333.829 50.28 333.296 50.632C332.773 50.9733 332.17 51.144 331.488 51.144ZM331.888 49.88C332.581 49.88 333.136 49.6347 333.552 49.144C333.978 48.6533 334.192 47.928 334.192 46.968C334.192 46.008 333.978 45.288 333.552 44.808C333.136 44.3173 332.581 44.072 331.888 44.072C331.184 44.072 330.618 44.3173 330.192 44.808C329.776 45.288 329.568 46.008 329.568 46.968C329.568 47.928 329.776 48.6533 330.192 49.144C330.608 49.6347 331.173 49.88 331.888 49.88ZM338.45 51V39.224H340.066V51H338.45Z" fill="black"/>
<path d="M359 43H383" stroke="#FF9900" stroke-width="2" stroke-linecap="round"/>
<path d="M395.454 52V45.936C395.454 45.6053 395.444 45.2747 395.422 44.944C395.412 44.6027 395.39 44.2667 395.358 43.936H396.926L397.102 46.016H396.846C396.953 45.5147 397.134 45.0987 397.39 44.768C397.646 44.4373 397.956 44.192 398.318 44.032C398.692 43.872 399.081 43.792 399.486 43.792C399.657 43.792 399.801 43.8027 399.918 43.824C400.036 43.8347 400.153 43.856 400.27 43.888L400.254 45.328C400.073 45.2533 399.913 45.2107 399.774 45.2C399.646 45.1787 399.486 45.168 399.294 45.168C398.825 45.168 398.425 45.2747 398.094 45.488C397.764 45.6907 397.513 45.968 397.342 46.32C397.172 46.672 397.086 47.0507 397.086 47.456V52H395.454ZM405.436 52.144C404.135 52.144 403.111 51.776 402.364 51.04C401.618 50.304 401.244 49.2853 401.244 47.984C401.244 47.1413 401.404 46.4053 401.724 45.776C402.055 45.1467 402.508 44.6613 403.084 44.32C403.671 43.968 404.348 43.792 405.116 43.792C405.874 43.792 406.508 43.952 407.02 44.272C407.532 44.592 407.922 45.0453 408.188 45.632C408.455 46.208 408.588 46.8907 408.588 47.68V48.192H402.508V47.264H407.484L407.212 47.472C407.212 46.672 407.031 46.0533 406.668 45.616C406.316 45.168 405.804 44.944 405.132 44.944C404.386 44.944 403.81 45.2053 403.404 45.728C402.999 46.24 402.796 46.9493 402.796 47.856V48.016C402.796 48.9653 403.026 49.68 403.484 50.16C403.954 50.64 404.615 50.88 405.468 50.88C405.938 50.88 406.375 50.816 406.78 50.688C407.196 50.5493 407.591 50.3253 407.964 50.016L408.492 51.12C408.119 51.4507 407.666 51.7067 407.132 51.888C406.599 52.0587 406.034 52.144 405.436 52.144ZM414.375 55.584C413.649 55.584 412.988 55.4987 412.391 55.328C411.804 55.1573 411.276 54.9013 410.807 54.56L411.207 53.376C411.537 53.6 411.863 53.776 412.183 53.904C412.503 54.0427 412.839 54.144 413.191 54.208C413.543 54.272 413.905 54.304 414.279 54.304C415.047 54.304 415.623 54.1067 416.007 53.712C416.401 53.328 416.599 52.768 416.599 52.032V49.872H416.759C416.588 50.4693 416.236 50.944 415.703 51.296C415.18 51.6373 414.572 51.808 413.879 51.808C413.143 51.808 412.503 51.648 411.959 51.328C411.425 50.9973 411.009 50.5333 410.711 49.936C410.423 49.328 410.279 48.6133 410.279 47.792C410.279 46.9707 410.423 46.2613 410.711 45.664C411.009 45.0667 411.425 44.608 411.959 44.288C412.503 43.9573 413.143 43.792 413.879 43.792C414.583 43.792 415.191 43.968 415.703 44.32C416.225 44.6613 416.572 45.1307 416.743 45.728L416.599 45.6L416.743 43.936H418.311C418.268 44.2667 418.236 44.5973 418.215 44.928C418.193 45.248 418.183 45.5627 418.183 45.872V51.84C418.183 53.056 417.857 53.984 417.207 54.624C416.567 55.264 415.623 55.584 414.375 55.584ZM414.263 50.544C414.967 50.544 415.527 50.304 415.943 49.824C416.369 49.344 416.583 48.6667 416.583 47.792C416.583 46.9173 416.369 46.2453 415.943 45.776C415.527 45.3067 414.967 45.072 414.263 45.072C413.537 45.072 412.961 45.3067 412.535 45.776C412.119 46.2453 411.911 46.9173 411.911 47.792C411.911 48.6667 412.119 49.344 412.535 49.824C412.961 50.304 413.537 50.544 414.263 50.544ZM423.703 52.144C422.733 52.144 422.002 51.8827 421.511 51.36C421.031 50.8267 420.791 50.0107 420.791 48.912V43.936H422.407V48.88C422.407 49.552 422.546 50.048 422.823 50.368C423.101 50.688 423.522 50.848 424.087 50.848C424.727 50.848 425.245 50.6347 425.639 50.208C426.034 49.7813 426.231 49.216 426.231 48.512V43.936H427.847V52H426.279V50.272H426.487C426.263 50.8693 425.906 51.3333 425.415 51.664C424.925 51.984 424.354 52.144 423.703 52.144ZM430.514 52V40.224H432.13V52H430.514ZM437.887 52.144C437.172 52.144 436.548 51.9787 436.015 51.648C435.482 51.3173 435.066 50.8373 434.767 50.208C434.479 49.5787 434.335 48.832 434.335 47.968C434.335 47.0933 434.479 46.3467 434.767 45.728C435.066 45.1093 435.482 44.6347 436.015 44.304C436.548 43.9627 437.172 43.792 437.887 43.792C438.591 43.792 439.204 43.968 439.727 44.32C440.25 44.672 440.596 45.152 440.767 45.76H440.591L440.751 43.936H442.319C442.287 44.2667 442.255 44.5973 442.223 44.928C442.202 45.248 442.191 45.5627 442.191 45.872V52H440.575V50.208H440.751C440.58 50.8053 440.228 51.28 439.695 51.632C439.172 51.9733 438.57 52.144 437.887 52.144ZM438.287 50.88C438.98 50.88 439.535 50.6347 439.951 50.144C440.378 49.6533 440.591 48.928 440.591 47.968C440.591 47.008 440.378 46.288 439.951 45.808C439.535 45.3173 438.98 45.072 438.287 45.072C437.583 45.072 437.018 45.3173 436.591 45.808C436.175 46.288 435.967 47.008 435.967 47.968C435.967 48.928 436.175 49.6533 436.591 50.144C437.007 50.6347 437.572 50.88 438.287 50.88ZM444.817 52V45.936C444.817 45.6053 444.806 45.2747 444.785 44.944C444.774 44.6027 444.753 44.2667 444.721 43.936H446.289L446.465 46.016H446.209C446.315 45.5147 446.497 45.0987 446.753 44.768C447.009 44.4373 447.318 44.192 447.681 44.032C448.054 43.872 448.443 43.792 448.849 43.792C449.019 43.792 449.163 43.8027 449.281 43.824C449.398 43.8347 449.516 43.856 449.633 43.888L449.617 45.328C449.435 45.2533 449.275 45.2107 449.137 45.2C449.009 45.1787 448.849 45.168 448.657 45.168C448.187 45.168 447.787 45.2747 447.457 45.488C447.126 45.6907 446.875 45.968 446.705 46.32C446.534 46.672 446.449 47.0507 446.449 47.456V52H444.817Z" fill="black"/>
<path d="M585 44H609" stroke="#0B63C5" stroke-width="2" stroke-linecap="round"/>
<path d="M625.022 53.144C624.212 53.144 623.502 52.9787 622.894 52.648C622.297 52.3067 621.833 51.8213 621.502 51.192C621.182 50.552 621.022 49.7947 621.022 48.92C621.022 48.056 621.188 47.3147 621.518 46.696C621.849 46.0773 622.313 45.608 622.91 45.288C623.508 44.9573 624.212 44.792 625.022 44.792C625.545 44.792 626.052 44.8827 626.542 45.064C627.033 45.2347 627.438 45.48 627.758 45.8L627.23 46.936C626.932 46.648 626.596 46.4347 626.222 46.296C625.849 46.1467 625.486 46.072 625.134 46.072C624.366 46.072 623.764 46.3173 623.326 46.808C622.889 47.2987 622.67 48.008 622.67 48.936C622.67 49.8747 622.889 50.5947 623.326 51.096C623.764 51.5973 624.366 51.848 625.134 51.848C625.476 51.848 625.833 51.784 626.206 51.656C626.58 51.5173 626.921 51.2987 627.23 51L627.758 52.136C627.428 52.456 627.012 52.7067 626.51 52.888C626.02 53.0587 625.524 53.144 625.022 53.144ZM633.07 53.144C632.27 53.144 631.577 52.9787 630.99 52.648C630.404 52.3067 629.95 51.8267 629.63 51.208C629.31 50.5787 629.15 49.832 629.15 48.968C629.15 48.104 629.31 47.3627 629.63 46.744C629.95 46.1147 630.404 45.6347 630.99 45.304C631.577 44.9627 632.27 44.792 633.07 44.792C633.87 44.792 634.564 44.9627 635.15 45.304C635.748 45.6347 636.206 46.1147 636.526 46.744C636.857 47.3627 637.022 48.104 637.022 48.968C637.022 49.832 636.857 50.5787 636.526 51.208C636.206 51.8267 635.748 52.3067 635.15 52.648C634.564 52.9787 633.87 53.144 633.07 53.144ZM633.07 51.88C633.774 51.88 634.334 51.6347 634.75 51.144C635.166 50.6533 635.374 49.928 635.374 48.968C635.374 48.008 635.166 47.288 634.75 46.808C634.334 46.3173 633.774 46.072 633.07 46.072C632.377 46.072 631.822 46.3173 631.406 46.808C630.99 47.288 630.782 48.008 630.782 48.968C630.782 49.928 630.985 50.6533 631.39 51.144C631.806 51.6347 632.366 51.88 633.07 51.88ZM639.211 53V46.872C639.211 46.5627 639.195 46.248 639.163 45.928C639.142 45.5973 639.115 45.2667 639.083 44.936H640.651L640.795 46.632H640.603C640.827 46.0453 641.169 45.592 641.627 45.272C642.097 44.952 642.657 44.792 643.307 44.792C643.969 44.792 644.507 44.952 644.923 45.272C645.35 45.5813 645.643 46.0613 645.803 46.712H645.547C645.761 46.1253 646.123 45.6613 646.635 45.32C647.147 44.968 647.739 44.792 648.411 44.792C649.307 44.792 649.979 45.0533 650.427 45.576C650.875 46.0987 651.099 46.9093 651.099 48.008V53H649.483V48.088C649.483 47.384 649.361 46.8773 649.115 46.568C648.881 46.248 648.497 46.088 647.963 46.088C647.345 46.088 646.854 46.3013 646.491 46.728C646.129 47.1547 645.947 47.7307 645.947 48.456V53H644.331V48.088C644.331 47.384 644.209 46.8773 643.963 46.568C643.729 46.248 643.345 46.088 642.811 46.088C642.193 46.088 641.707 46.3013 641.355 46.728C641.003 47.1547 640.827 47.7307 640.827 48.456V53H639.211ZM653.714 56.456V46.872C653.714 46.5627 653.698 46.248 653.666 45.928C653.645 45.5973 653.618 45.2667 653.586 44.936H655.154L655.314 46.76H655.138C655.309 46.152 655.65 45.672 656.162 45.32C656.685 44.968 657.304 44.792 658.018 44.792C658.733 44.792 659.357 44.9627 659.89 45.304C660.424 45.6347 660.834 46.1093 661.122 46.728C661.421 47.3467 661.57 48.0933 661.57 48.968C661.57 49.832 661.421 50.5787 661.122 51.208C660.834 51.8373 660.424 52.3173 659.89 52.648C659.357 52.9787 658.733 53.144 658.018 53.144C657.314 53.144 656.701 52.9733 656.178 52.632C655.666 52.28 655.325 51.8053 655.154 51.208H655.33V56.456H653.714ZM657.618 51.88C658.322 51.88 658.882 51.6347 659.298 51.144C659.725 50.6533 659.938 49.928 659.938 48.968C659.938 48.008 659.725 47.288 659.298 46.808C658.882 46.3173 658.322 46.072 657.618 46.072C656.914 46.072 656.349 46.3173 655.922 46.808C655.506 47.288 655.298 48.008 655.298 48.968C655.298 49.928 655.506 50.6533 655.922 51.144C656.349 51.6347 656.914 51.88 657.618 51.88ZM663.764 53V41.224H665.38V53H663.764ZM671.777 53.144C670.476 53.144 669.452 52.776 668.705 52.04C667.958 51.304 667.585 50.2853 667.585 48.984C667.585 48.1413 667.745 47.4053 668.065 46.776C668.396 46.1467 668.849 45.6613 669.425 45.32C670.012 44.968 670.689 44.792 671.457 44.792C672.214 44.792 672.849 44.952 673.361 45.272C673.873 45.592 674.262 46.0453 674.529 46.632C674.796 47.208 674.929 47.8907 674.929 48.68V49.192H668.849V48.264H673.825L673.553 48.472C673.553 47.672 673.372 47.0533 673.009 46.616C672.657 46.168 672.145 45.944 671.473 45.944C670.726 45.944 670.15 46.2053 669.745 46.728C669.34 47.24 669.137 47.9493 669.137 48.856V49.016C669.137 49.9653 669.366 50.68 669.825 51.16C670.294 51.64 670.956 51.88 671.809 51.88C672.278 51.88 672.716 51.816 673.121 51.688C673.537 51.5493 673.932 51.3253 674.305 51.016L674.833 52.12C674.46 52.4507 674.006 52.7067 673.473 52.888C672.94 53.0587 672.374 53.144 671.777 53.144ZM680.204 53.144C679.329 53.144 678.668 52.9093 678.22 52.44C677.772 51.96 677.548 51.2453 677.548 50.296V46.184H675.98V44.936H677.548V42.808L679.164 42.376V44.936H681.404V46.184H679.164V50.152C679.164 50.7493 679.27 51.176 679.484 51.432C679.697 51.688 680.006 51.816 680.412 51.816C680.614 51.816 680.79 51.8 680.94 51.768C681.1 51.7253 681.244 51.6773 681.372 51.624V52.936C681.212 53 681.025 53.048 680.812 53.08C680.598 53.1227 680.396 53.144 680.204 53.144ZM686.83 53.144C685.529 53.144 684.505 52.776 683.758 52.04C683.011 51.304 682.638 50.2853 682.638 48.984C682.638 48.1413 682.798 47.4053 683.118 46.776C683.449 46.1467 683.902 45.6613 684.478 45.32C685.065 44.968 685.742 44.792 686.51 44.792C687.267 44.792 687.902 44.952 688.414 45.272C688.926 45.592 689.315 46.0453 689.582 46.632C689.849 47.208 689.982 47.8907 689.982 48.68V49.192H683.902V48.264H688.878L688.606 48.472C688.606 47.672 688.425 47.0533 688.062 46.616C687.71 46.168 687.198 45.944 686.526 45.944C685.779 45.944 685.203 46.2053 684.798 46.728C684.393 47.24 684.19 47.9493 684.19 48.856V49.016C684.19 49.9653 684.419 50.68 684.878 51.16C685.347 51.64 686.009 51.88 686.862 51.88C687.331 51.88 687.769 51.816 688.174 51.688C688.59 51.5493 688.985 51.3253 689.358 51.016L689.886 52.12C689.513 52.4507 689.059 52.7067 688.526 52.888C687.993 53.0587 687.427 53.144 686.83 53.144ZM695.224 53.144C694.52 53.144 693.896 52.9787 693.352 52.648C692.819 52.3173 692.403 51.8373 692.104 51.208C691.816 50.5787 691.672 49.832 691.672 48.968C691.672 48.0933 691.816 47.3467 692.104 46.728C692.403 46.1093 692.819 45.6347 693.352 45.304C693.896 44.9627 694.52 44.792 695.224 44.792C695.918 44.792 696.526 44.968 697.048 45.32C697.582 45.6613 697.934 46.1307 698.104 46.728H697.912V41.224H699.528V53H697.928V51.176H698.12C697.939 51.784 697.587 52.264 697.064 52.616C696.542 52.968 695.928 53.144 695.224 53.144ZM695.624 51.88C696.318 51.88 696.878 51.6347 697.304 51.144C697.731 50.6533 697.944 49.928 697.944 48.968C697.944 48.008 697.731 47.288 697.304 46.808C696.878 46.3173 696.318 46.072 695.624 46.072C694.92 46.072 694.355 46.3173 693.928 46.808C693.512 47.288 693.304 48.008 693.304 48.968C693.304 49.928 693.512 50.6533 693.928 51.144C694.355 51.6347 694.92 51.88 695.624 51.88Z" fill="black"/>
<path d="M544 288C544 261.247 535.417 235.201 519.513 213.689C503.609 192.177 481.223 176.335 455.645 168.492C430.068 160.649 402.649 161.219 377.42 170.118C352.191 179.017 330.483 195.776 315.486 217.93L353.786 243.856C363.234 229.899 376.91 219.341 392.805 213.734C408.699 208.128 425.973 207.769 442.087 212.71C458.2 217.651 472.304 227.631 482.323 241.184C492.343 254.736 497.75 271.146 497.75 288H544Z" fill="#FF9900" stroke="white"/>
<path d="M315.486 217.93C301.484 238.615 294 263.021 294 288C294 312.979 301.484 337.385 315.486 358.07L353.786 332.144C344.965 319.113 340.25 303.737 340.25 288C340.25 272.263 344.965 256.887 353.786 243.856L315.486 217.93Z" fill="#3751FF" stroke="white"/>
<path d="M315.486 358.07C325.505 372.872 338.583 385.352 353.835 394.67C369.088 403.988 386.162 409.927 403.905 412.085C421.648 414.244 439.648 412.572 456.69 407.183C473.732 401.793 489.42 392.812 502.695 380.844L471.728 346.492C463.364 354.032 453.481 359.69 442.744 363.085C432.008 366.48 420.668 367.534 409.49 366.174C398.312 364.814 387.556 361.073 377.946 355.202C368.337 349.332 360.098 341.469 353.786 332.144L315.486 358.07Z" fill="#00FF47" stroke="white"/>
<path d="M502.695 380.844C515.697 369.124 526.092 354.803 533.207 338.809C540.323 322.815 543.999 305.505 543.999 288H497.75C497.75 299.028 495.433 309.933 490.951 320.01C486.468 330.086 479.919 339.108 471.728 346.492L502.695 380.844Z" fill="#FF452C" stroke="white"/>
<path d="M36.636 51V39.619H32.209V37.605H43.514V39.619H39.087V51H36.636ZM47.6763 51.19C46.8403 51.19 46.1056 50.9937 45.4723 50.601C44.839 50.1957 44.345 49.6193 43.9903 48.872C43.6356 48.1247 43.4583 47.2317 43.4583 46.193C43.4583 45.1543 43.6356 44.2677 43.9903 43.533C44.345 42.7857 44.839 42.2157 45.4723 41.823C46.1056 41.4177 46.8403 41.215 47.6763 41.215C48.487 41.215 49.1963 41.4177 49.8043 41.823C50.425 42.2157 50.8366 42.7477 51.0393 43.419H50.8303L51.0393 41.405H53.3193C53.2813 41.7977 53.2433 42.1967 53.2053 42.602C53.18 43.0073 53.1673 43.4063 53.1673 43.799V51H50.8113L50.7923 49.024H51.0203C50.8176 49.6827 50.406 50.2083 49.7853 50.601C49.1646 50.9937 48.4616 51.19 47.6763 51.19ZM48.3413 49.366C49.0886 49.366 49.6903 49.1063 50.1463 48.587C50.6023 48.055 50.8303 47.257 50.8303 46.193C50.8303 45.129 50.6023 44.3373 50.1463 43.818C49.6903 43.2987 49.0886 43.039 48.3413 43.039C47.594 43.039 46.9923 43.2987 46.5363 43.818C46.0803 44.3373 45.8523 45.129 45.8523 46.193C45.8523 47.257 46.074 48.055 46.5173 48.587C46.9733 49.1063 47.5813 49.366 48.3413 49.366ZM59.5735 51.19C58.7502 51.19 57.9902 51.095 57.2935 50.905C56.6095 50.7023 56.0332 50.4237 55.5645 50.069L56.2295 48.473C56.7109 48.8023 57.2429 49.0557 57.8255 49.233C58.4082 49.4103 58.9972 49.499 59.5925 49.499C60.2259 49.499 60.6945 49.3913 60.9985 49.176C61.3152 48.9607 61.4735 48.6693 61.4735 48.302C61.4735 48.0107 61.3722 47.7827 61.1695 47.618C60.9795 47.4407 60.6692 47.3077 60.2385 47.219L58.3385 46.858C57.5279 46.6807 56.9072 46.3767 56.4765 45.946C56.0585 45.5153 55.8495 44.9517 55.8495 44.255C55.8495 43.6597 56.0079 43.134 56.3245 42.678C56.6539 42.222 57.1162 41.8673 57.7115 41.614C58.3195 41.348 59.0289 41.215 59.8395 41.215C60.5489 41.215 61.2139 41.31 61.8345 41.5C62.4679 41.69 62.9999 41.975 63.4305 42.355L62.7465 43.894C62.3539 43.5773 61.9042 43.3303 61.3975 43.153C60.8909 42.9757 60.3969 42.887 59.9155 42.887C59.2569 42.887 58.7755 43.0073 58.4715 43.248C58.1675 43.476 58.0155 43.7737 58.0155 44.141C58.0155 44.4197 58.1042 44.654 58.2815 44.844C58.4715 45.0213 58.7629 45.1543 59.1555 45.243L61.0555 45.604C61.9042 45.7687 62.5439 46.06 62.9745 46.478C63.4179 46.8833 63.6395 47.4407 63.6395 48.15C63.6395 48.7833 63.4685 49.328 63.1265 49.784C62.7845 50.24 62.3095 50.5883 61.7015 50.829C61.0935 51.0697 60.3842 51.19 59.5735 51.19ZM66.0721 51V37.016H68.4471V45.49H68.4851L72.3801 41.405H75.2491L70.4041 46.478L70.4231 45.528L75.5911 51H72.6461L68.4851 46.706H68.4471V51H66.0721ZM87.0913 51L81.1253 37.605H83.7663L88.5733 48.853H87.7753L92.5823 37.605H95.1283L89.1623 51H87.0913ZM96.6627 51V41.405H99.0377V51H96.6627ZM96.5297 39.6V37.282H99.1707V39.6H96.5297ZM105.437 51.19C104.613 51.19 103.853 51.095 103.157 50.905C102.473 50.7023 101.896 50.4237 101.428 50.069L102.093 48.473C102.574 48.8023 103.106 49.0557 103.689 49.233C104.271 49.4103 104.86 49.499 105.456 49.499C106.089 49.499 106.558 49.3913 106.862 49.176C107.178 48.9607 107.337 48.6693 107.337 48.302C107.337 48.0107 107.235 47.7827 107.033 47.618C106.843 47.4407 106.532 47.3077 106.102 47.219L104.202 46.858C103.391 46.6807 102.77 46.3767 102.34 45.946C101.922 45.5153 101.713 44.9517 101.713 44.255C101.713 43.6597 101.871 43.134 102.188 42.678C102.517 42.222 102.979 41.8673 103.575 41.614C104.183 41.348 104.892 41.215 105.703 41.215C106.412 41.215 107.077 41.31 107.698 41.5C108.331 41.69 108.863 41.975 109.294 42.355L108.61 43.894C108.217 43.5773 107.767 43.3303 107.261 43.153C106.754 42.9757 106.26 42.887 105.779 42.887C105.12 42.887 104.639 43.0073 104.335 43.248C104.031 43.476 103.879 43.7737 103.879 44.141C103.879 44.4197 103.967 44.654 104.145 44.844C104.335 45.0213 104.626 45.1543 105.019 45.243L106.919 45.604C107.767 45.7687 108.407 46.06 108.838 46.478C109.281 46.8833 109.503 47.4407 109.503 48.15C109.503 48.7833 109.332 49.328 108.99 49.784C108.648 50.24 108.173 50.5883 107.565 50.829C106.957 51.0697 106.247 51.19 105.437 51.19ZM115.393 51.19C114.215 51.19 113.335 50.867 112.752 50.221C112.17 49.575 111.878 48.587 111.878 47.257V41.405H114.253V47.238C114.253 47.9473 114.399 48.473 114.69 48.815C114.982 49.1443 115.425 49.309 116.02 49.309C116.692 49.309 117.236 49.081 117.654 48.625C118.085 48.169 118.3 47.5673 118.3 46.82V41.405H120.675V51H118.357V49.043H118.623C118.345 49.727 117.92 50.259 117.35 50.639C116.793 51.0063 116.141 51.19 115.393 51.19ZM127.359 51.19C126.523 51.19 125.788 50.9937 125.155 50.601C124.521 50.1957 124.027 49.6193 123.673 48.872C123.318 48.1247 123.141 47.2317 123.141 46.193C123.141 45.1543 123.318 44.2677 123.673 43.533C124.027 42.7857 124.521 42.2157 125.155 41.823C125.788 41.4177 126.523 41.215 127.359 41.215C128.169 41.215 128.879 41.4177 129.487 41.823C130.107 42.2157 130.519 42.7477 130.722 43.419H130.513L130.722 41.405H133.002C132.964 41.7977 132.926 42.1967 132.888 42.602C132.862 43.0073 132.85 43.4063 132.85 43.799V51H130.494L130.475 49.024H130.703C130.5 49.6827 130.088 50.2083 129.468 50.601C128.847 50.9937 128.144 51.19 127.359 51.19ZM128.024 49.366C128.771 49.366 129.373 49.1063 129.829 48.587C130.285 48.055 130.513 47.257 130.513 46.193C130.513 45.129 130.285 44.3373 129.829 43.818C129.373 43.2987 128.771 43.039 128.024 43.039C127.276 43.039 126.675 43.2987 126.219 43.818C125.763 44.3373 125.535 45.129 125.535 46.193C125.535 47.257 125.756 48.055 126.2 48.587C126.656 49.1063 127.264 49.366 128.024 49.366ZM135.836 51V37.016H138.211V51H135.836ZM141.19 51V41.405H143.565V51H141.19ZM141.057 39.6V37.282H143.698V39.6H141.057ZM146.164 51V49.442L152.168 42.621V43.191H146.164V41.405H154.315V42.963L148.254 49.841L148.235 49.214H154.524V51H146.164ZM161.396 51.19C159.787 51.19 158.527 50.7467 157.615 49.86C156.703 48.9733 156.247 47.7573 156.247 46.212C156.247 45.2113 156.443 44.3373 156.836 43.59C157.228 42.8427 157.773 42.26 158.47 41.842C159.179 41.424 160.002 41.215 160.94 41.215C161.864 41.215 162.637 41.4113 163.258 41.804C163.878 42.1967 164.347 42.7477 164.664 43.457C164.993 44.1663 165.158 44.996 165.158 45.946V46.573H158.166V45.319H163.467L163.144 45.585C163.144 44.6983 162.954 44.0207 162.574 43.552C162.206 43.0833 161.668 42.849 160.959 42.849C160.173 42.849 159.565 43.1277 159.135 43.685C158.717 44.2423 158.508 45.0213 158.508 46.022V46.269C158.508 47.3077 158.761 48.0867 159.268 48.606C159.787 49.1127 160.515 49.366 161.453 49.366C161.997 49.366 162.504 49.2963 162.973 49.157C163.454 49.005 163.91 48.7643 164.341 48.435L165.044 50.031C164.588 50.3983 164.043 50.6833 163.41 50.886C162.776 51.0887 162.105 51.19 161.396 51.19ZM167.55 51V43.856C167.55 43.4507 167.537 43.039 167.512 42.621C167.499 42.203 167.467 41.7977 167.417 41.405H169.716L169.982 44.027H169.602C169.728 43.3937 169.937 42.868 170.229 42.45C170.533 42.032 170.9 41.7217 171.331 41.519C171.761 41.3163 172.23 41.215 172.737 41.215C172.965 41.215 173.148 41.2277 173.288 41.253C173.427 41.2657 173.566 41.2973 173.706 41.348L173.687 43.438C173.446 43.3367 173.237 43.2733 173.06 43.248C172.895 43.2227 172.686 43.21 172.433 43.21C171.888 43.21 171.426 43.324 171.046 43.552C170.678 43.78 170.4 44.0967 170.21 44.502C170.032 44.9073 169.944 45.3697 169.944 45.889V51H167.55Z" fill="#252733"/>
<path d="M478 44H502" stroke="#FF452C" stroke-width="2" stroke-linecap="round"/>
<path d="M517.35 53.144C516.38 53.144 515.649 52.8827 515.158 52.36C514.678 51.8267 514.438 51.0107 514.438 49.912V44.936H516.054V49.88C516.054 50.552 516.193 51.048 516.47 51.368C516.748 51.688 517.169 51.848 517.734 51.848C518.374 51.848 518.892 51.6347 519.286 51.208C519.681 50.7813 519.878 50.216 519.878 49.512V44.936H521.494V53H519.926V51.272H520.134C519.91 51.8693 519.553 52.3333 519.062 52.664C518.572 52.984 518.001 53.144 517.35 53.144ZM524.129 53V46.936C524.129 46.6053 524.119 46.2747 524.097 45.944C524.087 45.6027 524.065 45.2667 524.033 44.936H525.601L525.777 47.016H525.521C525.628 46.5147 525.809 46.0987 526.065 45.768C526.321 45.4373 526.631 45.192 526.993 45.032C527.367 44.872 527.756 44.792 528.161 44.792C528.332 44.792 528.476 44.8027 528.593 44.824C528.711 44.8347 528.828 44.856 528.945 44.888L528.929 46.328C528.748 46.2533 528.588 46.2107 528.449 46.2C528.321 46.1787 528.161 46.168 527.969 46.168C527.5 46.168 527.1 46.2747 526.769 46.488C526.439 46.6907 526.188 46.968 526.017 47.32C525.847 47.672 525.761 48.0507 525.761 48.456V53H524.129ZM534.015 56.584C533.29 56.584 532.629 56.4987 532.031 56.328C531.445 56.1573 530.917 55.9013 530.447 55.56L530.847 54.376C531.178 54.6 531.503 54.776 531.823 54.904C532.143 55.0427 532.479 55.144 532.831 55.208C533.183 55.272 533.546 55.304 533.919 55.304C534.687 55.304 535.263 55.1067 535.647 54.712C536.042 54.328 536.239 53.768 536.239 53.032V50.872H536.399C536.229 51.4693 535.877 51.944 535.343 52.296C534.821 52.6373 534.213 52.808 533.519 52.808C532.783 52.808 532.143 52.648 531.599 52.328C531.066 51.9973 530.65 51.5333 530.351 50.936C530.063 50.328 529.919 49.6133 529.919 48.792C529.919 47.9707 530.063 47.2613 530.351 46.664C530.65 46.0667 531.066 45.608 531.599 45.288C532.143 44.9573 532.783 44.792 533.519 44.792C534.223 44.792 534.831 44.968 535.343 45.32C535.866 45.6613 536.213 46.1307 536.383 46.728L536.239 46.6L536.383 44.936H537.951C537.909 45.2667 537.877 45.5973 537.855 45.928C537.834 46.248 537.823 46.5627 537.823 46.872V52.84C537.823 54.056 537.498 54.984 536.847 55.624C536.207 56.264 535.263 56.584 534.015 56.584ZM533.903 51.544C534.607 51.544 535.167 51.304 535.583 50.824C536.01 50.344 536.223 49.6667 536.223 48.792C536.223 47.9173 536.01 47.2453 535.583 46.776C535.167 46.3067 534.607 46.072 533.903 46.072C533.178 46.072 532.602 46.3067 532.175 46.776C531.759 47.2453 531.551 47.9173 531.551 48.792C531.551 49.6667 531.759 50.344 532.175 50.824C532.602 51.304 533.178 51.544 533.903 51.544ZM544.208 53.144C542.907 53.144 541.883 52.776 541.136 52.04C540.389 51.304 540.016 50.2853 540.016 48.984C540.016 48.1413 540.176 47.4053 540.496 46.776C540.827 46.1467 541.28 45.6613 541.856 45.32C542.443 44.968 543.12 44.792 543.888 44.792C544.645 44.792 545.28 44.952 545.792 45.272C546.304 45.592 546.693 46.0453 546.96 46.632C547.227 47.208 547.36 47.8907 547.36 48.68V49.192H541.28V48.264H546.256L545.984 48.472C545.984 47.672 545.803 47.0533 545.44 46.616C545.088 46.168 544.576 45.944 543.904 45.944C543.157 45.944 542.581 46.2053 542.176 46.728C541.771 47.24 541.568 47.9493 541.568 48.856V49.016C541.568 49.9653 541.797 50.68 542.256 51.16C542.725 51.64 543.387 51.88 544.24 51.88C544.709 51.88 545.147 51.816 545.552 51.688C545.968 51.5493 546.363 51.3253 546.736 51.016L547.264 52.12C546.891 52.4507 546.437 52.7067 545.904 52.888C545.371 53.0587 544.805 53.144 544.208 53.144ZM549.514 53V46.872C549.514 46.5627 549.498 46.248 549.466 45.928C549.445 45.5973 549.418 45.2667 549.386 44.936H550.954L551.098 46.632H550.906C551.152 46.0347 551.53 45.5813 552.042 45.272C552.554 44.952 553.146 44.792 553.818 44.792C554.768 44.792 555.482 45.0533 555.962 45.576C556.453 46.0987 556.698 46.9093 556.698 48.008V53H555.082V48.104C555.082 47.3893 554.938 46.8773 554.65 46.568C554.373 46.248 553.946 46.088 553.37 46.088C552.688 46.088 552.144 46.3013 551.738 46.728C551.333 47.144 551.13 47.7093 551.13 48.424V53H549.514ZM562.435 53.144C561.56 53.144 560.899 52.9093 560.451 52.44C560.003 51.96 559.779 51.2453 559.779 50.296V46.184H558.211V44.936H559.779V42.808L561.395 42.376V44.936H563.635V46.184H561.395V50.152C561.395 50.7493 561.502 51.176 561.715 51.432C561.928 51.688 562.238 51.816 562.643 51.816C562.846 51.816 563.022 51.8 563.171 51.768C563.331 51.7253 563.475 51.6773 563.603 51.624V52.936C563.443 53 563.256 53.048 563.043 53.08C562.83 53.1227 562.627 53.144 562.435 53.144Z" fill="black"/>
<g clip-path="url(#clip1_584_101)">
<path d="M780 0V546" stroke="#DFE0EB"/>
<path d="M780 135H1122" stroke="#DFE0EB"/>
<path d="M780 273H1122" stroke="#DFE0EB"/>
<path d="M780 413H1122" stroke="#DFE0EB"/>
<path d="M884.784 41.216C882.496 41.216 880.792 40.632 879.672 39.464C878.568 38.296 878.016 36.576 878.016 34.304V24.08H879.984V34.208C879.984 35.952 880.368 37.264 881.136 38.144C881.904 39.024 883.12 39.464 884.784 39.464C886.352 39.464 887.544 39.024 888.36 38.144C889.176 37.264 889.584 35.952 889.584 34.208V24.08H891.552V34.304C891.552 36.576 890.976 38.296 889.824 39.464C888.688 40.632 887.008 41.216 884.784 41.216ZM895.679 41V31.856C895.679 31.376 895.663 30.888 895.631 30.392C895.615 29.896 895.583 29.416 895.535 28.952H897.407L897.647 31.88L897.311 31.904C897.471 31.184 897.751 30.592 898.151 30.128C898.551 29.664 899.023 29.32 899.567 29.096C900.111 28.856 900.679 28.736 901.271 28.736C901.511 28.736 901.719 28.744 901.895 28.76C902.087 28.776 902.263 28.816 902.423 28.88L902.399 30.608C902.159 30.528 901.935 30.48 901.727 30.464C901.535 30.432 901.311 30.416 901.055 30.416C900.351 30.416 899.735 30.584 899.207 30.92C898.695 31.256 898.303 31.688 898.031 32.216C897.775 32.744 897.647 33.304 897.647 33.896V41H895.679ZM909.909 46.352C908.869 46.352 907.909 46.224 907.029 45.968C906.149 45.712 905.357 45.32 904.653 44.792L905.229 43.328C905.725 43.68 906.213 43.96 906.693 44.168C907.173 44.376 907.669 44.528 908.181 44.624C908.693 44.736 909.237 44.792 909.813 44.792C910.997 44.792 911.893 44.48 912.501 43.856C913.109 43.232 913.413 42.344 913.413 41.192V37.664H913.653C913.397 38.608 912.869 39.36 912.069 39.92C911.269 40.464 910.333 40.736 909.261 40.736C908.157 40.736 907.197 40.496 906.381 40.016C905.581 39.52 904.957 38.824 904.509 37.928C904.077 37.016 903.861 35.944 903.861 34.712C903.861 33.496 904.077 32.44 904.509 31.544C904.957 30.648 905.581 29.96 906.381 29.48C907.197 28.984 908.157 28.736 909.261 28.736C910.349 28.736 911.285 29.008 912.069 29.552C912.869 30.096 913.397 30.848 913.653 31.808L913.413 31.568L913.629 28.952H915.525C915.461 29.416 915.413 29.888 915.381 30.368C915.349 30.832 915.333 31.288 915.333 31.736V40.928C915.333 42.72 914.869 44.072 913.941 44.984C913.029 45.896 911.685 46.352 909.909 46.352ZM909.621 39.152C910.789 39.152 911.709 38.768 912.381 38C913.053 37.216 913.389 36.12 913.389 34.712C913.389 33.304 913.053 32.216 912.381 31.448C911.709 30.68 910.789 30.296 909.621 30.296C908.469 30.296 907.549 30.68 906.861 31.448C906.173 32.216 905.829 33.304 905.829 34.712C905.829 36.12 906.173 37.216 906.861 38C907.549 38.768 908.469 39.152 909.621 39.152ZM924.718 41.216C922.83 41.216 921.342 40.672 920.254 39.584C919.166 38.48 918.622 36.952 918.622 35C918.622 33.736 918.862 32.64 919.342 31.712C919.822 30.768 920.494 30.04 921.358 29.528C922.222 29 923.214 28.736 924.334 28.736C925.438 28.736 926.366 28.968 927.118 29.432C927.87 29.896 928.446 30.56 928.846 31.424C929.246 32.272 929.446 33.28 929.446 34.448V35.168H920.11V33.944H928.174L927.766 34.256C927.766 32.976 927.478 31.976 926.902 31.256C926.326 30.536 925.47 30.176 924.334 30.176C923.134 30.176 922.198 30.6 921.526 31.448C920.854 32.28 920.518 33.408 920.518 34.832V35.048C920.518 36.552 920.886 37.696 921.622 38.48C922.374 39.248 923.422 39.632 924.766 39.632C925.486 39.632 926.158 39.528 926.782 39.32C927.422 39.096 928.03 38.736 928.606 38.24L929.278 39.608C928.75 40.12 928.078 40.52 927.262 40.808C926.462 41.08 925.614 41.216 924.718 41.216ZM932.721 41V31.736C932.721 31.288 932.697 30.832 932.649 30.368C932.617 29.888 932.577 29.416 932.529 28.952H934.401L934.641 31.592H934.353C934.705 30.664 935.265 29.96 936.033 29.48C936.817 28.984 937.721 28.736 938.745 28.736C940.169 28.736 941.241 29.12 941.961 29.888C942.697 30.64 943.065 31.832 943.065 33.464V41H941.121V33.584C941.121 32.448 940.889 31.624 940.425 31.112C939.977 30.584 939.273 30.32 938.313 30.32C937.193 30.32 936.305 30.664 935.649 31.352C934.993 32.04 934.665 32.96 934.665 34.112V41H932.721ZM951.355 41.216C950.172 41.216 949.268 40.88 948.644 40.208C948.02 39.52 947.708 38.488 947.708 37.112V30.464H945.356V28.952H947.708V25.664L949.652 25.112V28.952H953.108V30.464H949.652V36.896C949.652 37.856 949.812 38.544 950.132 38.96C950.468 39.36 950.964 39.56 951.62 39.56C951.924 39.56 952.196 39.536 952.436 39.488C952.676 39.424 952.892 39.352 953.084 39.272V40.904C952.86 41 952.588 41.072 952.268 41.12C951.964 41.184 951.66 41.216 951.355 41.216ZM966.652 41V25.76H960.676V24.08H974.596V25.76H968.644V41H966.652ZM979.872 41.216C978.8 41.216 977.864 40.968 977.064 40.472C976.264 39.96 975.64 39.24 975.192 38.312C974.76 37.384 974.544 36.272 974.544 34.976C974.544 33.664 974.76 32.544 975.192 31.616C975.64 30.688 976.264 29.976 977.064 29.48C977.864 28.984 978.8 28.736 979.872 28.736C980.96 28.736 981.896 29.016 982.68 29.576C983.48 30.12 984.008 30.864 984.264 31.808H983.976L984.24 28.952H986.112C986.064 29.416 986.016 29.888 985.968 30.368C985.936 30.832 985.92 31.288 985.92 31.736V41H983.976V38.168H984.24C983.984 39.112 983.456 39.856 982.656 40.4C981.856 40.944 980.928 41.216 979.872 41.216ZM980.256 39.632C981.408 39.632 982.32 39.24 982.992 38.456C983.664 37.656 984 36.496 984 34.976C984 33.44 983.664 32.28 982.992 31.496C982.32 30.696 981.408 30.296 980.256 30.296C979.12 30.296 978.208 30.696 977.52 31.496C976.848 32.28 976.512 33.44 976.512 34.976C976.512 36.496 976.848 37.656 977.52 38.456C978.208 39.24 979.12 39.632 980.256 39.632ZM993.987 41.216C993.027 41.216 992.131 41.088 991.299 40.832C990.467 40.56 989.779 40.184 989.235 39.704L989.907 38.336C990.499 38.8 991.139 39.144 991.827 39.368C992.531 39.592 993.259 39.704 994.011 39.704C994.971 39.704 995.691 39.536 996.171 39.2C996.667 38.848 996.915 38.368 996.915 37.76C996.915 37.296 996.755 36.928 996.435 36.656C996.131 36.368 995.627 36.144 994.923 35.984L992.691 35.528C991.667 35.304 990.899 34.928 990.387 34.4C989.875 33.856 989.619 33.168 989.619 32.336C989.619 31.632 989.803 31.016 990.171 30.488C990.539 29.944 991.075 29.52 991.779 29.216C992.483 28.896 993.307 28.736 994.251 28.736C995.131 28.736 995.939 28.872 996.675 29.144C997.427 29.4 998.051 29.776 998.547 30.272L997.851 31.616C997.371 31.152 996.819 30.808 996.195 30.584C995.587 30.344 994.955 30.224 994.299 30.224C993.355 30.224 992.643 30.416 992.163 30.8C991.699 31.168 991.467 31.656 991.467 32.264C991.467 32.728 991.611 33.112 991.899 33.416C992.203 33.704 992.667 33.92 993.291 34.064L995.523 34.52C996.611 34.76 997.419 35.136 997.947 35.648C998.491 36.144 998.763 36.816 998.763 37.664C998.763 38.384 998.563 39.016 998.163 39.56C997.763 40.088 997.203 40.496 996.483 40.784C995.779 41.072 994.947 41.216 993.987 41.216ZM1002.19 41V23.336H1004.13V34.304H1004.18L1009.77 28.952H1012.22L1005.62 35.24L1005.67 34.256L1012.84 41H1010.32L1004.18 35.336H1004.13V41H1002.19ZM1018.63 41.216C1017.67 41.216 1016.78 41.088 1015.95 40.832C1015.11 40.56 1014.43 40.184 1013.88 39.704L1014.55 38.336C1015.15 38.8 1015.79 39.144 1016.47 39.368C1017.18 39.592 1017.91 39.704 1018.66 39.704C1019.62 39.704 1020.34 39.536 1020.82 39.2C1021.31 38.848 1021.56 38.368 1021.56 37.76C1021.56 37.296 1021.4 36.928 1021.08 36.656C1020.78 36.368 1020.27 36.144 1019.57 35.984L1017.34 35.528C1016.31 35.304 1015.55 34.928 1015.03 34.4C1014.52 33.856 1014.27 33.168 1014.27 32.336C1014.27 31.632 1014.45 31.016 1014.82 30.488C1015.19 29.944 1015.72 29.52 1016.43 29.216C1017.13 28.896 1017.95 28.736 1018.9 28.736C1019.78 28.736 1020.59 28.872 1021.32 29.144C1022.07 29.4 1022.7 29.776 1023.19 30.272L1022.5 31.616C1022.02 31.152 1021.47 30.808 1020.84 30.584C1020.23 30.344 1019.6 30.224 1018.95 30.224C1018 30.224 1017.29 30.416 1016.81 30.8C1016.35 31.168 1016.11 31.656 1016.11 32.264C1016.11 32.728 1016.26 33.112 1016.55 33.416C1016.85 33.704 1017.31 33.92 1017.94 34.064L1020.17 34.52C1021.26 34.76 1022.07 35.136 1022.59 35.648C1023.14 36.144 1023.41 36.816 1023.41 37.664C1023.41 38.384 1023.21 39.016 1022.81 39.56C1022.41 40.088 1021.85 40.496 1021.13 40.784C1020.43 41.072 1019.59 41.216 1018.63 41.216Z" fill="black"/>
<path d="M885.48 193.216C883.784 193.216 882.344 192.864 881.16 192.16C879.976 191.456 879.064 190.456 878.424 189.16C877.8 187.864 877.488 186.32 877.488 184.528C877.488 182.736 877.8 181.2 878.424 179.92C879.064 178.624 879.976 177.624 881.16 176.92C882.344 176.216 883.784 175.864 885.48 175.864C886.68 175.864 887.752 176.048 888.696 176.416C889.64 176.784 890.464 177.32 891.168 178.024L890.424 179.608C889.656 178.936 888.896 178.448 888.144 178.144C887.392 177.824 886.512 177.664 885.504 177.664C883.568 177.664 882.096 178.264 881.088 179.464C880.08 180.664 879.576 182.352 879.576 184.528C879.576 186.704 880.08 188.4 881.088 189.616C882.096 190.816 883.568 191.416 885.504 191.416C886.512 191.416 887.392 191.264 888.144 190.96C888.896 190.64 889.656 190.136 890.424 189.448L891.168 191.056C890.464 191.744 889.64 192.28 888.696 192.664C887.752 193.032 886.68 193.216 885.48 193.216ZM898.811 193.216C897.739 193.216 896.803 192.968 896.003 192.472C895.203 191.96 894.579 191.24 894.131 190.312C893.699 189.384 893.483 188.272 893.483 186.976C893.483 185.664 893.699 184.544 894.131 183.616C894.579 182.688 895.203 181.976 896.003 181.48C896.803 180.984 897.739 180.736 898.811 180.736C899.899 180.736 900.835 181.016 901.619 181.576C902.419 182.12 902.947 182.864 903.203 183.808H902.915L903.179 180.952H905.051C905.003 181.416 904.955 181.888 904.907 182.368C904.875 182.832 904.859 183.288 904.859 183.736V193H902.915V190.168H903.179C902.923 191.112 902.395 191.856 901.595 192.4C900.795 192.944 899.867 193.216 898.811 193.216ZM899.195 191.632C900.347 191.632 901.259 191.24 901.931 190.456C902.603 189.656 902.939 188.496 902.939 186.976C902.939 185.44 902.603 184.28 901.931 183.496C901.259 182.696 900.347 182.296 899.195 182.296C898.059 182.296 897.147 182.696 896.459 183.496C895.787 184.28 895.451 185.44 895.451 186.976C895.451 188.496 895.787 189.656 896.459 190.456C897.147 191.24 898.059 191.632 899.195 191.632ZM912.926 193.216C911.966 193.216 911.07 193.088 910.238 192.832C909.406 192.56 908.718 192.184 908.174 191.704L908.846 190.336C909.438 190.8 910.078 191.144 910.766 191.368C911.47 191.592 912.198 191.704 912.95 191.704C913.91 191.704 914.63 191.536 915.11 191.2C915.606 190.848 915.854 190.368 915.854 189.76C915.854 189.296 915.694 188.928 915.374 188.656C915.07 188.368 914.566 188.144 913.862 187.984L911.63 187.528C910.606 187.304 909.838 186.928 909.326 186.4C908.814 185.856 908.558 185.168 908.558 184.336C908.558 183.632 908.742 183.016 909.11 182.488C909.478 181.944 910.014 181.52 910.718 181.216C911.422 180.896 912.246 180.736 913.19 180.736C914.07 180.736 914.878 180.872 915.614 181.144C916.366 181.4 916.99 181.776 917.486 182.272L916.79 183.616C916.31 183.152 915.758 182.808 915.134 182.584C914.526 182.344 913.894 182.224 913.238 182.224C912.294 182.224 911.582 182.416 911.102 182.8C910.638 183.168 910.406 183.656 910.406 184.264C910.406 184.728 910.55 185.112 910.838 185.416C911.142 185.704 911.606 185.92 912.23 186.064L914.462 186.52C915.55 186.76 916.358 187.136 916.886 187.648C917.43 188.144 917.702 188.816 917.702 189.664C917.702 190.384 917.502 191.016 917.102 191.56C916.702 192.088 916.142 192.496 915.422 192.784C914.718 193.072 913.886 193.216 912.926 193.216ZM925.372 193.216C923.948 193.216 922.868 192.824 922.132 192.04C921.412 191.256 921.052 190.056 921.052 188.44V180.952H922.996V188.392C922.996 189.496 923.22 190.312 923.668 190.84C924.116 191.352 924.812 191.608 925.756 191.608C926.812 191.608 927.66 191.264 928.3 190.576C928.94 189.888 929.26 188.968 929.26 187.816V180.952H931.204V193H929.308V190.288H929.62C929.284 191.216 928.74 191.936 927.988 192.448C927.252 192.96 926.38 193.216 925.372 193.216ZM939.86 193.216C938.788 193.216 937.852 192.968 937.052 192.472C936.252 191.96 935.628 191.24 935.18 190.312C934.748 189.384 934.532 188.272 934.532 186.976C934.532 185.664 934.748 184.544 935.18 183.616C935.628 182.688 936.252 181.976 937.052 181.48C937.852 180.984 938.788 180.736 939.86 180.736C940.948 180.736 941.884 181.016 942.668 181.576C943.468 182.12 943.996 182.864 944.252 183.808H943.964L944.228 180.952H946.1C946.052 181.416 946.004 181.888 945.956 182.368C945.924 182.832 945.908 183.288 945.908 183.736V193H943.964V190.168H944.228C943.972 191.112 943.444 191.856 942.644 192.4C941.844 192.944 940.916 193.216 939.86 193.216ZM940.244 191.632C941.396 191.632 942.308 191.24 942.98 190.456C943.652 189.656 943.988 188.496 943.988 186.976C943.988 185.44 943.652 184.28 942.98 183.496C942.308 182.696 941.396 182.296 940.244 182.296C939.108 182.296 938.196 182.696 937.508 183.496C936.836 184.28 936.5 185.44 936.5 186.976C936.5 188.496 936.836 189.656 937.508 190.456C938.196 191.24 939.108 191.632 940.244 191.632ZM949.966 193V175.336H951.91V193H949.966ZM966.863 193V177.76H960.887V176.08H974.807V177.76H968.855V193H966.863ZM980.083 193.216C979.011 193.216 978.075 192.968 977.275 192.472C976.475 191.96 975.851 191.24 975.403 190.312C974.971 189.384 974.755 188.272 974.755 186.976C974.755 185.664 974.971 184.544 975.403 183.616C975.851 182.688 976.475 181.976 977.275 181.48C978.075 180.984 979.011 180.736 980.083 180.736C981.171 180.736 982.107 181.016 982.891 181.576C983.691 182.12 984.219 182.864 984.475 183.808H984.187L984.451 180.952H986.323C986.275 181.416 986.227 181.888 986.179 182.368C986.147 182.832 986.131 183.288 986.131 183.736V193H984.187V190.168H984.451C984.195 191.112 983.667 191.856 982.867 192.4C982.067 192.944 981.139 193.216 980.083 193.216ZM980.467 191.632C981.619 191.632 982.531 191.24 983.203 190.456C983.875 189.656 984.211 188.496 984.211 186.976C984.211 185.44 983.875 184.28 983.203 183.496C982.531 182.696 981.619 182.296 980.467 182.296C979.331 182.296 978.419 182.696 977.731 183.496C977.059 184.28 976.723 185.44 976.723 186.976C976.723 188.496 977.059 189.656 977.731 190.456C978.419 191.24 979.331 191.632 980.467 191.632ZM994.198 193.216C993.238 193.216 992.342 193.088 991.51 192.832C990.678 192.56 989.99 192.184 989.446 191.704L990.118 190.336C990.71 190.8 991.35 191.144 992.038 191.368C992.742 191.592 993.47 191.704 994.222 191.704C995.182 191.704 995.902 191.536 996.382 191.2C996.878 190.848 997.126 190.368 997.126 189.76C997.126 189.296 996.966 188.928 996.646 188.656C996.342 188.368 995.838 188.144 995.134 187.984L992.902 187.528C991.878 187.304 991.11 186.928 990.598 186.4C990.086 185.856 989.83 185.168 989.83 184.336C989.83 183.632 990.014 183.016 990.382 182.488C990.75 181.944 991.286 181.52 991.99 181.216C992.694 180.896 993.518 180.736 994.462 180.736C995.342 180.736 996.15 180.872 996.886 181.144C997.638 181.4 998.262 181.776 998.758 182.272L998.062 183.616C997.582 183.152 997.03 182.808 996.406 182.584C995.798 182.344 995.166 182.224 994.51 182.224C993.566 182.224 992.854 182.416 992.374 182.8C991.91 183.168 991.678 183.656 991.678 184.264C991.678 184.728 991.822 185.112 992.11 185.416C992.414 185.704 992.878 185.92 993.502 186.064L995.734 186.52C996.822 186.76 997.63 187.136 998.158 187.648C998.702 188.144 998.974 188.816 998.974 189.664C998.974 190.384 998.774 191.016 998.374 191.56C997.974 192.088 997.414 192.496 996.694 192.784C995.99 193.072 995.158 193.216 994.198 193.216ZM1002.4 193V175.336H1004.34V186.304H1004.39L1009.98 180.952H1012.43L1005.83 187.24L1005.88 186.256L1013.05 193H1010.53L1004.39 187.336H1004.34V193H1002.4ZM1018.84 193.216C1017.88 193.216 1016.99 193.088 1016.16 192.832C1015.32 192.56 1014.64 192.184 1014.09 191.704L1014.76 190.336C1015.36 190.8 1016 191.144 1016.68 191.368C1017.39 191.592 1018.12 191.704 1018.87 191.704C1019.83 191.704 1020.55 191.536 1021.03 191.2C1021.52 190.848 1021.77 190.368 1021.77 189.76C1021.77 189.296 1021.61 188.928 1021.29 188.656C1020.99 188.368 1020.48 188.144 1019.78 187.984L1017.55 187.528C1016.52 187.304 1015.76 186.928 1015.24 186.4C1014.73 185.856 1014.48 185.168 1014.48 184.336C1014.48 183.632 1014.66 183.016 1015.03 182.488C1015.4 181.944 1015.93 181.52 1016.64 181.216C1017.34 180.896 1018.16 180.736 1019.11 180.736C1019.99 180.736 1020.8 180.872 1021.53 181.144C1022.28 181.4 1022.91 181.776 1023.4 182.272L1022.71 183.616C1022.23 183.152 1021.68 182.808 1021.05 182.584C1020.44 182.344 1019.81 182.224 1019.16 182.224C1018.21 182.224 1017.5 182.416 1017.02 182.8C1016.56 183.168 1016.32 183.656 1016.32 184.264C1016.32 184.728 1016.47 185.112 1016.76 185.416C1017.06 185.704 1017.52 185.92 1018.15 186.064L1020.38 186.52C1021.47 186.76 1022.28 187.136 1022.8 187.648C1023.35 188.144 1023.62 188.816 1023.62 189.664C1023.62 190.384 1023.42 191.016 1023.02 191.56C1022.62 192.088 1022.06 192.496 1021.34 192.784C1020.64 193.072 1019.8 193.216 1018.84 193.216Z" fill="black"/>
<path d="M878.112 326V309.08H885.024C886.8 309.08 888.176 309.504 889.152 310.352C890.128 311.184 890.616 312.352 890.616 313.856C890.616 314.848 890.392 315.696 889.944 316.4C889.512 317.088 888.896 317.616 888.096 317.984C887.312 318.352 886.392 318.536 885.336 318.536L885.768 318.224H886.248C886.904 318.224 887.488 318.384 888 318.704C888.528 319.024 888.944 319.56 889.248 320.312L891.648 326H889.464L887.16 320.408C886.888 319.688 886.48 319.224 885.936 319.016C885.392 318.792 884.712 318.68 883.896 318.68H880.104V326H878.112ZM880.104 317.12H884.736C886.016 317.12 886.984 316.848 887.64 316.304C888.312 315.744 888.648 314.944 888.648 313.904C888.648 312.864 888.312 312.072 887.64 311.528C886.984 310.984 886.016 310.712 884.736 310.712H880.104V317.12ZM899.907 326.216C898.019 326.216 896.531 325.672 895.443 324.584C894.355 323.48 893.811 321.952 893.811 320C893.811 318.736 894.051 317.64 894.531 316.712C895.011 315.768 895.683 315.04 896.547 314.528C897.411 314 898.403 313.736 899.523 313.736C900.627 313.736 901.555 313.968 902.307 314.432C903.059 314.896 903.635 315.56 904.035 316.424C904.435 317.272 904.635 318.28 904.635 319.448V320.168H895.299V318.944H903.363L902.955 319.256C902.955 317.976 902.667 316.976 902.091 316.256C901.515 315.536 900.659 315.176 899.523 315.176C898.323 315.176 897.387 315.6 896.715 316.448C896.043 317.28 895.707 318.408 895.707 319.832V320.048C895.707 321.552 896.075 322.696 896.811 323.48C897.563 324.248 898.611 324.632 899.955 324.632C900.675 324.632 901.347 324.528 901.971 324.32C902.611 324.096 903.219 323.736 903.795 323.24L904.467 324.608C903.939 325.12 903.267 325.52 902.451 325.808C901.651 326.08 900.803 326.216 899.907 326.216ZM913.214 331.352C912.174 331.352 911.214 331.224 910.334 330.968C909.454 330.712 908.662 330.32 907.958 329.792L908.534 328.328C909.03 328.68 909.518 328.96 909.998 329.168C910.478 329.376 910.974 329.528 911.486 329.624C911.998 329.736 912.542 329.792 913.118 329.792C914.302 329.792 915.198 329.48 915.806 328.856C916.414 328.232 916.718 327.344 916.718 326.192V322.664H916.958C916.702 323.608 916.174 324.36 915.374 324.92C914.574 325.464 913.638 325.736 912.566 325.736C911.462 325.736 910.502 325.496 909.686 325.016C908.886 324.52 908.262 323.824 907.814 322.928C907.382 322.016 907.166 320.944 907.166 319.712C907.166 318.496 907.382 317.44 907.814 316.544C908.262 315.648 908.886 314.96 909.686 314.48C910.502 313.984 911.462 313.736 912.566 313.736C913.654 313.736 914.59 314.008 915.374 314.552C916.174 315.096 916.702 315.848 916.958 316.808L916.718 316.568L916.934 313.952H918.83C918.766 314.416 918.718 314.888 918.686 315.368C918.654 315.832 918.638 316.288 918.638 316.736V325.928C918.638 327.72 918.174 329.072 917.246 329.984C916.334 330.896 914.99 331.352 913.214 331.352ZM912.926 324.152C914.094 324.152 915.014 323.768 915.686 323C916.358 322.216 916.694 321.12 916.694 319.712C916.694 318.304 916.358 317.216 915.686 316.448C915.014 315.68 914.094 315.296 912.926 315.296C911.774 315.296 910.854 315.68 910.166 316.448C909.478 317.216 909.134 318.304 909.134 319.712C909.134 321.12 909.478 322.216 910.166 323C910.854 323.768 911.774 324.152 912.926 324.152ZM926.919 326.216C925.495 326.216 924.415 325.824 923.679 325.04C922.959 324.256 922.599 323.056 922.599 321.44V313.952H924.543V321.392C924.543 322.496 924.767 323.312 925.215 323.84C925.663 324.352 926.359 324.608 927.303 324.608C928.359 324.608 929.207 324.264 929.847 323.576C930.487 322.888 930.807 321.968 930.807 320.816V313.952H932.751V326H930.855V323.288H931.167C930.831 324.216 930.287 324.936 929.535 325.448C928.799 325.96 927.927 326.216 926.919 326.216ZM936.823 326V308.336H938.767V326H936.823ZM947.425 326.216C946.353 326.216 945.417 325.968 944.617 325.472C943.817 324.96 943.193 324.24 942.745 323.312C942.313 322.384 942.097 321.272 942.097 319.976C942.097 318.664 942.313 317.544 942.745 316.616C943.193 315.688 943.817 314.976 944.617 314.48C945.417 313.984 946.353 313.736 947.425 313.736C948.513 313.736 949.449 314.016 950.233 314.576C951.033 315.12 951.561 315.864 951.817 316.808H951.529L951.793 313.952H953.665C953.617 314.416 953.569 314.888 953.521 315.368C953.489 315.832 953.473 316.288 953.473 316.736V326H951.529V323.168H951.793C951.537 324.112 951.009 324.856 950.209 325.4C949.409 325.944 948.481 326.216 947.425 326.216ZM947.809 324.632C948.961 324.632 949.873 324.24 950.545 323.456C951.217 322.656 951.553 321.496 951.553 319.976C951.553 318.44 951.217 317.28 950.545 316.496C949.873 315.696 948.961 315.296 947.809 315.296C946.673 315.296 945.761 315.696 945.073 316.496C944.401 317.28 944.065 318.44 944.065 319.976C944.065 321.496 944.401 322.656 945.073 323.456C945.761 324.24 946.673 324.632 947.809 324.632ZM957.484 326V316.856C957.484 316.376 957.468 315.888 957.436 315.392C957.42 314.896 957.388 314.416 957.34 313.952H959.212L959.452 316.88L959.116 316.904C959.276 316.184 959.556 315.592 959.956 315.128C960.356 314.664 960.828 314.32 961.372 314.096C961.916 313.856 962.484 313.736 963.076 313.736C963.316 313.736 963.524 313.744 963.7 313.76C963.892 313.776 964.068 313.816 964.228 313.88L964.204 315.608C963.964 315.528 963.74 315.48 963.532 315.464C963.34 315.432 963.116 315.416 962.86 315.416C962.156 315.416 961.54 315.584 961.012 315.92C960.5 316.256 960.108 316.688 959.836 317.216C959.58 317.744 959.452 318.304 959.452 318.896V326H957.484ZM977.429 326V310.76H971.453V309.08H985.373V310.76H979.421V326H977.429ZM990.649 326.216C989.577 326.216 988.641 325.968 987.841 325.472C987.041 324.96 986.417 324.24 985.969 323.312C985.537 322.384 985.321 321.272 985.321 319.976C985.321 318.664 985.537 317.544 985.969 316.616C986.417 315.688 987.041 314.976 987.841 314.48C988.641 313.984 989.577 313.736 990.649 313.736C991.737 313.736 992.673 314.016 993.457 314.576C994.257 315.12 994.785 315.864 995.041 316.808H994.753L995.017 313.952H996.889C996.841 314.416 996.793 314.888 996.745 315.368C996.713 315.832 996.697 316.288 996.697 316.736V326H994.753V323.168H995.017C994.761 324.112 994.233 324.856 993.433 325.4C992.633 325.944 991.705 326.216 990.649 326.216ZM991.033 324.632C992.185 324.632 993.097 324.24 993.769 323.456C994.441 322.656 994.777 321.496 994.777 319.976C994.777 318.44 994.441 317.28 993.769 316.496C993.097 315.696 992.185 315.296 991.033 315.296C989.897 315.296 988.985 315.696 988.297 316.496C987.625 317.28 987.289 318.44 987.289 319.976C987.289 321.496 987.625 322.656 988.297 323.456C988.985 324.24 989.897 324.632 991.033 324.632ZM1004.76 326.216C1003.8 326.216 1002.91 326.088 1002.08 325.832C1001.24 325.56 1000.56 325.184 1000.01 324.704L1000.68 323.336C1001.28 323.8 1001.92 324.144 1002.6 324.368C1003.31 324.592 1004.04 324.704 1004.79 324.704C1005.75 324.704 1006.47 324.536 1006.95 324.2C1007.44 323.848 1007.69 323.368 1007.69 322.76C1007.69 322.296 1007.53 321.928 1007.21 321.656C1006.91 321.368 1006.4 321.144 1005.7 320.984L1003.47 320.528C1002.44 320.304 1001.68 319.928 1001.16 319.4C1000.65 318.856 1000.4 318.168 1000.4 317.336C1000.4 316.632 1000.58 316.016 1000.95 315.488C1001.32 314.944 1001.85 314.52 1002.56 314.216C1003.26 313.896 1004.08 313.736 1005.03 313.736C1005.91 313.736 1006.72 313.872 1007.45 314.144C1008.2 314.4 1008.83 314.776 1009.32 315.272L1008.63 316.616C1008.15 316.152 1007.6 315.808 1006.97 315.584C1006.36 315.344 1005.73 315.224 1005.08 315.224C1004.13 315.224 1003.42 315.416 1002.94 315.8C1002.48 316.168 1002.24 316.656 1002.24 317.264C1002.24 317.728 1002.39 318.112 1002.68 318.416C1002.98 318.704 1003.44 318.92 1004.07 319.064L1006.3 319.52C1007.39 319.76 1008.2 320.136 1008.72 320.648C1009.27 321.144 1009.54 321.816 1009.54 322.664C1009.54 323.384 1009.34 324.016 1008.94 324.56C1008.54 325.088 1007.98 325.496 1007.26 325.784C1006.56 326.072 1005.72 326.216 1004.76 326.216ZM1012.96 326V308.336H1014.91V319.304H1014.95L1020.55 313.952H1022.99L1016.39 320.24L1016.44 319.256L1023.62 326H1021.1L1014.95 320.336H1014.91V326H1012.96ZM1029.41 326.216C1028.45 326.216 1027.55 326.088 1026.72 325.832C1025.89 325.56 1025.2 325.184 1024.66 324.704L1025.33 323.336C1025.92 323.8 1026.56 324.144 1027.25 324.368C1027.95 324.592 1028.68 324.704 1029.43 324.704C1030.39 324.704 1031.11 324.536 1031.59 324.2C1032.09 323.848 1032.34 323.368 1032.34 322.76C1032.34 322.296 1032.18 321.928 1031.86 321.656C1031.55 321.368 1031.05 321.144 1030.35 320.984L1028.11 320.528C1027.09 320.304 1026.32 319.928 1025.81 319.4C1025.3 318.856 1025.04 318.168 1025.04 317.336C1025.04 316.632 1025.23 316.016 1025.59 315.488C1025.96 314.944 1026.5 314.52 1027.2 314.216C1027.91 313.896 1028.73 313.736 1029.67 313.736C1030.55 313.736 1031.36 313.872 1032.1 314.144C1032.85 314.4 1033.47 314.776 1033.97 315.272L1033.27 316.616C1032.79 316.152 1032.24 315.808 1031.62 315.584C1031.01 315.344 1030.38 315.224 1029.72 315.224C1028.78 315.224 1028.07 315.416 1027.59 315.8C1027.12 316.168 1026.89 316.656 1026.89 317.264C1026.89 317.728 1027.03 318.112 1027.32 318.416C1027.63 318.704 1028.09 318.92 1028.71 319.064L1030.95 319.52C1032.03 319.76 1032.84 320.136 1033.37 320.648C1033.91 321.144 1034.19 321.816 1034.19 322.664C1034.19 323.384 1033.99 324.016 1033.59 324.56C1033.19 325.088 1032.63 325.496 1031.91 325.784C1031.2 326.072 1030.37 326.216 1029.41 326.216Z" fill="black"/>
<path d="M863.48 459.216C861.784 459.216 860.344 458.864 859.16 458.16C857.976 457.456 857.064 456.456 856.424 455.16C855.8 453.864 855.488 452.32 855.488 450.528C855.488 448.736 855.8 447.2 856.424 445.92C857.064 444.624 857.976 443.624 859.16 442.92C860.344 442.216 861.784 441.864 863.48 441.864C864.68 441.864 865.752 442.048 866.696 442.416C867.64 442.784 868.464 443.32 869.168 444.024L868.424 445.608C867.656 444.936 866.896 444.448 866.144 444.144C865.392 443.824 864.512 443.664 863.504 443.664C861.568 443.664 860.096 444.264 859.088 445.464C858.08 446.664 857.576 448.352 857.576 450.528C857.576 452.704 858.08 454.4 859.088 455.616C860.096 456.816 861.568 457.416 863.504 457.416C864.512 457.416 865.392 457.264 866.144 456.96C866.896 456.64 867.656 456.136 868.424 455.448L869.168 457.056C868.464 457.744 867.64 458.28 866.696 458.664C865.752 459.032 864.68 459.216 863.48 459.216ZM876.703 459.216C875.551 459.216 874.543 458.968 873.679 458.472C872.831 457.96 872.175 457.24 871.711 456.312C871.247 455.368 871.015 454.256 871.015 452.976C871.015 451.68 871.247 450.568 871.711 449.64C872.175 448.712 872.831 448 873.679 447.504C874.543 446.992 875.551 446.736 876.703 446.736C877.871 446.736 878.879 446.992 879.727 447.504C880.591 448 881.255 448.712 881.719 449.64C882.199 450.568 882.439 451.68 882.439 452.976C882.439 454.256 882.199 455.368 881.719 456.312C881.255 457.24 880.591 457.96 879.727 458.472C878.879 458.968 877.871 459.216 876.703 459.216ZM876.703 457.632C877.855 457.632 878.767 457.24 879.439 456.456C880.111 455.656 880.447 454.496 880.447 452.976C880.447 451.44 880.103 450.28 879.415 449.496C878.743 448.696 877.839 448.296 876.703 448.296C875.567 448.296 874.663 448.696 873.991 449.496C873.319 450.28 872.983 451.44 872.983 452.976C872.983 454.496 873.319 455.656 873.991 456.456C874.663 457.24 875.567 457.632 876.703 457.632ZM885.769 459V449.736C885.769 449.288 885.745 448.832 885.697 448.368C885.665 447.888 885.625 447.416 885.577 446.952H887.449L887.689 449.592H887.401C887.721 448.68 888.225 447.976 888.913 447.48C889.617 446.984 890.465 446.736 891.457 446.736C892.465 446.736 893.281 446.976 893.905 447.456C894.545 447.936 894.977 448.68 895.201 449.688H894.841C895.145 448.776 895.681 448.056 896.449 447.528C897.217 447 898.113 446.736 899.137 446.736C900.465 446.736 901.465 447.12 902.137 447.888C902.809 448.64 903.145 449.832 903.145 451.464V459H901.201V451.584C901.201 450.448 901.001 449.624 900.601 449.112C900.201 448.584 899.561 448.32 898.681 448.32C897.673 448.32 896.873 448.672 896.281 449.376C895.705 450.064 895.417 450.992 895.417 452.16V459H893.473V451.584C893.473 450.448 893.273 449.624 892.873 449.112C892.473 448.584 891.833 448.32 890.953 448.32C889.945 448.32 889.153 448.672 888.577 449.376C888.001 450.064 887.713 450.992 887.713 452.16V459H885.769ZM907.14 464.184V449.736C907.14 449.288 907.116 448.832 907.068 448.368C907.036 447.888 906.996 447.416 906.948 446.952H908.82L909.084 449.808H908.796C909.052 448.864 909.572 448.12 910.356 447.576C911.14 447.016 912.076 446.736 913.164 446.736C914.252 446.736 915.188 446.984 915.972 447.48C916.772 447.976 917.396 448.688 917.844 449.616C918.292 450.544 918.516 451.664 918.516 452.976C918.516 454.272 918.292 455.384 917.844 456.312C917.412 457.24 916.796 457.96 915.996 458.472C915.196 458.968 914.252 459.216 913.164 459.216C912.092 459.216 911.164 458.944 910.38 458.4C909.596 457.856 909.076 457.112 908.82 456.168H909.084V464.184H907.14ZM912.78 457.632C913.932 457.632 914.844 457.24 915.516 456.456C916.204 455.656 916.548 454.496 916.548 452.976C916.548 451.44 916.204 450.28 915.516 449.496C914.844 448.696 913.932 448.296 912.78 448.296C911.644 448.296 910.732 448.696 910.044 449.496C909.372 450.28 909.036 451.44 909.036 452.976C909.036 454.496 909.372 455.656 910.044 456.456C910.732 457.24 911.644 457.632 912.78 457.632ZM921.83 459V441.336H923.774V459H921.83ZM933.201 459.216C931.313 459.216 929.825 458.672 928.737 457.584C927.649 456.48 927.105 454.952 927.105 453C927.105 451.736 927.345 450.64 927.825 449.712C928.305 448.768 928.977 448.04 929.841 447.528C930.705 447 931.697 446.736 932.817 446.736C933.921 446.736 934.849 446.968 935.601 447.432C936.353 447.896 936.929 448.56 937.329 449.424C937.729 450.272 937.929 451.28 937.929 452.448V453.168H928.593V451.944H936.657L936.249 452.256C936.249 450.976 935.961 449.976 935.385 449.256C934.809 448.536 933.953 448.176 932.817 448.176C931.617 448.176 930.681 448.6 930.009 449.448C929.337 450.28 929.001 451.408 929.001 452.832V453.048C929.001 454.552 929.369 455.696 930.105 456.48C930.857 457.248 931.905 457.632 933.249 457.632C933.969 457.632 934.641 457.528 935.265 457.32C935.905 457.096 936.513 456.736 937.089 456.24L937.761 457.608C937.233 458.12 936.561 458.52 935.745 458.808C934.945 459.08 934.097 459.216 933.201 459.216ZM945.476 459.216C944.292 459.216 943.388 458.88 942.764 458.208C942.14 457.52 941.828 456.488 941.828 455.112V448.464H939.476V446.952H941.828V443.664L943.772 443.112V446.952H947.228V448.464H943.772V454.896C943.772 455.856 943.932 456.544 944.252 456.96C944.588 457.36 945.084 457.56 945.74 457.56C946.044 457.56 946.316 457.536 946.556 457.488C946.796 457.424 947.012 457.352 947.204 457.272V458.904C946.98 459 946.708 459.072 946.388 459.12C946.084 459.184 945.78 459.216 945.476 459.216ZM955.129 459.216C953.241 459.216 951.753 458.672 950.665 457.584C949.577 456.48 949.033 454.952 949.033 453C949.033 451.736 949.273 450.64 949.753 449.712C950.233 448.768 950.905 448.04 951.769 447.528C952.633 447 953.625 446.736 954.745 446.736C955.849 446.736 956.777 446.968 957.529 447.432C958.281 447.896 958.857 448.56 959.257 449.424C959.657 450.272 959.857 451.28 959.857 452.448V453.168H950.521V451.944H958.585L958.177 452.256C958.177 450.976 957.889 449.976 957.313 449.256C956.737 448.536 955.881 448.176 954.745 448.176C953.545 448.176 952.609 448.6 951.937 449.448C951.265 450.28 950.929 451.408 950.929 452.832V453.048C950.929 454.552 951.297 455.696 952.033 456.48C952.785 457.248 953.833 457.632 955.177 457.632C955.897 457.632 956.569 457.528 957.193 457.32C957.833 457.096 958.441 456.736 959.017 456.24L959.689 457.608C959.161 458.12 958.489 458.52 957.673 458.808C956.873 459.08 956.025 459.216 955.129 459.216ZM967.692 459.216C966.636 459.216 965.708 458.968 964.908 458.472C964.108 457.96 963.484 457.24 963.036 456.312C962.604 455.384 962.388 454.272 962.388 452.976C962.388 451.664 962.604 450.544 963.036 449.616C963.484 448.688 964.108 447.976 964.908 447.48C965.708 446.984 966.636 446.736 967.692 446.736C968.78 446.736 969.716 447.008 970.5 447.552C971.3 448.096 971.836 448.832 972.108 449.76H971.82V441.336H973.764V459H971.844V456.12H972.108C971.852 457.08 971.324 457.84 970.524 458.4C969.724 458.944 968.78 459.216 967.692 459.216ZM968.1 457.632C969.236 457.632 970.148 457.24 970.836 456.456C971.524 455.656 971.868 454.496 971.868 452.976C971.868 451.44 971.524 450.28 970.836 449.496C970.148 448.696 969.236 448.296 968.1 448.296C966.964 448.296 966.052 448.696 965.364 449.496C964.692 450.28 964.356 451.44 964.356 452.976C964.356 454.496 964.692 455.656 965.364 456.456C966.052 457.24 966.964 457.632 968.1 457.632ZM988.7 459V443.76H982.724V442.08H996.644V443.76H990.692V459H988.7ZM1001.92 459.216C1000.85 459.216 999.913 458.968 999.113 458.472C998.313 457.96 997.689 457.24 997.241 456.312C996.809 455.384 996.593 454.272 996.593 452.976C996.593 451.664 996.809 450.544 997.241 449.616C997.689 448.688 998.313 447.976 999.113 447.48C999.913 446.984 1000.85 446.736 1001.92 446.736C1003.01 446.736 1003.94 447.016 1004.73 447.576C1005.53 448.12 1006.06 448.864 1006.31 449.808H1006.02L1006.29 446.952H1008.16C1008.11 447.416 1008.06 447.888 1008.02 448.368C1007.98 448.832 1007.97 449.288 1007.97 449.736V459H1006.02V456.168H1006.29C1006.03 457.112 1005.5 457.856 1004.7 458.4C1003.9 458.944 1002.98 459.216 1001.92 459.216ZM1002.3 457.632C1003.46 457.632 1004.37 457.24 1005.04 456.456C1005.71 455.656 1006.05 454.496 1006.05 452.976C1006.05 451.44 1005.71 450.28 1005.04 449.496C1004.37 448.696 1003.46 448.296 1002.3 448.296C1001.17 448.296 1000.26 448.696 999.569 449.496C998.897 450.28 998.561 451.44 998.561 452.976C998.561 454.496 998.897 455.656 999.569 456.456C1000.26 457.24 1001.17 457.632 1002.3 457.632ZM1016.04 459.216C1015.08 459.216 1014.18 459.088 1013.35 458.832C1012.52 458.56 1011.83 458.184 1011.28 457.704L1011.96 456.336C1012.55 456.8 1013.19 457.144 1013.88 457.368C1014.58 457.592 1015.31 457.704 1016.06 457.704C1017.02 457.704 1017.74 457.536 1018.22 457.2C1018.72 456.848 1018.96 456.368 1018.96 455.76C1018.96 455.296 1018.8 454.928 1018.48 454.656C1018.18 454.368 1017.68 454.144 1016.97 453.984L1014.74 453.528C1013.72 453.304 1012.95 452.928 1012.44 452.4C1011.92 451.856 1011.67 451.168 1011.67 450.336C1011.67 449.632 1011.85 449.016 1012.22 448.488C1012.59 447.944 1013.12 447.52 1013.83 447.216C1014.53 446.896 1015.36 446.736 1016.3 446.736C1017.18 446.736 1017.99 446.872 1018.72 447.144C1019.48 447.4 1020.1 447.776 1020.6 448.272L1019.9 449.616C1019.42 449.152 1018.87 448.808 1018.24 448.584C1017.64 448.344 1017 448.224 1016.35 448.224C1015.4 448.224 1014.69 448.416 1014.21 448.8C1013.75 449.168 1013.52 449.656 1013.52 450.264C1013.52 450.728 1013.66 451.112 1013.95 451.416C1014.25 451.704 1014.72 451.92 1015.34 452.064L1017.57 452.52C1018.66 452.76 1019.47 453.136 1020 453.648C1020.54 454.144 1020.81 454.816 1020.81 455.664C1020.81 456.384 1020.61 457.016 1020.21 457.56C1019.81 458.088 1019.25 458.496 1018.53 458.784C1017.83 459.072 1017 459.216 1016.04 459.216ZM1024.23 459V441.336H1026.18V452.304H1026.23L1031.82 446.952H1034.27L1027.67 453.24L1027.71 452.256L1034.89 459H1032.37L1026.23 453.336H1026.18V459H1024.23ZM1040.68 459.216C1039.72 459.216 1038.83 459.088 1037.99 458.832C1037.16 458.56 1036.47 458.184 1035.93 457.704L1036.6 456.336C1037.19 456.8 1037.83 457.144 1038.52 457.368C1039.23 457.592 1039.95 457.704 1040.71 457.704C1041.67 457.704 1042.39 457.536 1042.87 457.2C1043.36 456.848 1043.61 456.368 1043.61 455.76C1043.61 455.296 1043.45 454.928 1043.13 454.656C1042.83 454.368 1042.32 454.144 1041.62 453.984L1039.39 453.528C1038.36 453.304 1037.59 452.928 1037.08 452.4C1036.57 451.856 1036.31 451.168 1036.31 450.336C1036.31 449.632 1036.5 449.016 1036.87 448.488C1037.23 447.944 1037.77 447.52 1038.47 447.216C1039.18 446.896 1040 446.736 1040.95 446.736C1041.83 446.736 1042.63 446.872 1043.37 447.144C1044.12 447.4 1044.75 447.776 1045.24 448.272L1044.55 449.616C1044.07 449.152 1043.51 448.808 1042.89 448.584C1042.28 448.344 1041.65 448.224 1040.99 448.224C1040.05 448.224 1039.34 448.416 1038.86 448.8C1038.39 449.168 1038.16 449.656 1038.16 450.264C1038.16 450.728 1038.31 451.112 1038.59 451.416C1038.9 451.704 1039.36 451.92 1039.99 452.064L1042.22 452.52C1043.31 452.76 1044.11 453.136 1044.64 453.648C1045.19 454.144 1045.46 454.816 1045.46 455.664C1045.46 456.384 1045.26 457.016 1044.86 457.56C1044.46 458.088 1043.9 458.496 1043.18 458.784C1042.47 459.072 1041.64 459.216 1040.68 459.216Z" fill="black"/>
<path d="M935.064 117V114.728H940.376V96.712H941.784L935.576 100.584V97.928L941.112 94.44H943.032V114.728H948.024V117H935.064ZM953.239 117V115.016L961.24 106.664C962.285 105.576 963.063 104.541 963.575 103.56C964.109 102.557 964.375 101.523 964.375 100.456C964.375 99.1547 963.97 98.1733 963.16 97.512C962.349 96.8293 961.175 96.488 959.639 96.488C958.445 96.488 957.335 96.7013 956.311 97.128C955.309 97.5333 954.338 98.184 953.399 99.08L952.439 97C953.293 96.1467 954.381 95.464 955.703 94.952C957.026 94.4187 958.423 94.152 959.895 94.152C962.178 94.152 963.938 94.6853 965.175 95.752C966.413 96.7973 967.031 98.2907 967.031 100.232C967.031 101.661 966.679 103.027 965.976 104.328C965.293 105.608 964.29 106.931 962.967 108.296L955.895 115.464V114.728H967.992V117H953.239Z" fill="#FF452C"/>
<path d="M935.064 256V253.728H940.376V235.712H941.784L935.576 239.584V236.928L941.112 233.44H943.032V253.728H948.024V256H935.064ZM962.839 256V251.104H952.087V249.184L963.255 233.44H965.431V248.96H968.888V251.104H965.431V256H962.839ZM962.839 248.96V236.576H963.543L954.263 249.632V248.96H962.839Z" fill="#00FF47"/>
<path d="M935.064 395V392.728H940.376V374.712H941.784L935.576 378.584V375.928L941.112 372.44H943.032V392.728H948.024V395H935.064ZM953.239 395V393.016L961.24 384.664C962.285 383.576 963.063 382.541 963.575 381.56C964.109 380.557 964.375 379.523 964.375 378.456C964.375 377.155 963.97 376.173 963.16 375.512C962.349 374.829 961.175 374.488 959.639 374.488C958.445 374.488 957.335 374.701 956.311 375.128C955.309 375.533 954.338 376.184 953.399 377.08L952.439 375C953.293 374.147 954.381 373.464 955.703 372.952C957.026 372.419 958.423 372.152 959.895 372.152C962.178 372.152 963.938 372.685 965.175 373.752C966.413 374.797 967.031 376.291 967.031 378.232C967.031 379.661 966.679 381.027 965.976 382.328C965.293 383.608 964.29 384.931 962.967 386.296L955.895 393.464V392.728H967.992V395H953.239Z" fill="#FF9900"/>
<path d="M935.064 534V531.728H940.376V513.712H941.784L935.576 517.584V514.928L941.112 511.44H943.032V531.728H948.024V534H935.064ZM953.239 534V532.016L961.24 523.664C962.285 522.576 963.063 521.541 963.575 520.56C964.109 519.557 964.375 518.523 964.375 517.456C964.375 516.155 963.97 515.173 963.16 514.512C962.349 513.829 961.175 513.488 959.639 513.488C958.445 513.488 957.335 513.701 956.311 514.128C955.309 514.533 954.338 515.184 953.399 516.08L952.439 514C953.293 513.147 954.381 512.464 955.703 511.952C957.026 511.419 958.423 511.152 959.895 511.152C962.178 511.152 963.938 511.685 965.175 512.752C966.413 513.797 967.031 515.291 967.031 517.232C967.031 518.661 966.679 520.027 965.976 521.328C965.293 522.608 964.29 523.931 962.967 525.296L955.895 532.464V531.728H967.992V534H953.239Z" fill="#0B63C5"/>
</g>
</g>
<defs>
<clipPath id="clip0_584_101">
<rect width="1122" height="546" fill="white"/>
</clipPath>
<clipPath id="clip1_584_101">
<rect width="342" height="546" fill="white" transform="translate(780)"/>
</clipPath>
</defs>
</svg>
