<svg width="390" height="844" viewBox="0 0 390 844" fill="none" xmlns="http://www.w3.org/2000/svg">
<g clip-path="url(#clip0_6345_2)">
<rect width="390" height="844" fill="white"/>
<rect x="17.5" y="140.5" width="354" height="399" rx="7.5" fill="white" stroke="#CCCCCC"/>
<path d="M295 311C295 289.598 288.134 268.76 275.41 251.551C262.687 234.341 244.778 221.668 224.316 215.394C203.855 209.119 181.92 209.575 161.737 216.695C141.553 223.814 124.186 237.22 112.189 254.944L142.829 275.685C150.388 264.519 161.329 256.073 174.044 251.588C186.76 247.103 200.579 246.815 213.469 250.768C226.36 254.721 237.643 262.705 245.659 273.547C253.674 284.389 258 297.517 258 311H295Z" fill="#FF9900" stroke="white"/>
<path d="M112.189 254.943C100.987 271.492 95 291.017 95 311C95 330.983 100.987 350.508 112.189 367.056L142.829 346.315C135.772 335.89 132 323.589 132 311C132 298.41 135.772 286.11 142.829 275.684L112.189 254.943Z" fill="#3751FF" stroke="white"/>
<path d="M112.189 367.056C120.205 378.898 130.666 388.882 142.869 396.336C155.071 403.791 168.73 408.541 182.924 410.268C197.119 411.995 211.518 410.657 225.152 406.346C238.785 402.035 251.336 394.85 261.957 385.275L237.183 357.794C230.492 363.825 222.585 368.352 213.996 371.068C205.407 373.784 196.335 374.627 187.392 373.539C178.45 372.451 169.845 369.458 162.157 364.762C154.47 360.066 147.879 353.776 142.829 346.316L112.189 367.056Z" fill="#00FF47" stroke="white"/>
<path d="M261.955 385.275C272.356 375.899 280.672 364.442 286.365 351.647C292.057 338.852 294.998 325.004 294.998 311H257.998C257.998 319.823 256.145 328.547 252.559 336.608C248.973 344.669 243.734 351.886 237.181 357.794L261.955 385.275Z" fill="#FF452C" stroke="white"/>
<path d="M31.856 488.144C30.3307 488.144 29.1947 487.755 28.448 486.976C27.712 486.197 27.344 485.051 27.344 483.536V476.72H28.656V483.472C28.656 484.635 28.912 485.509 29.424 486.096C29.936 486.683 30.7467 486.976 31.856 486.976C32.9013 486.976 33.696 486.683 34.24 486.096C34.784 485.509 35.056 484.635 35.056 483.472V476.72H36.368V483.536C36.368 485.051 35.984 486.197 35.216 486.976C34.4587 487.755 33.3387 488.144 31.856 488.144ZM39.2195 488V481.904C39.2195 481.584 39.2088 481.259 39.1875 480.928C39.1768 480.597 39.1555 480.277 39.1235 479.968H40.3715L40.5315 481.92L40.3075 481.936C40.4142 481.456 40.6008 481.061 40.8675 480.752C41.1342 480.443 41.4488 480.213 41.8115 480.064C42.1742 479.904 42.5528 479.824 42.9475 479.824C43.1075 479.824 43.2462 479.829 43.3635 479.84C43.4915 479.851 43.6088 479.877 43.7155 479.92L43.6995 481.072C43.5395 481.019 43.3902 480.987 43.2515 480.976C43.1235 480.955 42.9742 480.944 42.8035 480.944C42.3342 480.944 41.9235 481.056 41.5715 481.28C41.2302 481.504 40.9688 481.792 40.7875 482.144C40.6168 482.496 40.5315 482.869 40.5315 483.264V488H39.2195ZM48.8063 491.568C48.1129 491.568 47.4729 491.483 46.8863 491.312C46.2996 491.141 45.7716 490.88 45.3023 490.528L45.6863 489.552C46.0169 489.787 46.3423 489.973 46.6623 490.112C46.9823 490.251 47.3129 490.352 47.6543 490.416C47.9956 490.491 48.3583 490.528 48.7423 490.528C49.5316 490.528 50.1289 490.32 50.5343 489.904C50.9396 489.488 51.1423 488.896 51.1423 488.128V485.776H51.3023C51.1316 486.405 50.7796 486.907 50.2463 487.28C49.7129 487.643 49.0889 487.824 48.3743 487.824C47.6383 487.824 46.9983 487.664 46.4543 487.344C45.9209 487.013 45.5049 486.549 45.2063 485.952C44.9183 485.344 44.7743 484.629 44.7743 483.808C44.7743 482.997 44.9183 482.293 45.2063 481.696C45.5049 481.099 45.9209 480.64 46.4543 480.32C46.9983 479.989 47.6383 479.824 48.3743 479.824C49.0996 479.824 49.7236 480.005 50.2463 480.368C50.7796 480.731 51.1316 481.232 51.3023 481.872L51.1423 481.712L51.2863 479.968H52.5503C52.5076 480.277 52.4756 480.592 52.4543 480.912C52.4329 481.221 52.4223 481.525 52.4223 481.824V487.952C52.4223 489.147 52.1129 490.048 51.4943 490.656C50.8863 491.264 49.9903 491.568 48.8063 491.568ZM48.6143 486.768C49.3929 486.768 50.0063 486.512 50.4543 486C50.9023 485.477 51.1263 484.747 51.1263 483.808C51.1263 482.869 50.9023 482.144 50.4543 481.632C50.0063 481.12 49.3929 480.864 48.6143 480.864C47.8463 480.864 47.2329 481.12 46.7743 481.632C46.3156 482.144 46.0863 482.869 46.0863 483.808C46.0863 484.747 46.3156 485.477 46.7743 486C47.2329 486.512 47.8463 486.768 48.6143 486.768ZM58.7789 488.144C57.5202 488.144 56.5282 487.781 55.8029 487.056C55.0775 486.32 54.7149 485.301 54.7149 484C54.7149 483.157 54.8749 482.427 55.1949 481.808C55.5149 481.179 55.9629 480.693 56.5389 480.352C57.1149 480 57.7762 479.824 58.5229 479.824C59.2589 479.824 59.8775 479.979 60.3789 480.288C60.8802 480.597 61.2642 481.04 61.5309 481.616C61.7975 482.181 61.9309 482.853 61.9309 483.632V484.112H55.7069V483.296H61.0829L60.8109 483.504C60.8109 482.651 60.6189 481.984 60.2349 481.504C59.8509 481.024 59.2802 480.784 58.5229 480.784C57.7229 480.784 57.0989 481.067 56.6509 481.632C56.2029 482.187 55.9789 482.939 55.9789 483.888V484.032C55.9789 485.035 56.2242 485.797 56.7149 486.32C57.2162 486.832 57.9149 487.088 58.8109 487.088C59.2909 487.088 59.7389 487.019 60.1549 486.88C60.5815 486.731 60.9869 486.491 61.3709 486.16L61.8189 487.072C61.4669 487.413 61.0189 487.68 60.4749 487.872C59.9415 488.053 59.3762 488.144 58.7789 488.144ZM64.214 488V481.824C64.214 481.525 64.198 481.221 64.166 480.912C64.1447 480.592 64.118 480.277 64.086 479.968H65.334L65.494 481.728H65.302C65.5367 481.109 65.91 480.64 66.422 480.32C66.9447 479.989 67.5473 479.824 68.23 479.824C69.1793 479.824 69.894 480.08 70.374 480.592C70.8647 481.093 71.11 481.888 71.11 482.976V488H69.814V483.056C69.814 482.299 69.6593 481.749 69.35 481.408C69.0513 481.056 68.582 480.88 67.942 480.88C67.1953 480.88 66.6033 481.109 66.166 481.568C65.7287 482.027 65.51 482.64 65.51 483.408V488H64.214ZM76.737 488.144C75.9477 488.144 75.345 487.92 74.929 487.472C74.513 487.013 74.305 486.325 74.305 485.408V480.976H72.737V479.968H74.305V477.776L75.601 477.408V479.968H77.905V480.976H75.601V485.264C75.601 485.904 75.7077 486.363 75.921 486.64C76.145 486.907 76.4757 487.04 76.913 487.04C77.1157 487.04 77.297 487.024 77.457 486.992C77.617 486.949 77.761 486.901 77.889 486.848V487.936C77.7397 488 77.5583 488.048 77.345 488.08C77.1423 488.123 76.9397 488.144 76.737 488.144ZM87.1346 488V477.84H83.1506V476.72H92.4306V477.84H88.4626V488H87.1346ZM96.0481 488.144C95.3335 488.144 94.7095 487.979 94.1761 487.648C93.6428 487.307 93.2268 486.827 92.9281 486.208C92.6401 485.589 92.4961 484.848 92.4961 483.984C92.4961 483.109 92.6401 482.363 92.9281 481.744C93.2268 481.125 93.6428 480.651 94.1761 480.32C94.7095 479.989 95.3335 479.824 96.0481 479.824C96.7735 479.824 97.3975 480.011 97.9201 480.384C98.4535 480.747 98.8055 481.243 98.9761 481.872H98.7841L98.9601 479.968H100.208C100.176 480.277 100.144 480.592 100.112 480.912C100.091 481.221 100.08 481.525 100.08 481.824V488H98.7841V486.112H98.9601C98.7895 486.741 98.4375 487.237 97.9041 487.6C97.3708 487.963 96.7521 488.144 96.0481 488.144ZM96.3041 487.088C97.0721 487.088 97.6801 486.827 98.1281 486.304C98.5761 485.771 98.8001 484.997 98.8001 483.984C98.8001 482.96 98.5761 482.187 98.1281 481.664C97.6801 481.131 97.0721 480.864 96.3041 480.864C95.5468 480.864 94.9388 481.131 94.4801 481.664C94.0321 482.187 93.8081 482.96 93.8081 483.984C93.8081 484.997 94.0321 485.771 94.4801 486.304C94.9388 486.827 95.5468 487.088 96.3041 487.088ZM105.558 488.144C104.918 488.144 104.321 488.059 103.766 487.888C103.211 487.707 102.753 487.456 102.39 487.136L102.838 486.224C103.233 486.533 103.659 486.763 104.118 486.912C104.587 487.061 105.073 487.136 105.574 487.136C106.214 487.136 106.694 487.024 107.014 486.8C107.345 486.565 107.51 486.245 107.51 485.84C107.51 485.531 107.403 485.285 107.19 485.104C106.987 484.912 106.651 484.763 106.182 484.656L104.694 484.352C104.011 484.203 103.499 483.952 103.158 483.6C102.817 483.237 102.646 482.779 102.646 482.224C102.646 481.755 102.769 481.344 103.014 480.992C103.259 480.629 103.617 480.347 104.086 480.144C104.555 479.931 105.105 479.824 105.734 479.824C106.321 479.824 106.859 479.915 107.35 480.096C107.851 480.267 108.267 480.517 108.598 480.848L108.134 481.744C107.814 481.435 107.446 481.205 107.03 481.056C106.625 480.896 106.203 480.816 105.766 480.816C105.137 480.816 104.662 480.944 104.342 481.2C104.033 481.445 103.878 481.771 103.878 482.176C103.878 482.485 103.974 482.741 104.166 482.944C104.369 483.136 104.678 483.28 105.094 483.376L106.582 483.68C107.307 483.84 107.846 484.091 108.198 484.432C108.561 484.763 108.742 485.211 108.742 485.776C108.742 486.256 108.609 486.677 108.342 487.04C108.075 487.392 107.702 487.664 107.222 487.856C106.753 488.048 106.198 488.144 105.558 488.144ZM111.123 488V476.224H112.419V483.536H112.451L116.179 479.968H117.811L113.411 484.16L113.443 483.504L118.227 488H116.547L112.451 484.224H112.419V488H111.123ZM122.189 488.144C121.549 488.144 120.952 488.059 120.397 487.888C119.842 487.707 119.384 487.456 119.021 487.136L119.469 486.224C119.864 486.533 120.29 486.763 120.749 486.912C121.218 487.061 121.704 487.136 122.205 487.136C122.845 487.136 123.325 487.024 123.645 486.8C123.976 486.565 124.141 486.245 124.141 485.84C124.141 485.531 124.034 485.285 123.821 485.104C123.618 484.912 123.282 484.763 122.813 484.656L121.325 484.352C120.642 484.203 120.13 483.952 119.789 483.6C119.448 483.237 119.277 482.779 119.277 482.224C119.277 481.755 119.4 481.344 119.645 480.992C119.89 480.629 120.248 480.347 120.717 480.144C121.186 479.931 121.736 479.824 122.365 479.824C122.952 479.824 123.49 479.915 123.981 480.096C124.482 480.267 124.898 480.517 125.229 480.848L124.765 481.744C124.445 481.435 124.077 481.205 123.661 481.056C123.256 480.896 122.834 480.816 122.397 480.816C121.768 480.816 121.293 480.944 120.973 481.2C120.664 481.445 120.509 481.771 120.509 482.176C120.509 482.485 120.605 482.741 120.797 482.944C121 483.136 121.309 483.28 121.725 483.376L123.213 483.68C123.938 483.84 124.477 484.091 124.829 484.432C125.192 484.763 125.373 485.211 125.373 485.776C125.373 486.256 125.24 486.677 124.973 487.04C124.706 487.392 124.333 487.664 123.853 487.856C123.384 488.048 122.829 488.144 122.189 488.144Z" fill="black"/>
<path d="M145.408 488V476.72H150.016C151.2 476.72 152.117 477.003 152.768 477.568C153.419 478.123 153.744 478.901 153.744 479.904C153.744 480.565 153.595 481.131 153.296 481.6C153.008 482.059 152.597 482.411 152.064 482.656C151.541 482.901 150.928 483.024 150.224 483.024L150.512 482.816H150.832C151.269 482.816 151.659 482.923 152 483.136C152.352 483.349 152.629 483.707 152.832 484.208L154.432 488H152.976L151.44 484.272C151.259 483.792 150.987 483.483 150.624 483.344C150.261 483.195 149.808 483.12 149.264 483.12H146.736V488H145.408ZM146.736 482.08H149.824C150.677 482.08 151.323 481.899 151.76 481.536C152.208 481.163 152.432 480.629 152.432 479.936C152.432 479.243 152.208 478.715 151.76 478.352C151.323 477.989 150.677 477.808 149.824 477.808H146.736V482.08ZM160.038 488.144C158.78 488.144 157.788 487.781 157.062 487.056C156.337 486.32 155.974 485.301 155.974 484C155.974 483.157 156.134 482.427 156.454 481.808C156.774 481.179 157.222 480.693 157.798 480.352C158.374 480 159.036 479.824 159.782 479.824C160.518 479.824 161.137 479.979 161.638 480.288C162.14 480.597 162.524 481.04 162.79 481.616C163.057 482.181 163.19 482.853 163.19 483.632V484.112H156.966V483.296H162.342L162.07 483.504C162.07 482.651 161.878 481.984 161.494 481.504C161.11 481.024 160.54 480.784 159.782 480.784C158.982 480.784 158.358 481.067 157.91 481.632C157.462 482.187 157.238 482.939 157.238 483.888V484.032C157.238 485.035 157.484 485.797 157.974 486.32C158.476 486.832 159.174 487.088 160.07 487.088C160.55 487.088 160.998 487.019 161.414 486.88C161.841 486.731 162.246 486.491 162.63 486.16L163.078 487.072C162.726 487.413 162.278 487.68 161.734 487.872C161.201 488.053 160.636 488.144 160.038 488.144ZM169.009 491.568C168.316 491.568 167.676 491.483 167.089 491.312C166.503 491.141 165.975 490.88 165.505 490.528L165.889 489.552C166.22 489.787 166.545 489.973 166.865 490.112C167.185 490.251 167.516 490.352 167.857 490.416C168.199 490.491 168.561 490.528 168.945 490.528C169.735 490.528 170.332 490.32 170.737 489.904C171.143 489.488 171.345 488.896 171.345 488.128V485.776H171.505C171.335 486.405 170.983 486.907 170.449 487.28C169.916 487.643 169.292 487.824 168.577 487.824C167.841 487.824 167.201 487.664 166.657 487.344C166.124 487.013 165.708 486.549 165.409 485.952C165.121 485.344 164.977 484.629 164.977 483.808C164.977 482.997 165.121 482.293 165.409 481.696C165.708 481.099 166.124 480.64 166.657 480.32C167.201 479.989 167.841 479.824 168.577 479.824C169.303 479.824 169.927 480.005 170.449 480.368C170.983 480.731 171.335 481.232 171.505 481.872L171.345 481.712L171.489 479.968H172.753C172.711 480.277 172.679 480.592 172.657 480.912C172.636 481.221 172.625 481.525 172.625 481.824V487.952C172.625 489.147 172.316 490.048 171.697 490.656C171.089 491.264 170.193 491.568 169.009 491.568ZM168.817 486.768C169.596 486.768 170.209 486.512 170.657 486C171.105 485.477 171.329 484.747 171.329 483.808C171.329 482.869 171.105 482.144 170.657 481.632C170.209 481.12 169.596 480.864 168.817 480.864C168.049 480.864 167.436 481.12 166.977 481.632C166.519 482.144 166.289 482.869 166.289 483.808C166.289 484.747 166.519 485.477 166.977 486C167.436 486.512 168.049 486.768 168.817 486.768ZM178.246 488.144C177.297 488.144 176.577 487.883 176.086 487.36C175.606 486.837 175.366 486.037 175.366 484.96V479.968H176.662V484.928C176.662 485.664 176.811 486.208 177.11 486.56C177.409 486.901 177.873 487.072 178.502 487.072C179.206 487.072 179.771 486.843 180.198 486.384C180.625 485.925 180.838 485.312 180.838 484.544V479.968H182.134V488H180.87V486.192H181.078C180.854 486.811 180.491 487.291 179.99 487.632C179.499 487.973 178.918 488.144 178.246 488.144ZM184.948 488V476.224H186.244V488H184.948ZM192.117 488.144C191.402 488.144 190.778 487.979 190.245 487.648C189.712 487.307 189.296 486.827 188.997 486.208C188.709 485.589 188.565 484.848 188.565 483.984C188.565 483.109 188.709 482.363 188.997 481.744C189.296 481.125 189.712 480.651 190.245 480.32C190.778 479.989 191.402 479.824 192.117 479.824C192.842 479.824 193.466 480.011 193.989 480.384C194.522 480.747 194.874 481.243 195.045 481.872H194.853L195.029 479.968H196.277C196.245 480.277 196.213 480.592 196.181 480.912C196.16 481.221 196.149 481.525 196.149 481.824V488H194.853V486.112H195.029C194.858 486.741 194.506 487.237 193.973 487.6C193.44 487.963 192.821 488.144 192.117 488.144ZM192.373 487.088C193.141 487.088 193.749 486.827 194.197 486.304C194.645 485.771 194.869 484.997 194.869 483.984C194.869 482.96 194.645 482.187 194.197 481.664C193.749 481.131 193.141 480.864 192.373 480.864C191.616 480.864 191.008 481.131 190.549 481.664C190.101 482.187 189.877 482.96 189.877 483.984C189.877 484.997 190.101 485.771 190.549 486.304C191.008 486.827 191.616 487.088 192.373 487.088ZM198.923 488V481.904C198.923 481.584 198.912 481.259 198.891 480.928C198.88 480.597 198.859 480.277 198.827 479.968H200.075L200.235 481.92L200.011 481.936C200.117 481.456 200.304 481.061 200.571 480.752C200.837 480.443 201.152 480.213 201.515 480.064C201.877 479.904 202.256 479.824 202.651 479.824C202.811 479.824 202.949 479.829 203.067 479.84C203.195 479.851 203.312 479.877 203.419 479.92L203.403 481.072C203.243 481.019 203.093 480.987 202.955 480.976C202.827 480.955 202.677 480.944 202.507 480.944C202.037 480.944 201.627 481.056 201.275 481.28C200.933 481.504 200.672 481.792 200.491 482.144C200.32 482.496 200.235 482.869 200.235 483.264V488H198.923ZM212.419 488V477.84H208.435V476.72H217.715V477.84H213.747V488H212.419ZM221.332 488.144C220.618 488.144 219.994 487.979 219.46 487.648C218.927 487.307 218.511 486.827 218.212 486.208C217.924 485.589 217.78 484.848 217.78 483.984C217.78 483.109 217.924 482.363 218.212 481.744C218.511 481.125 218.927 480.651 219.46 480.32C219.994 479.989 220.618 479.824 221.332 479.824C222.058 479.824 222.682 480.011 223.204 480.384C223.738 480.747 224.09 481.243 224.26 481.872H224.068L224.244 479.968H225.492C225.46 480.277 225.428 480.592 225.396 480.912C225.375 481.221 225.364 481.525 225.364 481.824V488H224.068V486.112H224.244C224.074 486.741 223.722 487.237 223.188 487.6C222.655 487.963 222.036 488.144 221.332 488.144ZM221.588 487.088C222.356 487.088 222.964 486.827 223.412 486.304C223.86 485.771 224.084 484.997 224.084 483.984C224.084 482.96 223.86 482.187 223.412 481.664C222.964 481.131 222.356 480.864 221.588 480.864C220.831 480.864 220.223 481.131 219.764 481.664C219.316 482.187 219.092 482.96 219.092 483.984C219.092 484.997 219.316 485.771 219.764 486.304C220.223 486.827 220.831 487.088 221.588 487.088ZM230.842 488.144C230.202 488.144 229.605 488.059 229.05 487.888C228.496 487.707 228.037 487.456 227.674 487.136L228.122 486.224C228.517 486.533 228.944 486.763 229.402 486.912C229.872 487.061 230.357 487.136 230.858 487.136C231.498 487.136 231.978 487.024 232.298 486.8C232.629 486.565 232.794 486.245 232.794 485.84C232.794 485.531 232.688 485.285 232.474 485.104C232.272 484.912 231.936 484.763 231.466 484.656L229.978 484.352C229.296 484.203 228.784 483.952 228.442 483.6C228.101 483.237 227.93 482.779 227.93 482.224C227.93 481.755 228.053 481.344 228.298 480.992C228.544 480.629 228.901 480.347 229.37 480.144C229.84 479.931 230.389 479.824 231.018 479.824C231.605 479.824 232.144 479.915 232.634 480.096C233.136 480.267 233.552 480.517 233.882 480.848L233.418 481.744C233.098 481.435 232.73 481.205 232.314 481.056C231.909 480.896 231.488 480.816 231.05 480.816C230.421 480.816 229.946 480.944 229.626 481.2C229.317 481.445 229.162 481.771 229.162 482.176C229.162 482.485 229.258 482.741 229.45 482.944C229.653 483.136 229.962 483.28 230.378 483.376L231.866 483.68C232.592 483.84 233.13 484.091 233.482 484.432C233.845 484.763 234.026 485.211 234.026 485.776C234.026 486.256 233.893 486.677 233.626 487.04C233.36 487.392 232.986 487.664 232.506 487.856C232.037 488.048 231.482 488.144 230.842 488.144ZM236.408 488V476.224H237.704V483.536H237.736L241.464 479.968H243.096L238.696 484.16L238.728 483.504L243.512 488H241.832L237.736 484.224H237.704V488H236.408ZM247.473 488.144C246.833 488.144 246.236 488.059 245.681 487.888C245.127 487.707 244.668 487.456 244.305 487.136L244.753 486.224C245.148 486.533 245.575 486.763 246.033 486.912C246.503 487.061 246.988 487.136 247.489 487.136C248.129 487.136 248.609 487.024 248.929 486.8C249.26 486.565 249.425 486.245 249.425 485.84C249.425 485.531 249.319 485.285 249.105 485.104C248.903 484.912 248.567 484.763 248.097 484.656L246.609 484.352C245.927 484.203 245.415 483.952 245.073 483.6C244.732 483.237 244.561 482.779 244.561 482.224C244.561 481.755 244.684 481.344 244.929 480.992C245.175 480.629 245.532 480.347 246.001 480.144C246.471 479.931 247.02 479.824 247.649 479.824C248.236 479.824 248.775 479.915 249.265 480.096C249.767 480.267 250.183 480.517 250.513 480.848L250.049 481.744C249.729 481.435 249.361 481.205 248.945 481.056C248.54 480.896 248.119 480.816 247.681 480.816C247.052 480.816 246.577 480.944 246.257 481.2C245.948 481.445 245.793 481.771 245.793 482.176C245.793 482.485 245.889 482.741 246.081 482.944C246.284 483.136 246.593 483.28 247.009 483.376L248.497 483.68C249.223 483.84 249.761 484.091 250.113 484.432C250.476 484.763 250.657 485.211 250.657 485.776C250.657 486.256 250.524 486.677 250.257 487.04C249.991 487.392 249.617 487.664 249.137 487.856C248.668 488.048 248.113 488.144 247.473 488.144Z" fill="black"/>
<path d="M272.32 488.144C271.189 488.144 270.229 487.909 269.44 487.44C268.651 486.971 268.043 486.304 267.616 485.44C267.2 484.576 266.992 483.547 266.992 482.352C266.992 481.157 267.2 480.133 267.616 479.28C268.043 478.416 268.651 477.749 269.44 477.28C270.229 476.811 271.189 476.576 272.32 476.576C273.12 476.576 273.835 476.699 274.464 476.944C275.093 477.189 275.643 477.547 276.112 478.016L275.616 479.072C275.104 478.624 274.597 478.299 274.096 478.096C273.595 477.883 273.008 477.776 272.336 477.776C271.045 477.776 270.064 478.176 269.392 478.976C268.72 479.776 268.384 480.901 268.384 482.352C268.384 483.803 268.72 484.933 269.392 485.744C270.064 486.544 271.045 486.944 272.336 486.944C273.008 486.944 273.595 486.843 274.096 486.64C274.597 486.427 275.104 486.091 275.616 485.632L276.112 486.704C275.643 487.163 275.093 487.52 274.464 487.776C273.835 488.021 273.12 488.144 272.32 488.144ZM281.308 488.144C280.593 488.144 279.969 487.979 279.436 487.648C278.902 487.307 278.486 486.827 278.188 486.208C277.9 485.589 277.756 484.848 277.756 483.984C277.756 483.109 277.9 482.363 278.188 481.744C278.486 481.125 278.902 480.651 279.436 480.32C279.969 479.989 280.593 479.824 281.308 479.824C282.033 479.824 282.657 480.011 283.18 480.384C283.713 480.747 284.065 481.243 284.236 481.872H284.044L284.22 479.968H285.468C285.436 480.277 285.404 480.592 285.372 480.912C285.35 481.221 285.34 481.525 285.34 481.824V488H284.044V486.112H284.22C284.049 486.741 283.697 487.237 283.164 487.6C282.63 487.963 282.012 488.144 281.308 488.144ZM281.564 487.088C282.332 487.088 282.94 486.827 283.388 486.304C283.836 485.771 284.06 484.997 284.06 483.984C284.06 482.96 283.836 482.187 283.388 481.664C282.94 481.131 282.332 480.864 281.564 480.864C280.806 480.864 280.198 481.131 279.74 481.664C279.292 482.187 279.068 482.96 279.068 483.984C279.068 484.997 279.292 485.771 279.74 486.304C280.198 486.827 280.806 487.088 281.564 487.088ZM290.817 488.144C290.177 488.144 289.58 488.059 289.025 487.888C288.471 487.707 288.012 487.456 287.649 487.136L288.097 486.224C288.492 486.533 288.919 486.763 289.377 486.912C289.847 487.061 290.332 487.136 290.833 487.136C291.473 487.136 291.953 487.024 292.273 486.8C292.604 486.565 292.769 486.245 292.769 485.84C292.769 485.531 292.663 485.285 292.449 485.104C292.247 484.912 291.911 484.763 291.441 484.656L289.953 484.352C289.271 484.203 288.759 483.952 288.417 483.6C288.076 483.237 287.905 482.779 287.905 482.224C287.905 481.755 288.028 481.344 288.273 480.992C288.519 480.629 288.876 480.347 289.345 480.144C289.815 479.931 290.364 479.824 290.993 479.824C291.58 479.824 292.119 479.915 292.609 480.096C293.111 480.267 293.527 480.517 293.857 480.848L293.393 481.744C293.073 481.435 292.705 481.205 292.289 481.056C291.884 480.896 291.463 480.816 291.025 480.816C290.396 480.816 289.921 480.944 289.601 481.2C289.292 481.445 289.137 481.771 289.137 482.176C289.137 482.485 289.233 482.741 289.425 482.944C289.628 483.136 289.937 483.28 290.353 483.376L291.841 483.68C292.567 483.84 293.105 484.091 293.457 484.432C293.82 484.763 294.001 485.211 294.001 485.776C294.001 486.256 293.868 486.677 293.601 487.04C293.335 487.392 292.961 487.664 292.481 487.856C292.012 488.048 291.457 488.144 290.817 488.144ZM299.215 488.144C298.265 488.144 297.545 487.883 297.055 487.36C296.575 486.837 296.335 486.037 296.335 484.96V479.968H297.631V484.928C297.631 485.664 297.78 486.208 298.079 486.56C298.377 486.901 298.841 487.072 299.471 487.072C300.175 487.072 300.74 486.843 301.167 486.384C301.593 485.925 301.807 485.312 301.807 484.544V479.968H303.103V488H301.839V486.192H302.047C301.823 486.811 301.46 487.291 300.959 487.632C300.468 487.973 299.887 488.144 299.215 488.144ZM308.973 488.144C308.258 488.144 307.634 487.979 307.101 487.648C306.568 487.307 306.152 486.827 305.853 486.208C305.565 485.589 305.421 484.848 305.421 483.984C305.421 483.109 305.565 482.363 305.853 481.744C306.152 481.125 306.568 480.651 307.101 480.32C307.634 479.989 308.258 479.824 308.973 479.824C309.698 479.824 310.322 480.011 310.845 480.384C311.378 480.747 311.73 481.243 311.901 481.872H311.709L311.885 479.968H313.133C313.101 480.277 313.069 480.592 313.037 480.912C313.016 481.221 313.005 481.525 313.005 481.824V488H311.709V486.112H311.885C311.714 486.741 311.362 487.237 310.829 487.6C310.296 487.963 309.677 488.144 308.973 488.144ZM309.229 487.088C309.997 487.088 310.605 486.827 311.053 486.304C311.501 485.771 311.725 484.997 311.725 483.984C311.725 482.96 311.501 482.187 311.053 481.664C310.605 481.131 309.997 480.864 309.229 480.864C308.472 480.864 307.864 481.131 307.405 481.664C306.957 482.187 306.733 482.96 306.733 483.984C306.733 484.997 306.957 485.771 307.405 486.304C307.864 486.827 308.472 487.088 309.229 487.088ZM315.811 488V476.224H317.107V488H315.811ZM327.275 488V477.84H323.291V476.72H332.571V477.84H328.603V488H327.275ZM336.189 488.144C335.474 488.144 334.85 487.979 334.317 487.648C333.783 487.307 333.367 486.827 333.069 486.208C332.781 485.589 332.637 484.848 332.637 483.984C332.637 483.109 332.781 482.363 333.069 481.744C333.367 481.125 333.783 480.651 334.317 480.32C334.85 479.989 335.474 479.824 336.189 479.824C336.914 479.824 337.538 480.011 338.061 480.384C338.594 480.747 338.946 481.243 339.117 481.872H338.925L339.101 479.968H340.349C340.317 480.277 340.285 480.592 340.253 480.912C340.231 481.221 340.221 481.525 340.221 481.824V488H338.925V486.112H339.101C338.93 486.741 338.578 487.237 338.045 487.6C337.511 487.963 336.893 488.144 336.189 488.144ZM336.445 487.088C337.213 487.088 337.821 486.827 338.269 486.304C338.717 485.771 338.941 484.997 338.941 483.984C338.941 482.96 338.717 482.187 338.269 481.664C337.821 481.131 337.213 480.864 336.445 480.864C335.687 480.864 335.079 481.131 334.621 481.664C334.173 482.187 333.949 482.96 333.949 483.984C333.949 484.997 334.173 485.771 334.621 486.304C335.079 486.827 335.687 487.088 336.445 487.088ZM345.698 488.144C345.058 488.144 344.461 488.059 343.906 487.888C343.352 487.707 342.893 487.456 342.53 487.136L342.978 486.224C343.373 486.533 343.8 486.763 344.258 486.912C344.728 487.061 345.213 487.136 345.714 487.136C346.354 487.136 346.834 487.024 347.154 486.8C347.485 486.565 347.65 486.245 347.65 485.84C347.65 485.531 347.544 485.285 347.33 485.104C347.128 484.912 346.792 484.763 346.322 484.656L344.834 484.352C344.152 484.203 343.64 483.952 343.298 483.6C342.957 483.237 342.786 482.779 342.786 482.224C342.786 481.755 342.909 481.344 343.154 480.992C343.4 480.629 343.757 480.347 344.226 480.144C344.696 479.931 345.245 479.824 345.874 479.824C346.461 479.824 347 479.915 347.49 480.096C347.992 480.267 348.408 480.517 348.738 480.848L348.274 481.744C347.954 481.435 347.586 481.205 347.17 481.056C346.765 480.896 346.344 480.816 345.906 480.816C345.277 480.816 344.802 480.944 344.482 481.2C344.173 481.445 344.018 481.771 344.018 482.176C344.018 482.485 344.114 482.741 344.306 482.944C344.509 483.136 344.818 483.28 345.234 483.376L346.722 483.68C347.448 483.84 347.986 484.091 348.338 484.432C348.701 484.763 348.882 485.211 348.882 485.776C348.882 486.256 348.749 486.677 348.482 487.04C348.216 487.392 347.842 487.664 347.362 487.856C346.893 488.048 346.338 488.144 345.698 488.144ZM351.264 488V476.224H352.56V483.536H352.592L356.32 479.968H357.952L353.552 484.16L353.584 483.504L358.368 488H356.688L352.592 484.224H352.56V488H351.264ZM362.33 488.144C361.69 488.144 361.092 488.059 360.538 487.888C359.983 487.707 359.524 487.456 359.162 487.136L359.61 486.224C360.004 486.533 360.431 486.763 360.89 486.912C361.359 487.061 361.844 487.136 362.346 487.136C362.986 487.136 363.466 487.024 363.786 486.8C364.116 486.565 364.282 486.245 364.282 485.84C364.282 485.531 364.175 485.285 363.962 485.104C363.759 484.912 363.423 484.763 362.954 484.656L361.466 484.352C360.783 484.203 360.271 483.952 359.93 483.6C359.588 483.237 359.418 482.779 359.418 482.224C359.418 481.755 359.54 481.344 359.786 480.992C360.031 480.629 360.388 480.347 360.858 480.144C361.327 479.931 361.876 479.824 362.506 479.824C363.092 479.824 363.631 479.915 364.122 480.096C364.623 480.267 365.039 480.517 365.37 480.848L364.906 481.744C364.586 481.435 364.218 481.205 363.802 481.056C363.396 480.896 362.975 480.816 362.538 480.816C361.908 480.816 361.434 480.944 361.114 481.2C360.804 481.445 360.65 481.771 360.65 482.176C360.65 482.485 360.746 482.741 360.938 482.944C361.14 483.136 361.45 483.28 361.866 483.376L363.354 483.68C364.079 483.84 364.618 484.091 364.97 484.432C365.332 484.763 365.514 485.211 365.514 485.776C365.514 486.256 365.38 486.677 365.114 487.04C364.847 487.392 364.474 487.664 363.994 487.856C363.524 488.048 362.97 488.144 362.33 488.144Z" fill="black"/>
<path d="M69.286 517V515.722H72.274V505.588H73.066L69.574 507.766V506.272L72.688 504.31H73.768V515.722H76.576V517H69.286ZM79.641 517V515.884L84.141 511.186C84.729 510.574 85.167 509.992 85.455 509.44C85.755 508.876 85.905 508.294 85.905 507.694C85.905 506.962 85.677 506.41 85.221 506.038C84.765 505.654 84.105 505.462 83.241 505.462C82.569 505.462 81.945 505.582 81.369 505.822C80.805 506.05 80.259 506.416 79.731 506.92L79.191 505.75C79.671 505.27 80.283 504.886 81.027 504.598C81.771 504.298 82.557 504.148 83.385 504.148C84.669 504.148 85.659 504.448 86.355 505.048C87.051 505.636 87.399 506.476 87.399 507.568C87.399 508.372 87.201 509.14 86.805 509.872C86.421 510.592 85.857 511.336 85.113 512.104L81.135 516.136V515.722H87.939V517H79.641Z" fill="#FF452C"/>
<path d="M180.286 517V515.722H183.274V505.588H184.066L180.574 507.766V506.272L183.688 504.31H184.768V515.722H187.576V517H180.286ZM196.041 517V514.246H189.993V513.166L196.275 504.31H197.499V513.04H199.443V514.246H197.499V517H196.041ZM196.041 513.04V506.074H196.437L191.217 513.418V513.04H196.041Z" fill="#00FF47"/>
<path d="M291.286 517V515.722H294.274V505.588H295.066L291.574 507.766V506.272L294.688 504.31H295.768V515.722H298.576V517H291.286ZM301.641 517V515.884L306.141 511.186C306.729 510.574 307.167 509.992 307.455 509.44C307.755 508.876 307.905 508.294 307.905 507.694C307.905 506.962 307.677 506.41 307.221 506.038C306.765 505.654 306.105 505.462 305.241 505.462C304.569 505.462 303.945 505.582 303.369 505.822C302.805 506.05 302.259 506.416 301.731 506.92L301.191 505.75C301.671 505.27 302.283 504.886 303.027 504.598C303.771 504.298 304.557 504.148 305.385 504.148C306.669 504.148 307.659 504.448 308.355 505.048C309.051 505.636 309.399 506.476 309.399 507.568C309.399 508.372 309.201 509.14 308.805 509.872C308.421 510.592 307.857 511.336 307.113 512.104L303.135 516.136V515.722H309.939V517H301.641Z" fill="#FF9900"/>
<path d="M35 172H59" stroke="#FF452C" stroke-width="2" stroke-linecap="round"/>
<path d="M74.3503 181.144C73.3796 181.144 72.649 180.883 72.1583 180.36C71.6783 179.827 71.4383 179.011 71.4383 177.912V172.936H73.0543V177.88C73.0543 178.552 73.193 179.048 73.4703 179.368C73.7476 179.688 74.169 179.848 74.7343 179.848C75.3743 179.848 75.8916 179.635 76.2863 179.208C76.681 178.781 76.8783 178.216 76.8783 177.512V172.936H78.4943V181H76.9263V179.272H77.1343C76.9103 179.869 76.553 180.333 76.0623 180.664C75.5716 180.984 75.001 181.144 74.3503 181.144ZM81.1293 181V174.936C81.1293 174.605 81.1186 174.275 81.0973 173.944C81.0866 173.603 81.0653 173.267 81.0333 172.936H82.6013L82.7773 175.016H82.5213C82.628 174.515 82.8093 174.099 83.0653 173.768C83.3213 173.437 83.6306 173.192 83.9933 173.032C84.3666 172.872 84.756 172.792 85.1613 172.792C85.332 172.792 85.476 172.803 85.5933 172.824C85.7106 172.835 85.828 172.856 85.9453 172.888L85.9293 174.328C85.748 174.253 85.588 174.211 85.4493 174.2C85.3213 174.179 85.1613 174.168 84.9693 174.168C84.5 174.168 84.1 174.275 83.7693 174.488C83.4386 174.691 83.188 174.968 83.0173 175.32C82.8466 175.672 82.7613 176.051 82.7613 176.456V181H81.1293ZM91.0152 184.584C90.2898 184.584 89.6285 184.499 89.0312 184.328C88.4445 184.157 87.9165 183.901 87.4472 183.56L87.8472 182.376C88.1778 182.6 88.5032 182.776 88.8232 182.904C89.1432 183.043 89.4792 183.144 89.8312 183.208C90.1832 183.272 90.5458 183.304 90.9192 183.304C91.6872 183.304 92.2632 183.107 92.6472 182.712C93.0418 182.328 93.2392 181.768 93.2392 181.032V178.872H93.3992C93.2285 179.469 92.8765 179.944 92.3432 180.296C91.8205 180.637 91.2125 180.808 90.5192 180.808C89.7832 180.808 89.1432 180.648 88.5992 180.328C88.0658 179.997 87.6498 179.533 87.3512 178.936C87.0632 178.328 86.9192 177.613 86.9192 176.792C86.9192 175.971 87.0632 175.261 87.3512 174.664C87.6498 174.067 88.0658 173.608 88.5992 173.288C89.1432 172.957 89.7832 172.792 90.5192 172.792C91.2232 172.792 91.8312 172.968 92.3432 173.32C92.8658 173.661 93.2125 174.131 93.3832 174.728L93.2392 174.6L93.3832 172.936H94.9512C94.9085 173.267 94.8765 173.597 94.8552 173.928C94.8338 174.248 94.8232 174.563 94.8232 174.872V180.84C94.8232 182.056 94.4978 182.984 93.8472 183.624C93.2072 184.264 92.2632 184.584 91.0152 184.584ZM90.9032 179.544C91.6072 179.544 92.1672 179.304 92.5832 178.824C93.0098 178.344 93.2232 177.667 93.2232 176.792C93.2232 175.917 93.0098 175.245 92.5832 174.776C92.1672 174.307 91.6072 174.072 90.9032 174.072C90.1778 174.072 89.6018 174.307 89.1752 174.776C88.7592 175.245 88.5512 175.917 88.5512 176.792C88.5512 177.667 88.7592 178.344 89.1752 178.824C89.6018 179.304 90.1778 179.544 90.9032 179.544ZM101.208 181.144C99.9067 181.144 98.8827 180.776 98.1361 180.04C97.3894 179.304 97.0161 178.285 97.0161 176.984C97.0161 176.141 97.1761 175.405 97.4961 174.776C97.8267 174.147 98.2801 173.661 98.8561 173.32C99.4427 172.968 100.12 172.792 100.888 172.792C101.645 172.792 102.28 172.952 102.792 173.272C103.304 173.592 103.693 174.045 103.96 174.632C104.227 175.208 104.36 175.891 104.36 176.68V177.192H98.2801V176.264H103.256L102.984 176.472C102.984 175.672 102.803 175.053 102.44 174.616C102.088 174.168 101.576 173.944 100.904 173.944C100.157 173.944 99.5814 174.205 99.1761 174.728C98.7707 175.24 98.5681 175.949 98.5681 176.856V177.016C98.5681 177.965 98.7974 178.68 99.2561 179.16C99.7254 179.64 100.387 179.88 101.24 179.88C101.709 179.88 102.147 179.816 102.552 179.688C102.968 179.549 103.363 179.325 103.736 179.016L104.264 180.12C103.891 180.451 103.437 180.707 102.904 180.888C102.371 181.059 101.805 181.144 101.208 181.144ZM106.514 181V174.872C106.514 174.563 106.498 174.248 106.466 173.928C106.445 173.597 106.418 173.267 106.386 172.936H107.954L108.098 174.632H107.906C108.152 174.035 108.53 173.581 109.042 173.272C109.554 172.952 110.146 172.792 110.818 172.792C111.768 172.792 112.482 173.053 112.962 173.576C113.453 174.099 113.698 174.909 113.698 176.008V181H112.082V176.104C112.082 175.389 111.938 174.877 111.65 174.568C111.373 174.248 110.946 174.088 110.37 174.088C109.688 174.088 109.144 174.301 108.738 174.728C108.333 175.144 108.13 175.709 108.13 176.424V181H106.514ZM119.435 181.144C118.56 181.144 117.899 180.909 117.451 180.44C117.003 179.96 116.779 179.245 116.779 178.296V174.184H115.211V172.936H116.779V170.808L118.395 170.376V172.936H120.635V174.184H118.395V178.152C118.395 178.749 118.501 179.176 118.715 179.432C118.928 179.688 119.237 179.816 119.643 179.816C119.845 179.816 120.021 179.8 120.171 179.768C120.331 179.725 120.475 179.677 120.603 179.624V180.936C120.443 181 120.256 181.048 120.043 181.08C119.829 181.123 119.627 181.144 119.435 181.144Z" fill="black"/>
<path d="M147 172H171" stroke="#FF9900" stroke-width="2" stroke-linecap="round"/>
<path d="M183.454 181V174.936C183.454 174.605 183.444 174.275 183.422 173.944C183.412 173.603 183.39 173.267 183.358 172.936H184.926L185.102 175.016H184.846C184.953 174.515 185.134 174.099 185.39 173.768C185.646 173.437 185.956 173.192 186.318 173.032C186.692 172.872 187.081 172.792 187.486 172.792C187.657 172.792 187.801 172.803 187.918 172.824C188.036 172.835 188.153 172.856 188.27 172.888L188.254 174.328C188.073 174.253 187.913 174.211 187.774 174.2C187.646 174.179 187.486 174.168 187.294 174.168C186.825 174.168 186.425 174.275 186.094 174.488C185.764 174.691 185.513 174.968 185.342 175.32C185.172 175.672 185.086 176.051 185.086 176.456V181H183.454ZM193.436 181.144C192.135 181.144 191.111 180.776 190.364 180.04C189.618 179.304 189.244 178.285 189.244 176.984C189.244 176.141 189.404 175.405 189.724 174.776C190.055 174.147 190.508 173.661 191.084 173.32C191.671 172.968 192.348 172.792 193.116 172.792C193.874 172.792 194.508 172.952 195.02 173.272C195.532 173.592 195.922 174.045 196.188 174.632C196.455 175.208 196.588 175.891 196.588 176.68V177.192H190.508V176.264H195.484L195.212 176.472C195.212 175.672 195.031 175.053 194.668 174.616C194.316 174.168 193.804 173.944 193.132 173.944C192.386 173.944 191.81 174.205 191.404 174.728C190.999 175.24 190.796 175.949 190.796 176.856V177.016C190.796 177.965 191.026 178.68 191.484 179.16C191.954 179.64 192.615 179.88 193.468 179.88C193.938 179.88 194.375 179.816 194.78 179.688C195.196 179.549 195.591 179.325 195.964 179.016L196.492 180.12C196.119 180.451 195.666 180.707 195.132 180.888C194.599 181.059 194.034 181.144 193.436 181.144ZM202.375 184.584C201.649 184.584 200.988 184.499 200.391 184.328C199.804 184.157 199.276 183.901 198.807 183.56L199.207 182.376C199.537 182.6 199.863 182.776 200.183 182.904C200.503 183.043 200.839 183.144 201.191 183.208C201.543 183.272 201.905 183.304 202.279 183.304C203.047 183.304 203.623 183.107 204.007 182.712C204.401 182.328 204.599 181.768 204.599 181.032V178.872H204.759C204.588 179.469 204.236 179.944 203.703 180.296C203.18 180.637 202.572 180.808 201.879 180.808C201.143 180.808 200.503 180.648 199.959 180.328C199.425 179.997 199.009 179.533 198.711 178.936C198.423 178.328 198.279 177.613 198.279 176.792C198.279 175.971 198.423 175.261 198.711 174.664C199.009 174.067 199.425 173.608 199.959 173.288C200.503 172.957 201.143 172.792 201.879 172.792C202.583 172.792 203.191 172.968 203.703 173.32C204.225 173.661 204.572 174.131 204.743 174.728L204.599 174.6L204.743 172.936H206.311C206.268 173.267 206.236 173.597 206.215 173.928C206.193 174.248 206.183 174.563 206.183 174.872V180.84C206.183 182.056 205.857 182.984 205.207 183.624C204.567 184.264 203.623 184.584 202.375 184.584ZM202.263 179.544C202.967 179.544 203.527 179.304 203.943 178.824C204.369 178.344 204.583 177.667 204.583 176.792C204.583 175.917 204.369 175.245 203.943 174.776C203.527 174.307 202.967 174.072 202.263 174.072C201.537 174.072 200.961 174.307 200.535 174.776C200.119 175.245 199.911 175.917 199.911 176.792C199.911 177.667 200.119 178.344 200.535 178.824C200.961 179.304 201.537 179.544 202.263 179.544ZM211.703 181.144C210.733 181.144 210.002 180.883 209.511 180.36C209.031 179.827 208.791 179.011 208.791 177.912V172.936H210.407V177.88C210.407 178.552 210.546 179.048 210.823 179.368C211.101 179.688 211.522 179.848 212.087 179.848C212.727 179.848 213.245 179.635 213.639 179.208C214.034 178.781 214.231 178.216 214.231 177.512V172.936H215.847V181H214.279V179.272H214.487C214.263 179.869 213.906 180.333 213.415 180.664C212.925 180.984 212.354 181.144 211.703 181.144ZM218.514 181V169.224H220.13V181H218.514ZM225.887 181.144C225.172 181.144 224.548 180.979 224.015 180.648C223.481 180.317 223.065 179.837 222.767 179.208C222.479 178.579 222.335 177.832 222.335 176.968C222.335 176.093 222.479 175.347 222.767 174.728C223.065 174.109 223.481 173.635 224.015 173.304C224.548 172.963 225.172 172.792 225.887 172.792C226.591 172.792 227.204 172.968 227.727 173.32C228.249 173.672 228.596 174.152 228.767 174.76H228.591L228.751 172.936H230.319C230.287 173.267 230.255 173.597 230.223 173.928C230.201 174.248 230.191 174.563 230.191 174.872V181H228.575V179.208H228.751C228.58 179.805 228.228 180.28 227.695 180.632C227.172 180.973 226.569 181.144 225.887 181.144ZM226.287 179.88C226.98 179.88 227.535 179.635 227.951 179.144C228.377 178.653 228.591 177.928 228.591 176.968C228.591 176.008 228.377 175.288 227.951 174.808C227.535 174.317 226.98 174.072 226.287 174.072C225.583 174.072 225.017 174.317 224.591 174.808C224.175 175.288 223.967 176.008 223.967 176.968C223.967 177.928 224.175 178.653 224.591 179.144C225.007 179.635 225.572 179.88 226.287 179.88ZM232.817 181V174.936C232.817 174.605 232.806 174.275 232.785 173.944C232.774 173.603 232.753 173.267 232.721 172.936H234.289L234.465 175.016H234.209C234.315 174.515 234.497 174.099 234.753 173.768C235.009 173.437 235.318 173.192 235.681 173.032C236.054 172.872 236.443 172.792 236.849 172.792C237.019 172.792 237.163 172.803 237.281 172.824C237.398 172.835 237.515 172.856 237.633 172.888L237.617 174.328C237.435 174.253 237.275 174.211 237.137 174.2C237.009 174.179 236.849 174.168 236.657 174.168C236.187 174.168 235.787 174.275 235.457 174.488C235.126 174.691 234.875 174.968 234.705 175.32C234.534 175.672 234.449 176.051 234.449 176.456V181H232.817Z" fill="black"/>
<path d="M266 173H290" stroke="#00FF47" stroke-width="2" stroke-linecap="round"/>
<path d="M305.72 182.144C304.909 182.144 304.2 181.979 303.592 181.648C302.995 181.307 302.531 180.821 302.2 180.192C301.88 179.552 301.72 178.795 301.72 177.92C301.72 177.056 301.885 176.315 302.216 175.696C302.547 175.077 303.011 174.608 303.608 174.288C304.205 173.957 304.909 173.792 305.72 173.792C306.243 173.792 306.749 173.883 307.24 174.064C307.731 174.235 308.136 174.48 308.456 174.8L307.928 175.936C307.629 175.648 307.293 175.435 306.92 175.296C306.547 175.147 306.184 175.072 305.832 175.072C305.064 175.072 304.461 175.317 304.024 175.808C303.587 176.299 303.368 177.008 303.368 177.936C303.368 178.875 303.587 179.595 304.024 180.096C304.461 180.597 305.064 180.848 305.832 180.848C306.173 180.848 306.531 180.784 306.904 180.656C307.277 180.517 307.619 180.299 307.928 180L308.456 181.136C308.125 181.456 307.709 181.707 307.208 181.888C306.717 182.059 306.221 182.144 305.72 182.144ZM313.494 182.144C312.779 182.144 312.155 181.979 311.622 181.648C311.089 181.317 310.673 180.837 310.374 180.208C310.086 179.579 309.942 178.832 309.942 177.968C309.942 177.093 310.086 176.347 310.374 175.728C310.673 175.109 311.089 174.635 311.622 174.304C312.155 173.963 312.779 173.792 313.494 173.792C314.198 173.792 314.811 173.968 315.334 174.32C315.857 174.672 316.203 175.152 316.374 175.76H316.198L316.358 173.936H317.926C317.894 174.267 317.862 174.597 317.83 174.928C317.809 175.248 317.798 175.563 317.798 175.872V182H316.182V180.208H316.358C316.187 180.805 315.835 181.28 315.302 181.632C314.779 181.973 314.177 182.144 313.494 182.144ZM313.894 180.88C314.587 180.88 315.142 180.635 315.558 180.144C315.985 179.653 316.198 178.928 316.198 177.968C316.198 177.008 315.985 176.288 315.558 175.808C315.142 175.317 314.587 175.072 313.894 175.072C313.19 175.072 312.625 175.317 312.198 175.808C311.782 176.288 311.574 177.008 311.574 177.968C311.574 178.928 311.782 179.653 312.198 180.144C312.614 180.635 313.179 180.88 313.894 180.88ZM323.224 182.144C322.552 182.144 321.933 182.059 321.368 181.888C320.803 181.717 320.333 181.477 319.96 181.168L320.456 180.064C320.851 180.363 321.288 180.587 321.768 180.736C322.248 180.885 322.739 180.96 323.24 180.96C323.827 180.96 324.269 180.859 324.568 180.656C324.867 180.443 325.016 180.155 325.016 179.792C325.016 179.515 324.92 179.291 324.728 179.12C324.547 178.949 324.243 178.821 323.816 178.736L322.28 178.432C321.597 178.283 321.08 178.027 320.728 177.664C320.376 177.301 320.2 176.837 320.2 176.272C320.2 175.792 320.328 175.365 320.584 174.992C320.851 174.619 321.224 174.325 321.704 174.112C322.195 173.899 322.765 173.792 323.416 173.792C324.013 173.792 324.568 173.877 325.08 174.048C325.592 174.219 326.019 174.464 326.36 174.784L325.848 175.856C325.517 175.579 325.144 175.365 324.728 175.216C324.312 175.056 323.891 174.976 323.464 174.976C322.867 174.976 322.424 175.088 322.136 175.312C321.848 175.536 321.704 175.829 321.704 176.192C321.704 176.469 321.789 176.699 321.96 176.88C322.141 177.051 322.424 177.184 322.808 177.28L324.344 177.584C325.069 177.733 325.613 177.979 325.976 178.32C326.339 178.661 326.52 179.12 326.52 179.696C326.52 180.197 326.381 180.635 326.104 181.008C325.827 181.381 325.443 181.664 324.952 181.856C324.461 182.048 323.885 182.144 323.224 182.144ZM331.589 182.144C330.618 182.144 329.887 181.883 329.397 181.36C328.917 180.827 328.677 180.011 328.677 178.912V173.936H330.293V178.88C330.293 179.552 330.431 180.048 330.709 180.368C330.986 180.688 331.407 180.848 331.973 180.848C332.613 180.848 333.13 180.635 333.525 180.208C333.919 179.781 334.117 179.216 334.117 178.512V173.936H335.733V182H334.165V180.272H334.373C334.149 180.869 333.791 181.333 333.301 181.664C332.81 181.984 332.239 182.144 331.589 182.144ZM341.488 182.144C340.773 182.144 340.149 181.979 339.616 181.648C339.082 181.317 338.666 180.837 338.368 180.208C338.08 179.579 337.936 178.832 337.936 177.968C337.936 177.093 338.08 176.347 338.368 175.728C338.666 175.109 339.082 174.635 339.616 174.304C340.149 173.963 340.773 173.792 341.488 173.792C342.192 173.792 342.805 173.968 343.328 174.32C343.85 174.672 344.197 175.152 344.368 175.76H344.192L344.352 173.936H345.92C345.888 174.267 345.856 174.597 345.824 174.928C345.802 175.248 345.792 175.563 345.792 175.872V182H344.176V180.208H344.352C344.181 180.805 343.829 181.28 343.296 181.632C342.773 181.973 342.17 182.144 341.488 182.144ZM341.888 180.88C342.581 180.88 343.136 180.635 343.552 180.144C343.978 179.653 344.192 178.928 344.192 177.968C344.192 177.008 343.978 176.288 343.552 175.808C343.136 175.317 342.581 175.072 341.888 175.072C341.184 175.072 340.618 175.317 340.192 175.808C339.776 176.288 339.568 177.008 339.568 177.968C339.568 178.928 339.776 179.653 340.192 180.144C340.608 180.635 341.173 180.88 341.888 180.88ZM348.45 182V170.224H350.066V182H348.45Z" fill="black"/>
<g clip-path="url(#clip1_6345_2)">
<rect x="17.5" y="548.5" width="354" height="269" rx="7.5" fill="white" stroke="#DFE0EB"/>
<g clip-path="url(#clip2_6345_2)">
<rect x="287" y="774" width="70" height="35" rx="8" fill="#FF9900"/>
<path d="M309.852 797V787.13H310.762L317.09 795.53H316.768V787.13H317.846V797H316.95L310.622 788.6H310.93V797H309.852ZM323.607 797.126C322.506 797.126 321.638 796.809 321.003 796.174C320.368 795.53 320.051 794.639 320.051 793.5C320.051 792.763 320.191 792.123 320.471 791.582C320.751 791.031 321.143 790.607 321.647 790.308C322.151 790 322.73 789.846 323.383 789.846C324.027 789.846 324.568 789.981 325.007 790.252C325.446 790.523 325.782 790.91 326.015 791.414C326.248 791.909 326.365 792.497 326.365 793.178V793.598H320.919V792.884H325.623L325.385 793.066C325.385 792.319 325.217 791.736 324.881 791.316C324.545 790.896 324.046 790.686 323.383 790.686C322.683 790.686 322.137 790.933 321.745 791.428C321.353 791.913 321.157 792.571 321.157 793.402V793.528C321.157 794.405 321.372 795.073 321.801 795.53C322.24 795.978 322.851 796.202 323.635 796.202C324.055 796.202 324.447 796.141 324.811 796.02C325.184 795.889 325.539 795.679 325.875 795.39L326.267 796.188C325.959 796.487 325.567 796.72 325.091 796.888C324.624 797.047 324.13 797.126 323.607 797.126ZM330.194 797L327.59 789.972H328.794L330.964 796.16H330.6L332.84 789.972H333.82L336.018 796.16H335.668L337.852 789.972H339L336.382 797H335.29L333.022 790.714H333.582L331.3 797H330.194Z" fill="black"/>
</g>
<path d="M290.48 599L286.14 589.13H287.708L291.404 597.782H290.9L294.61 589.13H296.108L291.754 599H290.48ZM297.316 599V591.944H298.73V599H297.316ZM297.204 590.474V589.004H298.842V590.474H297.204ZM304.265 599.126C303.126 599.126 302.23 598.804 301.577 598.16C300.923 597.516 300.597 596.625 300.597 595.486C300.597 594.749 300.737 594.105 301.017 593.554C301.306 593.003 301.703 592.579 302.207 592.28C302.72 591.972 303.313 591.818 303.985 591.818C304.647 591.818 305.203 591.958 305.651 592.238C306.099 592.518 306.439 592.915 306.673 593.428C306.906 593.932 307.023 594.529 307.023 595.22V595.668H301.703V594.856H306.057L305.819 595.038C305.819 594.338 305.66 593.797 305.343 593.414C305.035 593.022 304.587 592.826 303.999 592.826C303.345 592.826 302.841 593.055 302.487 593.512C302.132 593.96 301.955 594.581 301.955 595.374V595.514C301.955 596.345 302.155 596.97 302.557 597.39C302.967 597.81 303.546 598.02 304.293 598.02C304.703 598.02 305.086 597.964 305.441 597.852C305.805 597.731 306.15 597.535 306.477 597.264L306.939 598.23C306.612 598.519 306.215 598.743 305.749 598.902C305.282 599.051 304.787 599.126 304.265 599.126ZM310.668 599L307.994 591.944H309.464L311.55 597.824H311.186L313.328 591.944H314.42L316.548 597.824H316.198L318.284 591.944H319.698L317.01 599H315.722L313.51 593.008H314.168L311.984 599H310.668ZM327.834 599.126C327.209 599.126 326.663 598.981 326.196 598.692C325.729 598.403 325.365 597.983 325.104 597.432C324.852 596.881 324.726 596.228 324.726 595.472C324.726 594.707 324.852 594.053 325.104 593.512C325.365 592.971 325.729 592.555 326.196 592.266C326.663 591.967 327.209 591.818 327.834 591.818C328.45 591.818 328.987 591.972 329.444 592.28C329.901 592.588 330.205 593.008 330.354 593.54H330.2L330.34 591.944H331.712C331.684 592.233 331.656 592.523 331.628 592.812C331.609 593.092 331.6 593.367 331.6 593.638V599H330.186V597.432H330.34C330.191 597.955 329.883 598.37 329.416 598.678C328.959 598.977 328.431 599.126 327.834 599.126ZM328.184 598.02C328.791 598.02 329.276 597.805 329.64 597.376C330.013 596.947 330.2 596.312 330.2 595.472C330.2 594.632 330.013 594.002 329.64 593.582C329.276 593.153 328.791 592.938 328.184 592.938C327.568 592.938 327.073 593.153 326.7 593.582C326.336 594.002 326.154 594.632 326.154 595.472C326.154 596.312 326.336 596.947 326.7 597.376C327.064 597.805 327.559 598.02 328.184 598.02ZM333.863 599V588.696H335.277V599H333.863ZM337.55 599V588.696H338.964V599H337.55Z" fill="#FF9900"/>
<path d="M53.636 599V587.619H49.209V585.605H60.514V587.619H56.087V599H53.636ZM64.6763 599.19C63.8403 599.19 63.1056 598.994 62.4723 598.601C61.839 598.196 61.345 597.619 60.9903 596.872C60.6356 596.125 60.4583 595.232 60.4583 594.193C60.4583 593.154 60.6356 592.268 60.9903 591.533C61.345 590.786 61.839 590.216 62.4723 589.823C63.1056 589.418 63.8403 589.215 64.6763 589.215C65.487 589.215 66.1963 589.418 66.8043 589.823C67.425 590.216 67.8366 590.748 68.0393 591.419H67.8303L68.0393 589.405H70.3193C70.2813 589.798 70.2433 590.197 70.2053 590.602C70.18 591.007 70.1673 591.406 70.1673 591.799V599H67.8113L67.7923 597.024H68.0203C67.8176 597.683 67.406 598.208 66.7853 598.601C66.1646 598.994 65.4616 599.19 64.6763 599.19ZM65.3413 597.366C66.0886 597.366 66.6903 597.106 67.1463 596.587C67.6023 596.055 67.8303 595.257 67.8303 594.193C67.8303 593.129 67.6023 592.337 67.1463 591.818C66.6903 591.299 66.0886 591.039 65.3413 591.039C64.594 591.039 63.9923 591.299 63.5363 591.818C63.0803 592.337 62.8523 593.129 62.8523 594.193C62.8523 595.257 63.074 596.055 63.5173 596.587C63.9733 597.106 64.5813 597.366 65.3413 597.366ZM76.5735 599.19C75.7502 599.19 74.9902 599.095 74.2935 598.905C73.6095 598.702 73.0332 598.424 72.5645 598.069L73.2295 596.473C73.7109 596.802 74.2429 597.056 74.8255 597.233C75.4082 597.41 75.9972 597.499 76.5925 597.499C77.2259 597.499 77.6945 597.391 77.9985 597.176C78.3152 596.961 78.4735 596.669 78.4735 596.302C78.4735 596.011 78.3722 595.783 78.1695 595.618C77.9795 595.441 77.6692 595.308 77.2385 595.219L75.3385 594.858C74.5279 594.681 73.9072 594.377 73.4765 593.946C73.0585 593.515 72.8495 592.952 72.8495 592.255C72.8495 591.66 73.0079 591.134 73.3245 590.678C73.6539 590.222 74.1162 589.867 74.7115 589.614C75.3195 589.348 76.0289 589.215 76.8395 589.215C77.5489 589.215 78.2139 589.31 78.8345 589.5C79.4679 589.69 79.9999 589.975 80.4305 590.355L79.7465 591.894C79.3539 591.577 78.9042 591.33 78.3975 591.153C77.8909 590.976 77.3969 590.887 76.9155 590.887C76.2569 590.887 75.7755 591.007 75.4715 591.248C75.1675 591.476 75.0155 591.774 75.0155 592.141C75.0155 592.42 75.1042 592.654 75.2815 592.844C75.4715 593.021 75.7629 593.154 76.1555 593.243L78.0555 593.604C78.9042 593.769 79.5439 594.06 79.9745 594.478C80.4179 594.883 80.6395 595.441 80.6395 596.15C80.6395 596.783 80.4685 597.328 80.1265 597.784C79.7845 598.24 79.3095 598.588 78.7015 598.829C78.0935 599.07 77.3842 599.19 76.5735 599.19ZM83.0721 599V585.016H85.4471V593.49H85.4851L89.3801 589.405H92.2491L87.4041 594.478L87.4231 593.528L92.5911 599H89.6461L85.4851 594.706H85.4471V599H83.0721ZM97.227 599.19C96.4037 599.19 95.6437 599.095 94.947 598.905C94.263 598.702 93.6867 598.424 93.218 598.069L93.883 596.473C94.3644 596.802 94.8964 597.056 95.479 597.233C96.0617 597.41 96.6507 597.499 97.246 597.499C97.8794 597.499 98.348 597.391 98.652 597.176C98.9687 596.961 99.127 596.669 99.127 596.302C99.127 596.011 99.0257 595.783 98.823 595.618C98.633 595.441 98.3227 595.308 97.892 595.219L95.992 594.858C95.1814 594.681 94.5607 594.377 94.13 593.946C93.712 593.515 93.503 592.952 93.503 592.255C93.503 591.66 93.6614 591.134 93.978 590.678C94.3074 590.222 94.7697 589.867 95.365 589.614C95.973 589.348 96.6824 589.215 97.493 589.215C98.2024 589.215 98.8674 589.31 99.488 589.5C100.121 589.69 100.653 589.975 101.084 590.355L100.4 591.894C100.007 591.577 99.5577 591.33 99.051 591.153C98.5444 590.976 98.0504 590.887 97.569 590.887C96.9104 590.887 96.429 591.007 96.125 591.248C95.821 591.476 95.669 591.774 95.669 592.141C95.669 592.42 95.7577 592.654 95.935 592.844C96.125 593.021 96.4164 593.154 96.809 593.243L98.709 593.604C99.5577 593.769 100.197 594.06 100.628 594.478C101.071 594.883 101.293 595.441 101.293 596.15C101.293 596.783 101.122 597.328 100.78 597.784C100.438 598.24 99.963 598.588 99.355 598.829C98.747 599.07 98.0377 599.19 97.227 599.19Z" fill="#252733"/>
<path d="M52.108 625V617.38H49.12V616.54H56.08V617.38H53.104V625H52.108ZM58.8481 625.108C58.2721 625.108 57.7681 624.984 57.3361 624.736C56.9121 624.48 56.5841 624.12 56.3521 623.656C56.1201 623.184 56.0041 622.628 56.0041 621.988C56.0041 621.34 56.1201 620.784 56.3521 620.32C56.5841 619.856 56.9121 619.5 57.3361 619.252C57.7681 618.996 58.2721 618.868 58.8481 618.868C59.4321 618.868 59.9361 618.996 60.3601 619.252C60.7921 619.5 61.1241 619.856 61.3561 620.32C61.5961 620.784 61.7161 621.34 61.7161 621.988C61.7161 622.628 61.5961 623.184 61.3561 623.656C61.1241 624.12 60.7921 624.48 60.3601 624.736C59.9361 624.984 59.4321 625.108 58.8481 625.108ZM58.8481 624.316C59.4241 624.316 59.8801 624.12 60.2161 623.728C60.5521 623.328 60.7201 622.748 60.7201 621.988C60.7201 621.22 60.5481 620.64 60.2041 620.248C59.8681 619.848 59.4161 619.648 58.8481 619.648C58.2801 619.648 57.8281 619.848 57.4921 620.248C57.1561 620.64 56.9881 621.22 56.9881 621.988C56.9881 622.748 57.1561 623.328 57.4921 623.728C57.8281 624.12 58.2801 624.316 58.8481 624.316ZM65.6116 625.108C65.0836 625.108 64.6196 624.984 64.2196 624.736C63.8196 624.48 63.5076 624.12 63.2836 623.656C63.0676 623.192 62.9596 622.636 62.9596 621.988C62.9596 621.332 63.0676 620.772 63.2836 620.308C63.5076 619.844 63.8196 619.488 64.2196 619.24C64.6196 618.992 65.0836 618.868 65.6116 618.868C66.1556 618.868 66.6236 619.004 67.0156 619.276C67.4156 619.548 67.6836 619.916 67.8196 620.38H67.6756V616.168H68.6476V625H67.6876V623.56H67.8196C67.6916 624.04 67.4276 624.42 67.0276 624.7C66.6276 624.972 66.1556 625.108 65.6116 625.108ZM65.8156 624.316C66.3836 624.316 66.8396 624.12 67.1836 623.728C67.5276 623.328 67.6996 622.748 67.6996 621.988C67.6996 621.22 67.5276 620.64 67.1836 620.248C66.8396 619.848 66.3836 619.648 65.8156 619.648C65.2476 619.648 64.7916 619.848 64.4476 620.248C64.1116 620.64 63.9436 621.22 63.9436 621.988C63.9436 622.748 64.1116 623.328 64.4476 623.728C64.7916 624.12 65.2476 624.316 65.8156 624.316ZM72.9189 625.108C72.3829 625.108 71.9149 624.984 71.5149 624.736C71.1149 624.48 70.8029 624.12 70.5789 623.656C70.3629 623.192 70.2549 622.636 70.2549 621.988C70.2549 621.332 70.3629 620.772 70.5789 620.308C70.8029 619.844 71.1149 619.488 71.5149 619.24C71.9149 618.992 72.3829 618.868 72.9189 618.868C73.4629 618.868 73.9309 619.008 74.3229 619.288C74.7229 619.56 74.9869 619.932 75.1149 620.404H74.9709L75.1029 618.976H76.0389C76.0149 619.208 75.9909 619.444 75.9669 619.684C75.9509 619.916 75.9429 620.144 75.9429 620.368V625H74.9709V623.584H75.1029C74.9749 624.056 74.7109 624.428 74.3109 624.7C73.9109 624.972 73.4469 625.108 72.9189 625.108ZM73.1109 624.316C73.6869 624.316 74.1429 624.12 74.4789 623.728C74.8149 623.328 74.9829 622.748 74.9829 621.988C74.9829 621.22 74.8149 620.64 74.4789 620.248C74.1429 619.848 73.6869 619.648 73.1109 619.648C72.5429 619.648 72.0869 619.848 71.7429 620.248C71.4069 620.64 71.2389 621.22 71.2389 621.988C71.2389 622.748 71.4069 623.328 71.7429 623.728C72.0869 624.12 72.5429 624.316 73.1109 624.316ZM77.6236 627.724L77.3956 626.92C77.7716 626.832 78.0836 626.728 78.3316 626.608C78.5876 626.496 78.7996 626.344 78.9676 626.152C79.1356 625.96 79.2796 625.72 79.3996 625.432L79.7116 624.724L79.6876 625.132L77.0596 618.976H78.1156L80.2876 624.268H79.9756L82.1236 618.976H83.1436L80.3596 625.504C80.1996 625.888 80.0236 626.208 79.8316 626.464C79.6396 626.728 79.4316 626.94 79.2076 627.1C78.9916 627.268 78.7516 627.4 78.4876 627.496C78.2236 627.592 77.9356 627.668 77.6236 627.724Z" fill="#9FA2B4"/>
<path d="M94.6 681.126C93.592 681.126 92.7333 680.921 92.024 680.51C91.3147 680.099 90.7687 679.516 90.386 678.76C90.0127 677.995 89.826 677.094 89.826 676.058C89.826 675.022 90.0127 674.126 90.386 673.37C90.7687 672.614 91.3147 672.031 92.024 671.62C92.7333 671.209 93.592 671.004 94.6 671.004C95.3 671.004 95.9253 671.107 96.476 671.312C97.0267 671.517 97.5073 671.816 97.918 672.208L97.414 673.37C96.966 672.987 96.5273 672.712 96.098 672.544C95.678 672.376 95.188 672.292 94.628 672.292C93.564 672.292 92.752 672.619 92.192 673.272C91.632 673.925 91.352 674.854 91.352 676.058C91.352 677.262 91.632 678.195 92.192 678.858C92.752 679.511 93.564 679.838 94.628 679.838C95.188 679.838 95.678 679.754 96.098 679.586C96.5273 679.418 96.966 679.138 97.414 678.746L97.918 679.908C97.5073 680.3 97.0267 680.603 96.476 680.818C95.9253 681.023 95.3 681.126 94.6 681.126ZM99.792 681V675.694C99.792 675.405 99.7827 675.115 99.764 674.826C99.7547 674.527 99.736 674.233 99.708 673.944H101.08L101.234 675.764H101.01C101.103 675.325 101.262 674.961 101.486 674.672C101.71 674.383 101.981 674.168 102.298 674.028C102.625 673.888 102.965 673.818 103.32 673.818C103.469 673.818 103.595 673.827 103.698 673.846C103.801 673.855 103.903 673.874 104.006 673.902L103.992 675.162C103.833 675.097 103.693 675.059 103.572 675.05C103.46 675.031 103.32 675.022 103.152 675.022C102.741 675.022 102.391 675.115 102.102 675.302C101.813 675.479 101.593 675.722 101.444 676.03C101.295 676.338 101.22 676.669 101.22 677.024V681H99.792ZM108.464 681.126C107.325 681.126 106.429 680.804 105.776 680.16C105.122 679.516 104.796 678.625 104.796 677.486C104.796 676.749 104.936 676.105 105.216 675.554C105.505 675.003 105.902 674.579 106.406 674.28C106.919 673.972 107.512 673.818 108.184 673.818C108.846 673.818 109.402 673.958 109.85 674.238C110.298 674.518 110.638 674.915 110.872 675.428C111.105 675.932 111.222 676.529 111.222 677.22V677.668H105.902V676.856H110.256L110.018 677.038C110.018 676.338 109.859 675.797 109.542 675.414C109.234 675.022 108.786 674.826 108.198 674.826C107.544 674.826 107.04 675.055 106.686 675.512C106.331 675.96 106.154 676.581 106.154 677.374V677.514C106.154 678.345 106.354 678.97 106.756 679.39C107.166 679.81 107.745 680.02 108.492 680.02C108.902 680.02 109.285 679.964 109.64 679.852C110.004 679.731 110.349 679.535 110.676 679.264L111.138 680.23C110.811 680.519 110.414 680.743 109.948 680.902C109.481 681.051 108.986 681.126 108.464 681.126ZM115.746 681.126C115.121 681.126 114.575 680.981 114.108 680.692C113.642 680.403 113.278 679.983 113.016 679.432C112.764 678.881 112.638 678.228 112.638 677.472C112.638 676.707 112.764 676.053 113.016 675.512C113.278 674.971 113.642 674.555 114.108 674.266C114.575 673.967 115.121 673.818 115.746 673.818C116.362 673.818 116.899 673.972 117.356 674.28C117.814 674.588 118.117 675.008 118.266 675.54H118.112L118.252 673.944H119.624C119.596 674.233 119.568 674.523 119.54 674.812C119.522 675.092 119.512 675.367 119.512 675.638V681H118.098V679.432H118.252C118.103 679.955 117.795 680.37 117.328 680.678C116.871 680.977 116.344 681.126 115.746 681.126ZM116.096 680.02C116.703 680.02 117.188 679.805 117.552 679.376C117.926 678.947 118.112 678.312 118.112 677.472C118.112 676.632 117.926 676.002 117.552 675.582C117.188 675.153 116.703 674.938 116.096 674.938C115.48 674.938 114.986 675.153 114.612 675.582C114.248 676.002 114.066 676.632 114.066 677.472C114.066 678.312 114.248 678.947 114.612 679.376C114.976 679.805 115.471 680.02 116.096 680.02ZM124.519 681.126C123.754 681.126 123.175 680.921 122.783 680.51C122.391 680.09 122.195 679.465 122.195 678.634V675.036H120.823V673.944H122.195V672.082L123.609 671.704V673.944H125.569V675.036H123.609V678.508C123.609 679.031 123.703 679.404 123.889 679.628C124.076 679.852 124.347 679.964 124.701 679.964C124.879 679.964 125.033 679.95 125.163 679.922C125.303 679.885 125.429 679.843 125.541 679.796V680.944C125.401 681 125.238 681.042 125.051 681.07C124.865 681.107 124.687 681.126 124.519 681.126ZM130.255 681.126C129.116 681.126 128.22 680.804 127.567 680.16C126.914 679.516 126.587 678.625 126.587 677.486C126.587 676.749 126.727 676.105 127.007 675.554C127.296 675.003 127.693 674.579 128.197 674.28C128.71 673.972 129.303 673.818 129.975 673.818C130.638 673.818 131.193 673.958 131.641 674.238C132.089 674.518 132.43 674.915 132.663 675.428C132.896 675.932 133.013 676.529 133.013 677.22V677.668H127.693V676.856H132.047L131.809 677.038C131.809 676.338 131.65 675.797 131.333 675.414C131.025 675.022 130.577 674.826 129.989 674.826C129.336 674.826 128.832 675.055 128.477 675.512C128.122 675.96 127.945 676.581 127.945 677.374V677.514C127.945 678.345 128.146 678.97 128.547 679.39C128.958 679.81 129.536 680.02 130.283 680.02C130.694 680.02 131.076 679.964 131.431 679.852C131.795 679.731 132.14 679.535 132.467 679.264L132.929 680.23C132.602 680.519 132.206 680.743 131.739 680.902C131.272 681.051 130.778 681.126 130.255 681.126ZM138.768 681V675.638C138.768 675.367 138.754 675.092 138.726 674.812C138.707 674.523 138.684 674.233 138.656 673.944H140.028L140.154 675.428H139.986C140.201 674.905 140.532 674.509 140.98 674.238C141.428 673.958 141.946 673.818 142.534 673.818C143.365 673.818 143.99 674.047 144.41 674.504C144.839 674.961 145.054 675.671 145.054 676.632V681H143.64V676.716C143.64 676.091 143.514 675.643 143.262 675.372C143.019 675.092 142.646 674.952 142.142 674.952C141.545 674.952 141.069 675.139 140.714 675.512C140.359 675.876 140.182 676.371 140.182 676.996V681H138.768ZM150.529 681.126C149.39 681.126 148.494 680.804 147.841 680.16C147.188 679.516 146.861 678.625 146.861 677.486C146.861 676.749 147.001 676.105 147.281 675.554C147.57 675.003 147.967 674.579 148.471 674.28C148.984 673.972 149.577 673.818 150.249 673.818C150.912 673.818 151.467 673.958 151.915 674.238C152.363 674.518 152.704 674.915 152.937 675.428C153.17 675.932 153.287 676.529 153.287 677.22V677.668H147.967V676.856H152.321L152.083 677.038C152.083 676.338 151.924 675.797 151.607 675.414C151.299 675.022 150.851 674.826 150.263 674.826C149.61 674.826 149.106 675.055 148.751 675.512C148.396 675.96 148.219 676.581 148.219 677.374V677.514C148.219 678.345 148.42 678.97 148.821 679.39C149.232 679.81 149.81 680.02 150.557 680.02C150.968 680.02 151.35 679.964 151.705 679.852C152.069 679.731 152.414 679.535 152.741 679.264L153.203 680.23C152.876 680.519 152.48 680.743 152.013 680.902C151.546 681.051 151.052 681.126 150.529 681.126ZM156.932 681L154.258 673.944H155.728L157.814 679.824H157.45L159.592 673.944H160.684L162.812 679.824H162.462L164.548 673.944H165.962L163.274 681H161.986L159.774 675.008H160.432L158.248 681H156.932ZM174.14 681.126C173.375 681.126 172.796 680.921 172.404 680.51C172.012 680.09 171.816 679.465 171.816 678.634V675.036H170.444V673.944H171.816V672.082L173.23 671.704V673.944H175.19V675.036H173.23V678.508C173.23 679.031 173.323 679.404 173.51 679.628C173.697 679.852 173.967 679.964 174.322 679.964C174.499 679.964 174.653 679.95 174.784 679.922C174.924 679.885 175.05 679.843 175.162 679.796V680.944C175.022 681 174.859 681.042 174.672 681.07C174.485 681.107 174.308 681.126 174.14 681.126ZM176.682 681V673.944H178.096V681H176.682ZM176.57 672.474V671.004H178.208V672.474H176.57ZM183.462 681.126C182.753 681.126 182.132 680.981 181.6 680.692C181.078 680.393 180.672 679.969 180.382 679.418C180.102 678.858 179.962 678.195 179.962 677.43C179.962 676.674 180.107 676.025 180.396 675.484C180.686 674.943 181.092 674.532 181.614 674.252C182.137 673.963 182.753 673.818 183.462 673.818C183.92 673.818 184.363 673.897 184.792 674.056C185.222 674.205 185.576 674.42 185.856 674.7L185.394 675.694C185.133 675.442 184.839 675.255 184.512 675.134C184.186 675.003 183.868 674.938 183.56 674.938C182.888 674.938 182.361 675.153 181.978 675.582C181.596 676.011 181.404 676.632 181.404 677.444C181.404 678.265 181.596 678.895 181.978 679.334C182.361 679.773 182.888 679.992 183.56 679.992C183.859 679.992 184.172 679.936 184.498 679.824C184.825 679.703 185.124 679.511 185.394 679.25L185.856 680.244C185.567 680.524 185.203 680.743 184.764 680.902C184.335 681.051 183.901 681.126 183.462 681.126ZM187.555 681V670.696H188.969V677.024H188.997L192.077 673.944H193.827L190.103 677.654L190.117 677.024L194.135 681H192.343L188.997 677.766H188.969V681H187.555ZM198.318 681.126C197.179 681.126 196.283 680.804 195.63 680.16C194.976 679.516 194.65 678.625 194.65 677.486C194.65 676.749 194.79 676.105 195.07 675.554C195.359 675.003 195.756 674.579 196.26 674.28C196.773 673.972 197.366 673.818 198.038 673.818C198.7 673.818 199.256 673.958 199.704 674.238C200.152 674.518 200.492 674.915 200.726 675.428C200.959 675.932 201.076 676.529 201.076 677.22V677.668H195.756V676.856H200.11L199.872 677.038C199.872 676.338 199.713 675.797 199.396 675.414C199.088 675.022 198.64 674.826 198.052 674.826C197.398 674.826 196.894 675.055 196.54 675.512C196.185 675.96 196.008 676.581 196.008 677.374V677.514C196.008 678.345 196.208 678.97 196.61 679.39C197.02 679.81 197.599 680.02 198.346 680.02C198.756 680.02 199.139 679.964 199.494 679.852C199.858 679.731 200.203 679.535 200.53 679.264L200.992 680.23C200.665 680.519 200.268 680.743 199.802 680.902C199.335 681.051 198.84 681.126 198.318 681.126ZM205.628 681.126C204.863 681.126 204.284 680.921 203.892 680.51C203.5 680.09 203.304 679.465 203.304 678.634V675.036H201.932V673.944H203.304V672.082L204.718 671.704V673.944H206.678V675.036H204.718V678.508C204.718 679.031 204.812 679.404 204.998 679.628C205.185 679.852 205.456 679.964 205.81 679.964C205.988 679.964 206.142 679.95 206.272 679.922C206.412 679.885 206.538 679.843 206.65 679.796V680.944C206.51 681 206.347 681.042 206.16 681.07C205.974 681.107 205.796 681.126 205.628 681.126ZM93.298 701.126C92.1593 701.126 91.2633 700.804 90.61 700.16C89.9567 699.516 89.63 698.625 89.63 697.486C89.63 696.749 89.77 696.105 90.05 695.554C90.3393 695.003 90.736 694.579 91.24 694.28C91.7533 693.972 92.346 693.818 93.018 693.818C93.6807 693.818 94.236 693.958 94.684 694.238C95.132 694.518 95.4727 694.915 95.706 695.428C95.9393 695.932 96.056 696.529 96.056 697.22V697.668H90.736V696.856H95.09L94.852 697.038C94.852 696.338 94.6933 695.797 94.376 695.414C94.068 695.022 93.62 694.826 93.032 694.826C92.3787 694.826 91.8747 695.055 91.52 695.512C91.1653 695.96 90.988 696.581 90.988 697.374V697.514C90.988 698.345 91.1887 698.97 91.59 699.39C92.0007 699.81 92.5793 700.02 93.326 700.02C93.7367 700.02 94.1193 699.964 94.474 699.852C94.838 699.731 95.1833 699.535 95.51 699.264L95.972 700.23C95.6453 700.519 95.2487 700.743 94.782 700.902C94.3153 701.051 93.8207 701.126 93.298 701.126ZM96.8159 701L100.022 697.024V697.696L96.9839 693.944H98.6779L100.82 696.702H100.316L102.458 693.944H104.138L101.128 697.682V697.038L104.32 701H102.626L100.316 698.046H100.82L98.4959 701H96.8159ZM108.245 701.126C107.62 701.126 107.074 700.981 106.607 700.692C106.141 700.403 105.777 699.983 105.515 699.432C105.263 698.881 105.137 698.228 105.137 697.472C105.137 696.707 105.263 696.053 105.515 695.512C105.777 694.971 106.141 694.555 106.607 694.266C107.074 693.967 107.62 693.818 108.245 693.818C108.861 693.818 109.398 693.972 109.855 694.28C110.313 694.588 110.616 695.008 110.765 695.54H110.611L110.751 693.944H112.123C112.095 694.233 112.067 694.523 112.039 694.812C112.021 695.092 112.011 695.367 112.011 695.638V701H110.597V699.432H110.751C110.602 699.955 110.294 700.37 109.827 700.678C109.37 700.977 108.843 701.126 108.245 701.126ZM108.595 700.02C109.202 700.02 109.687 699.805 110.051 699.376C110.425 698.947 110.611 698.312 110.611 697.472C110.611 696.632 110.425 696.002 110.051 695.582C109.687 695.153 109.202 694.938 108.595 694.938C107.979 694.938 107.485 695.153 107.111 695.582C106.747 696.002 106.565 696.632 106.565 697.472C106.565 698.312 106.747 698.947 107.111 699.376C107.475 699.805 107.97 700.02 108.595 700.02ZM114.275 701V695.638C114.275 695.367 114.261 695.092 114.233 694.812C114.214 694.523 114.191 694.233 114.163 693.944H115.535L115.661 695.428H115.493C115.689 694.915 115.987 694.518 116.389 694.238C116.799 693.958 117.289 693.818 117.859 693.818C118.437 693.818 118.909 693.958 119.273 694.238C119.646 694.509 119.903 694.929 120.043 695.498H119.819C120.005 694.985 120.323 694.579 120.771 694.28C121.219 693.972 121.737 693.818 122.325 693.818C123.109 693.818 123.697 694.047 124.089 694.504C124.481 694.961 124.677 695.671 124.677 696.632V701H123.263V696.702C123.263 696.086 123.155 695.643 122.941 695.372C122.735 695.092 122.399 694.952 121.933 694.952C121.391 694.952 120.962 695.139 120.645 695.512C120.327 695.885 120.169 696.389 120.169 697.024V701H118.755V696.702C118.755 696.086 118.647 695.643 118.433 695.372C118.227 695.092 117.891 694.952 117.425 694.952C116.883 694.952 116.459 695.139 116.151 695.512C115.843 695.885 115.689 696.389 115.689 697.024V701H114.275ZM126.902 704.024V695.638C126.902 695.367 126.888 695.092 126.86 694.812C126.842 694.523 126.818 694.233 126.79 693.944H128.162L128.302 695.54H128.148C128.298 695.008 128.596 694.588 129.044 694.28C129.502 693.972 130.043 693.818 130.668 693.818C131.294 693.818 131.84 693.967 132.306 694.266C132.773 694.555 133.132 694.971 133.384 695.512C133.646 696.053 133.776 696.707 133.776 697.472C133.776 698.228 133.646 698.881 133.384 699.432C133.132 699.983 132.773 700.403 132.306 700.692C131.84 700.981 131.294 701.126 130.668 701.126C130.052 701.126 129.516 700.977 129.058 700.678C128.61 700.37 128.312 699.955 128.162 699.432H128.316V704.024H126.902ZM130.318 700.02C130.934 700.02 131.424 699.805 131.788 699.376C132.162 698.947 132.348 698.312 132.348 697.472C132.348 696.632 132.162 696.002 131.788 695.582C131.424 695.153 130.934 694.938 130.318 694.938C129.702 694.938 129.208 695.153 128.834 695.582C128.47 696.002 128.288 696.632 128.288 697.472C128.288 698.312 128.47 698.947 128.834 699.376C129.208 699.805 129.702 700.02 130.318 700.02ZM135.634 701V690.696H137.048V701H135.634ZM142.582 701.126C141.443 701.126 140.547 700.804 139.894 700.16C139.241 699.516 138.914 698.625 138.914 697.486C138.914 696.749 139.054 696.105 139.334 695.554C139.623 695.003 140.02 694.579 140.524 694.28C141.037 693.972 141.63 693.818 142.302 693.818C142.965 693.818 143.52 693.958 143.968 694.238C144.416 694.518 144.757 694.915 144.99 695.428C145.223 695.932 145.34 696.529 145.34 697.22V697.668H140.02V696.856H144.374L144.136 697.038C144.136 696.338 143.977 695.797 143.66 695.414C143.352 695.022 142.904 694.826 142.316 694.826C141.663 694.826 141.159 695.055 140.804 695.512C140.449 695.96 140.272 696.581 140.272 697.374V697.514C140.272 698.345 140.473 698.97 140.874 699.39C141.285 699.81 141.863 700.02 142.61 700.02C143.021 700.02 143.403 699.964 143.758 699.852C144.122 699.731 144.467 699.535 144.794 699.264L145.256 700.23C144.929 700.519 144.533 700.743 144.066 700.902C143.599 701.051 143.105 701.126 142.582 701.126Z" fill="#252733"/>
<g clip-path="url(#clip3_6345_2)">
<rect x="286" y="670" width="70" height="35" rx="8" fill="#FF9900"/>
<path d="M300.202 693V687.666C300.202 687.386 300.193 687.101 300.174 686.812C300.165 686.523 300.146 686.243 300.118 685.972H301.21L301.35 687.68L301.154 687.694C301.248 687.274 301.411 686.929 301.644 686.658C301.878 686.387 302.153 686.187 302.47 686.056C302.788 685.916 303.119 685.846 303.464 685.846C303.604 685.846 303.726 685.851 303.828 685.86C303.94 685.869 304.043 685.893 304.136 685.93L304.122 686.938C303.982 686.891 303.852 686.863 303.73 686.854C303.618 686.835 303.488 686.826 303.338 686.826C302.928 686.826 302.568 686.924 302.26 687.12C301.962 687.316 301.733 687.568 301.574 687.876C301.425 688.184 301.35 688.511 301.35 688.856V693H300.202ZM308.656 693.126C307.555 693.126 306.687 692.809 306.052 692.174C305.418 691.53 305.1 690.639 305.1 689.5C305.1 688.763 305.24 688.123 305.52 687.582C305.8 687.031 306.192 686.607 306.696 686.308C307.2 686 307.779 685.846 308.432 685.846C309.076 685.846 309.618 685.981 310.056 686.252C310.495 686.523 310.831 686.91 311.064 687.414C311.298 687.909 311.414 688.497 311.414 689.178V689.598H305.968V688.884H310.672L310.434 689.066C310.434 688.319 310.266 687.736 309.93 687.316C309.594 686.896 309.095 686.686 308.432 686.686C307.732 686.686 307.186 686.933 306.794 687.428C306.402 687.913 306.206 688.571 306.206 689.402V689.528C306.206 690.405 306.421 691.073 306.85 691.53C307.289 691.978 307.9 692.202 308.684 692.202C309.104 692.202 309.496 692.141 309.86 692.02C310.234 691.889 310.588 691.679 310.924 691.39L311.316 692.188C311.008 692.487 310.616 692.72 310.14 692.888C309.674 693.047 309.179 693.126 308.656 693.126ZM316.544 696.122C315.937 696.122 315.377 696.047 314.864 695.898C314.35 695.749 313.888 695.52 313.478 695.212L313.814 694.358C314.103 694.563 314.388 694.727 314.668 694.848C314.948 694.969 315.237 695.058 315.536 695.114C315.834 695.179 316.152 695.212 316.488 695.212C317.178 695.212 317.701 695.03 318.056 694.666C318.41 694.302 318.588 693.784 318.588 693.112V691.054H318.728C318.578 691.605 318.27 692.043 317.804 692.37C317.337 692.687 316.791 692.846 316.166 692.846C315.522 692.846 314.962 692.706 314.486 692.426C314.019 692.137 313.655 691.731 313.394 691.208C313.142 690.676 313.016 690.051 313.016 689.332C313.016 688.623 313.142 688.007 313.394 687.484C313.655 686.961 314.019 686.56 314.486 686.28C314.962 685.991 315.522 685.846 316.166 685.846C316.8 685.846 317.346 686.005 317.804 686.322C318.27 686.639 318.578 687.078 318.728 687.638L318.588 687.498L318.714 685.972H319.82C319.782 686.243 319.754 686.518 319.736 686.798C319.717 687.069 319.708 687.335 319.708 687.596V692.958C319.708 694.003 319.437 694.792 318.896 695.324C318.364 695.856 317.58 696.122 316.544 696.122ZM316.376 691.922C317.057 691.922 317.594 691.698 317.986 691.25C318.378 690.793 318.574 690.153 318.574 689.332C318.574 688.511 318.378 687.876 317.986 687.428C317.594 686.98 317.057 686.756 316.376 686.756C315.704 686.756 315.167 686.98 314.766 687.428C314.364 687.876 314.164 688.511 314.164 689.332C314.164 690.153 314.364 690.793 314.766 691.25C315.167 691.698 315.704 691.922 316.376 691.922ZM324.663 693.126C323.832 693.126 323.202 692.897 322.773 692.44C322.353 691.983 322.143 691.283 322.143 690.34V685.972H323.277V690.312C323.277 690.956 323.408 691.432 323.669 691.74C323.93 692.039 324.336 692.188 324.887 692.188C325.503 692.188 325.998 691.987 326.371 691.586C326.744 691.185 326.931 690.648 326.931 689.976V685.972H328.065V693H326.959V691.418H327.141C326.945 691.959 326.628 692.379 326.189 692.678C325.76 692.977 325.251 693.126 324.663 693.126ZM330.565 693V682.696H331.699V693H330.565ZM336.875 693.126C336.25 693.126 335.704 692.981 335.237 692.692C334.77 692.393 334.406 691.973 334.145 691.432C333.893 690.891 333.767 690.242 333.767 689.486C333.767 688.721 333.893 688.067 334.145 687.526C334.406 686.985 334.77 686.569 335.237 686.28C335.704 685.991 336.25 685.846 336.875 685.846C337.51 685.846 338.056 686.009 338.513 686.336C338.98 686.653 339.288 687.087 339.437 687.638H339.269L339.423 685.972H340.515C340.487 686.243 340.459 686.518 340.431 686.798C340.412 687.069 340.403 687.335 340.403 687.596V693H339.269V691.348H339.423C339.274 691.899 338.966 692.333 338.499 692.65C338.032 692.967 337.491 693.126 336.875 693.126ZM337.099 692.202C337.771 692.202 338.303 691.973 338.695 691.516C339.087 691.049 339.283 690.373 339.283 689.486C339.283 688.59 339.087 687.913 338.695 687.456C338.303 686.989 337.771 686.756 337.099 686.756C336.436 686.756 335.904 686.989 335.503 687.456C335.111 687.913 334.915 688.59 334.915 689.486C334.915 690.373 335.111 691.049 335.503 691.516C335.904 691.973 336.436 692.202 337.099 692.202ZM342.868 693V687.666C342.868 687.386 342.858 687.101 342.84 686.812C342.83 686.523 342.812 686.243 342.784 685.972H343.876L344.016 687.68L343.82 687.694C343.913 687.274 344.076 686.929 344.31 686.658C344.543 686.387 344.818 686.187 345.136 686.056C345.453 685.916 345.784 685.846 346.13 685.846C346.27 685.846 346.391 685.851 346.494 685.86C346.606 685.869 346.708 685.893 346.802 685.93L346.788 686.938C346.648 686.891 346.517 686.863 346.396 686.854C346.284 686.835 346.153 686.826 346.004 686.826C345.593 686.826 345.234 686.924 344.926 687.12C344.627 687.316 344.398 687.568 344.24 687.876C344.09 688.184 344.016 688.511 344.016 688.856V693H342.868Z" fill="white"/>
</g>
<g clip-path="url(#clip4_6345_2)">
<circle cx="59" cy="682" r="9" stroke="#C5C7CD" stroke-width="2"/>
<g clip-path="url(#clip5_6345_2)">
<circle cx="59" cy="682" r="10" fill="#FF9900"/>
<path d="M54 683L56.9293 685.929C56.9683 685.968 57.0317 685.968 57.0707 685.929L64 679" stroke="white" stroke-width="1.7" stroke-linecap="round"/>
</g>
</g>
<path d="M17 711L372 711" stroke="#DFE0EB"/>
<path d="M17 653H372" stroke="#DFE0EB"/>
<path d="M90.166 746.126C88.794 746.126 87.772 745.781 87.1 745.09C86.4373 744.399 86.106 743.377 86.106 742.024V736.13H87.562V741.996C87.562 742.948 87.7673 743.667 88.178 744.152C88.598 744.628 89.2607 744.866 90.166 744.866C91.0247 744.866 91.6733 744.628 92.112 744.152C92.5507 743.667 92.77 742.948 92.77 741.996V736.13H94.198V742.024C94.198 743.377 93.8573 744.399 93.176 745.09C92.4947 745.781 91.4913 746.126 90.166 746.126ZM96.5309 749.024V740.638C96.5309 740.367 96.5169 740.092 96.4889 739.812C96.4703 739.523 96.4469 739.233 96.4189 738.944H97.7909L97.9309 740.54H97.7769C97.9263 740.008 98.2249 739.588 98.6729 739.28C99.1303 738.972 99.6716 738.818 100.297 738.818C100.922 738.818 101.468 738.967 101.935 739.266C102.402 739.555 102.761 739.971 103.013 740.512C103.274 741.053 103.405 741.707 103.405 742.472C103.405 743.228 103.274 743.881 103.013 744.432C102.761 744.983 102.402 745.403 101.935 745.692C101.468 745.981 100.922 746.126 100.297 746.126C99.6809 746.126 99.1443 745.977 98.6869 745.678C98.2389 745.37 97.9403 744.955 97.7909 744.432H97.9449V749.024H96.5309ZM99.9469 745.02C100.563 745.02 101.053 744.805 101.417 744.376C101.79 743.947 101.977 743.312 101.977 742.472C101.977 741.632 101.79 741.002 101.417 740.582C101.053 740.153 100.563 739.938 99.9469 739.938C99.3309 739.938 98.8363 740.153 98.4629 740.582C98.0989 741.002 97.9169 741.632 97.9169 742.472C97.9169 743.312 98.0989 743.947 98.4629 744.376C98.8363 744.805 99.3309 745.02 99.9469 745.02ZM107.964 746.126C107.348 746.126 106.802 745.981 106.326 745.692C105.86 745.403 105.496 744.983 105.234 744.432C104.982 743.881 104.856 743.228 104.856 742.472C104.856 741.707 104.982 741.053 105.234 740.512C105.496 739.971 105.86 739.555 106.326 739.266C106.802 738.967 107.348 738.818 107.964 738.818C108.571 738.818 109.103 738.972 109.56 739.28C110.027 739.579 110.335 739.989 110.484 740.512H110.316V735.696H111.73V746H110.33V744.404H110.498C110.34 744.936 110.032 745.356 109.574 745.664C109.117 745.972 108.58 746.126 107.964 746.126ZM108.314 745.02C108.921 745.02 109.411 744.805 109.784 744.376C110.158 743.947 110.344 743.312 110.344 742.472C110.344 741.632 110.158 741.002 109.784 740.582C109.411 740.153 108.921 739.938 108.314 739.938C107.698 739.938 107.204 740.153 106.83 740.582C106.466 741.002 106.284 741.632 106.284 742.472C106.284 743.312 106.466 743.947 106.83 744.376C107.204 744.805 107.698 745.02 108.314 745.02ZM116.695 746.126C116.07 746.126 115.524 745.981 115.057 745.692C114.591 745.403 114.227 744.983 113.965 744.432C113.713 743.881 113.587 743.228 113.587 742.472C113.587 741.707 113.713 741.053 113.965 740.512C114.227 739.971 114.591 739.555 115.057 739.266C115.524 738.967 116.07 738.818 116.695 738.818C117.311 738.818 117.848 738.972 118.305 739.28C118.763 739.588 119.066 740.008 119.215 740.54H119.061L119.201 738.944H120.573C120.545 739.233 120.517 739.523 120.489 739.812C120.471 740.092 120.461 740.367 120.461 740.638V746H119.047V744.432H119.201C119.052 744.955 118.744 745.37 118.277 745.678C117.82 745.977 117.293 746.126 116.695 746.126ZM117.045 745.02C117.652 745.02 118.137 744.805 118.501 744.376C118.875 743.947 119.061 743.312 119.061 742.472C119.061 741.632 118.875 741.002 118.501 740.582C118.137 740.153 117.652 739.938 117.045 739.938C116.429 739.938 115.935 740.153 115.561 740.582C115.197 741.002 115.015 741.632 115.015 742.472C115.015 743.312 115.197 743.947 115.561 744.376C115.925 744.805 116.42 745.02 117.045 745.02ZM125.469 746.126C124.703 746.126 124.125 745.921 123.733 745.51C123.341 745.09 123.145 744.465 123.145 743.634V740.036H121.773V738.944H123.145V737.082L124.559 736.704V738.944H126.519V740.036H124.559V743.508C124.559 744.031 124.652 744.404 124.839 744.628C125.025 744.852 125.296 744.964 125.651 744.964C125.828 744.964 125.982 744.95 126.113 744.922C126.253 744.885 126.379 744.843 126.491 744.796V745.944C126.351 746 126.187 746.042 126.001 746.07C125.814 746.107 125.637 746.126 125.469 746.126ZM131.204 746.126C130.066 746.126 129.17 745.804 128.516 745.16C127.863 744.516 127.536 743.625 127.536 742.486C127.536 741.749 127.676 741.105 127.956 740.554C128.246 740.003 128.642 739.579 129.146 739.28C129.66 738.972 130.252 738.818 130.924 738.818C131.587 738.818 132.142 738.958 132.59 739.238C133.038 739.518 133.379 739.915 133.612 740.428C133.846 740.932 133.962 741.529 133.962 742.22V742.668H128.642V741.856H132.996L132.758 742.038C132.758 741.338 132.6 740.797 132.282 740.414C131.974 740.022 131.526 739.826 130.938 739.826C130.285 739.826 129.781 740.055 129.426 740.512C129.072 740.96 128.894 741.581 128.894 742.374V742.514C128.894 743.345 129.095 743.97 129.496 744.39C129.907 744.81 130.486 745.02 131.232 745.02C131.643 745.02 132.026 744.964 132.38 744.852C132.744 744.731 133.09 744.535 133.416 744.264L133.878 745.23C133.552 745.519 133.155 745.743 132.688 745.902C132.222 746.051 131.727 746.126 131.204 746.126ZM142.461 746.126C141.696 746.126 141.117 745.921 140.725 745.51C140.333 745.09 140.137 744.465 140.137 743.634V740.036H138.765V738.944H140.137V737.082L141.551 736.704V738.944H143.511V740.036H141.551V743.508C141.551 744.031 141.645 744.404 141.831 744.628C142.018 744.852 142.289 744.964 142.643 744.964C142.821 744.964 142.975 744.95 143.105 744.922C143.245 744.885 143.371 744.843 143.483 744.796V745.944C143.343 746 143.18 746.042 142.993 746.07C142.807 746.107 142.629 746.126 142.461 746.126ZM145.003 746V738.944H146.417V746H145.003ZM144.891 737.474V736.004H146.529V737.474H144.891ZM151.784 746.126C151.074 746.126 150.454 745.981 149.922 745.692C149.399 745.393 148.993 744.969 148.704 744.418C148.424 743.858 148.284 743.195 148.284 742.43C148.284 741.674 148.428 741.025 148.718 740.484C149.007 739.943 149.413 739.532 149.936 739.252C150.458 738.963 151.074 738.818 151.784 738.818C152.241 738.818 152.684 738.897 153.114 739.056C153.543 739.205 153.898 739.42 154.178 739.7L153.716 740.694C153.454 740.442 153.16 740.255 152.834 740.134C152.507 740.003 152.19 739.938 151.882 739.938C151.21 739.938 150.682 740.153 150.3 740.582C149.917 741.011 149.726 741.632 149.726 742.444C149.726 743.265 149.917 743.895 150.3 744.334C150.682 744.773 151.21 744.992 151.882 744.992C152.18 744.992 152.493 744.936 152.82 744.824C153.146 744.703 153.445 744.511 153.716 744.25L154.178 745.244C153.888 745.524 153.524 745.743 153.086 745.902C152.656 746.051 152.222 746.126 151.784 746.126ZM155.876 746V735.696H157.29V742.024H157.318L160.398 738.944H162.148L158.424 742.654L158.438 742.024L162.456 746H160.664L157.318 742.766H157.29V746H155.876ZM166.639 746.126C165.5 746.126 164.604 745.804 163.951 745.16C163.297 744.516 162.971 743.625 162.971 742.486C162.971 741.749 163.111 741.105 163.391 740.554C163.68 740.003 164.077 739.579 164.581 739.28C165.094 738.972 165.687 738.818 166.359 738.818C167.021 738.818 167.577 738.958 168.025 739.238C168.473 739.518 168.813 739.915 169.047 740.428C169.28 740.932 169.397 741.529 169.397 742.22V742.668H164.077V741.856H168.431L168.193 742.038C168.193 741.338 168.034 740.797 167.717 740.414C167.409 740.022 166.961 739.826 166.373 739.826C165.719 739.826 165.215 740.055 164.861 740.512C164.506 740.96 164.329 741.581 164.329 742.374V742.514C164.329 743.345 164.529 743.97 164.931 744.39C165.341 744.81 165.92 745.02 166.667 745.02C167.077 745.02 167.46 744.964 167.815 744.852C168.179 744.731 168.524 744.535 168.851 744.264L169.313 745.23C168.986 745.519 168.589 745.743 168.123 745.902C167.656 746.051 167.161 746.126 166.639 746.126ZM173.95 746.126C173.184 746.126 172.606 745.921 172.214 745.51C171.822 745.09 171.626 744.465 171.626 743.634V740.036H170.254V738.944H171.626V737.082L173.04 736.704V738.944H175V740.036H173.04V743.508C173.04 744.031 173.133 744.404 173.32 744.628C173.506 744.852 173.777 744.964 174.132 744.964C174.309 744.964 174.463 744.95 174.594 744.922C174.734 744.885 174.86 744.843 174.972 744.796V745.944C174.832 746 174.668 746.042 174.482 746.07C174.295 746.107 174.118 746.126 173.95 746.126ZM180.396 746V740.694C180.396 740.405 180.387 740.115 180.368 739.826C180.359 739.527 180.34 739.233 180.312 738.944H181.684L181.838 740.764H181.614C181.707 740.325 181.866 739.961 182.09 739.672C182.314 739.383 182.585 739.168 182.902 739.028C183.229 738.888 183.569 738.818 183.924 738.818C184.073 738.818 184.199 738.827 184.302 738.846C184.405 738.855 184.507 738.874 184.61 738.902L184.596 740.162C184.437 740.097 184.297 740.059 184.176 740.05C184.064 740.031 183.924 740.022 183.756 740.022C183.345 740.022 182.995 740.115 182.706 740.302C182.417 740.479 182.197 740.722 182.048 741.03C181.899 741.338 181.824 741.669 181.824 742.024V746H180.396ZM189.068 746.126C187.929 746.126 187.033 745.804 186.38 745.16C185.726 744.516 185.4 743.625 185.4 742.486C185.4 741.749 185.54 741.105 185.82 740.554C186.109 740.003 186.506 739.579 187.01 739.28C187.523 738.972 188.116 738.818 188.788 738.818C189.45 738.818 190.006 738.958 190.454 739.238C190.902 739.518 191.242 739.915 191.476 740.428C191.709 740.932 191.826 741.529 191.826 742.22V742.668H186.506V741.856H190.86L190.622 742.038C190.622 741.338 190.463 740.797 190.146 740.414C189.838 740.022 189.39 739.826 188.802 739.826C188.148 739.826 187.644 740.055 187.29 740.512C186.935 740.96 186.758 741.581 186.758 742.374V742.514C186.758 743.345 186.958 743.97 187.36 744.39C187.77 744.81 188.349 745.02 189.096 745.02C189.506 745.02 189.889 744.964 190.244 744.852C190.608 744.731 190.953 744.535 191.28 744.264L191.742 745.23C191.415 745.519 191.018 745.743 190.552 745.902C190.085 746.051 189.59 746.126 189.068 746.126ZM193.648 749.024V740.638C193.648 740.367 193.634 740.092 193.606 739.812C193.587 739.523 193.564 739.233 193.536 738.944H194.908L195.048 740.54H194.894C195.043 740.008 195.342 739.588 195.79 739.28C196.247 738.972 196.789 738.818 197.414 738.818C198.039 738.818 198.585 738.967 199.052 739.266C199.519 739.555 199.878 739.971 200.13 740.512C200.391 741.053 200.522 741.707 200.522 742.472C200.522 743.228 200.391 743.881 200.13 744.432C199.878 744.983 199.519 745.403 199.052 745.692C198.585 745.981 198.039 746.126 197.414 746.126C196.798 746.126 196.261 745.977 195.804 745.678C195.356 745.37 195.057 744.955 194.908 744.432H195.062V749.024H193.648ZM197.064 745.02C197.68 745.02 198.17 744.805 198.534 744.376C198.907 743.947 199.094 743.312 199.094 742.472C199.094 741.632 198.907 741.002 198.534 740.582C198.17 740.153 197.68 739.938 197.064 739.938C196.448 739.938 195.953 740.153 195.58 740.582C195.216 741.002 195.034 741.632 195.034 742.472C195.034 743.312 195.216 743.947 195.58 744.376C195.953 744.805 196.448 745.02 197.064 745.02ZM205.403 746.126C204.703 746.126 204.097 745.981 203.583 745.692C203.07 745.393 202.673 744.973 202.393 744.432C202.113 743.881 201.973 743.228 201.973 742.472C201.973 741.716 202.113 741.067 202.393 740.526C202.673 739.975 203.07 739.555 203.583 739.266C204.097 738.967 204.703 738.818 205.403 738.818C206.103 738.818 206.71 738.967 207.223 739.266C207.746 739.555 208.147 739.975 208.427 740.526C208.717 741.067 208.861 741.716 208.861 742.472C208.861 743.228 208.717 743.881 208.427 744.432C208.147 744.973 207.746 745.393 207.223 745.692C206.71 745.981 206.103 746.126 205.403 746.126ZM205.403 745.02C206.019 745.02 206.509 744.805 206.873 744.376C207.237 743.947 207.419 743.312 207.419 742.472C207.419 741.632 207.237 741.002 206.873 740.582C206.509 740.153 206.019 739.938 205.403 739.938C204.797 739.938 204.311 740.153 203.947 740.582C203.583 741.002 203.401 741.632 203.401 742.472C203.401 743.312 203.579 743.947 203.933 744.376C204.297 744.805 204.787 745.02 205.403 745.02ZM210.686 746V740.694C210.686 740.405 210.677 740.115 210.658 739.826C210.649 739.527 210.63 739.233 210.602 738.944H211.974L212.128 740.764H211.904C211.997 740.325 212.156 739.961 212.38 739.672C212.604 739.383 212.875 739.168 213.192 739.028C213.519 738.888 213.859 738.818 214.214 738.818C214.363 738.818 214.489 738.827 214.592 738.846C214.695 738.855 214.797 738.874 214.9 738.902L214.886 740.162C214.727 740.097 214.587 740.059 214.466 740.05C214.354 740.031 214.214 740.022 214.046 740.022C213.635 740.022 213.285 740.115 212.996 740.302C212.707 740.479 212.487 740.722 212.338 741.03C212.189 741.338 212.114 741.669 212.114 742.024V746H210.686ZM219.318 746.126C218.553 746.126 217.974 745.921 217.582 745.51C217.19 745.09 216.994 744.465 216.994 743.634V740.036H215.622V738.944H216.994V737.082L218.408 736.704V738.944H220.368V740.036H218.408V743.508C218.408 744.031 218.502 744.404 218.688 744.628C218.875 744.852 219.146 744.964 219.5 744.964C219.678 744.964 219.832 744.95 219.962 744.922C220.102 744.885 220.228 744.843 220.34 744.796V745.944C220.2 746 220.037 746.042 219.85 746.07C219.664 746.107 219.486 746.126 219.318 746.126Z" fill="#252733"/>
<g clip-path="url(#clip6_6345_2)">
<circle cx="59" cy="740" r="10" fill="#FF9900"/>
<path d="M54 741L56.9293 743.929C56.9683 743.968 57.0317 743.968 57.0707 743.929L64 737" stroke="white" stroke-width="1.7" stroke-linecap="round"/>
</g>
<path d="M17 769H372" stroke="#DFE0EB"/>
<g clip-path="url(#clip7_6345_2)">
<rect x="286" y="723" width="70" height="35" rx="8" fill="#FF452C"/>
<path d="M304.718 746.126C303.887 746.126 303.257 745.897 302.828 745.44C302.408 744.983 302.198 744.283 302.198 743.34V738.972H303.332V743.312C303.332 743.956 303.462 744.432 303.724 744.74C303.985 745.039 304.391 745.188 304.942 745.188C305.558 745.188 306.052 744.987 306.426 744.586C306.799 744.185 306.986 743.648 306.986 742.976V738.972H308.12V746H307.014V744.418H307.196C307 744.959 306.682 745.379 306.244 745.678C305.814 745.977 305.306 746.126 304.718 746.126ZM310.592 746V740.666C310.592 740.386 310.583 740.101 310.564 739.812C310.555 739.523 310.536 739.243 310.508 738.972H311.6L311.74 740.68L311.544 740.694C311.637 740.274 311.801 739.929 312.034 739.658C312.267 739.387 312.543 739.187 312.86 739.056C313.177 738.916 313.509 738.846 313.854 738.846C313.994 738.846 314.115 738.851 314.218 738.86C314.33 738.869 314.433 738.893 314.526 738.93L314.512 739.938C314.372 739.891 314.241 739.863 314.12 739.854C314.008 739.835 313.877 739.826 313.728 739.826C313.317 739.826 312.958 739.924 312.65 740.12C312.351 740.316 312.123 740.568 311.964 740.876C311.815 741.184 311.74 741.511 311.74 741.856V746H310.592ZM319.018 749.122C318.411 749.122 317.851 749.047 317.338 748.898C316.824 748.749 316.362 748.52 315.952 748.212L316.288 747.358C316.577 747.563 316.862 747.727 317.142 747.848C317.422 747.969 317.711 748.058 318.01 748.114C318.308 748.179 318.626 748.212 318.962 748.212C319.652 748.212 320.175 748.03 320.53 747.666C320.884 747.302 321.062 746.784 321.062 746.112V744.054H321.202C321.052 744.605 320.744 745.043 320.278 745.37C319.811 745.687 319.265 745.846 318.64 745.846C317.996 745.846 317.436 745.706 316.96 745.426C316.493 745.137 316.129 744.731 315.868 744.208C315.616 743.676 315.49 743.051 315.49 742.332C315.49 741.623 315.616 741.007 315.868 740.484C316.129 739.961 316.493 739.56 316.96 739.28C317.436 738.991 317.996 738.846 318.64 738.846C319.274 738.846 319.82 739.005 320.278 739.322C320.744 739.639 321.052 740.078 321.202 740.638L321.062 740.498L321.188 738.972H322.294C322.256 739.243 322.228 739.518 322.21 739.798C322.191 740.069 322.182 740.335 322.182 740.596V745.958C322.182 747.003 321.911 747.792 321.37 748.324C320.838 748.856 320.054 749.122 319.018 749.122ZM318.85 744.922C319.531 744.922 320.068 744.698 320.46 744.25C320.852 743.793 321.048 743.153 321.048 742.332C321.048 741.511 320.852 740.876 320.46 740.428C320.068 739.98 319.531 739.756 318.85 739.756C318.178 739.756 317.641 739.98 317.24 740.428C316.838 740.876 316.638 741.511 316.638 742.332C316.638 743.153 316.838 743.793 317.24 744.25C317.641 744.698 318.178 744.922 318.85 744.922ZM327.781 746.126C326.68 746.126 325.812 745.809 325.177 745.174C324.543 744.53 324.225 743.639 324.225 742.5C324.225 741.763 324.365 741.123 324.645 740.582C324.925 740.031 325.317 739.607 325.821 739.308C326.325 739 326.904 738.846 327.557 738.846C328.201 738.846 328.743 738.981 329.181 739.252C329.62 739.523 329.956 739.91 330.189 740.414C330.423 740.909 330.539 741.497 330.539 742.178V742.598H325.093V741.884H329.797L329.559 742.066C329.559 741.319 329.391 740.736 329.055 740.316C328.719 739.896 328.22 739.686 327.557 739.686C326.857 739.686 326.311 739.933 325.919 740.428C325.527 740.913 325.331 741.571 325.331 742.402V742.528C325.331 743.405 325.546 744.073 325.975 744.53C326.414 744.978 327.025 745.202 327.809 745.202C328.229 745.202 328.621 745.141 328.985 745.02C329.359 744.889 329.713 744.679 330.049 744.39L330.441 745.188C330.133 745.487 329.741 745.72 329.265 745.888C328.799 746.047 328.304 746.126 327.781 746.126ZM332.575 746V740.596C332.575 740.335 332.561 740.069 332.533 739.798C332.514 739.518 332.491 739.243 332.463 738.972H333.555L333.695 740.512H333.527C333.732 739.971 334.059 739.56 334.507 739.28C334.964 738.991 335.491 738.846 336.089 738.846C336.919 738.846 337.545 739.07 337.965 739.518C338.394 739.957 338.609 740.652 338.609 741.604V746H337.475V741.674C337.475 741.011 337.339 740.531 337.069 740.232C336.807 739.924 336.397 739.77 335.837 739.77C335.183 739.77 334.665 739.971 334.283 740.372C333.9 740.773 333.709 741.31 333.709 741.982V746H332.575ZM343.57 746.126C342.879 746.126 342.352 745.93 341.988 745.538C341.624 745.137 341.442 744.535 341.442 743.732V739.854H340.07V738.972H341.442V737.054L342.576 736.732V738.972H344.592V739.854H342.576V743.606C342.576 744.166 342.669 744.567 342.856 744.81C343.052 745.043 343.341 745.16 343.724 745.16C343.901 745.16 344.06 745.146 344.2 745.118C344.34 745.081 344.466 745.039 344.578 744.992V745.944C344.447 746 344.288 746.042 344.102 746.07C343.924 746.107 343.747 746.126 343.57 746.126Z" fill="white"/>
</g>
</g>
<rect opacity="0.99" width="390" height="100" fill="#262626"/>
<path d="M165 41.0623C165 41.0623 178.237 125.473 188.87 41.0623C199.503 -43.3484 213.174 161.346 225 41.0623" stroke="#FF9900" stroke-width="2"/>
<path d="M32 65H62M32 50H62M32 35H62" stroke="#C5C5C5" stroke-width="1.5" stroke-linecap="round" stroke-linejoin="round"/>
</g>
<defs>
<clipPath id="clip0_6345_2">
<rect width="390" height="844" fill="white"/>
</clipPath>
<clipPath id="clip1_6345_2">
<rect width="355" height="355" fill="white" transform="translate(17 548)"/>
</clipPath>
<clipPath id="clip2_6345_2">
<rect width="70" height="35" fill="white" transform="translate(287 774)"/>
</clipPath>
<clipPath id="clip3_6345_2">
<rect width="70" height="35" fill="white" transform="translate(286 670)"/>
</clipPath>
<clipPath id="clip4_6345_2">
<rect width="20" height="20" fill="white" transform="translate(49 672)"/>
</clipPath>
<clipPath id="clip5_6345_2">
<rect width="20" height="20" fill="white" transform="translate(49 672)"/>
</clipPath>
<clipPath id="clip6_6345_2">
<rect width="20" height="20" fill="white" transform="translate(49 730)"/>
</clipPath>
<clipPath id="clip7_6345_2">
<rect width="70" height="35" fill="white" transform="translate(286 723)"/>
</clipPath>
</defs>
</svg>
