<svg width="22" height="22" viewBox="0 0 22 22" fill="none" xmlns="http://www.w3.org/2000/svg">
<path d="M18.5 3H15.5V1.5C15.5 1.36739 15.4473 1.24021 15.3536 1.14645C15.2598 1.05268 15.1326 1 15 1C14.8674 1 14.7402 1.05268 14.6464 1.14645C14.5527 1.24021 14.5 1.36739 14.5 1.5V3H7.5V1.5C7.5 1.36739 7.44732 1.24021 7.35355 1.14645C7.25979 1.05268 7.13261 1 7 1C6.86739 1 6.74022 1.05268 6.64645 1.14645C6.55268 1.24021 6.5 1.36739 6.5 1.5V3H3.5C2.8372 3.00079 2.20178 3.26444 1.73311 3.73311C1.26444 4.20178 1.00079 4.8372 1 5.5V18.5C1.00079 19.1628 1.26444 19.7982 1.73311 20.2669C2.20178 20.7356 2.8372 20.9992 3.5 21H18.5C19.1629 20.9995 19.7985 20.7359 20.2672 20.2672C20.7359 19.7985 20.9995 19.1629 21 18.5V5.5C20.9995 4.83712 20.7359 4.20154 20.2672 3.73282C19.7985 3.26409 19.1629 3.00053 18.5 3ZM20 18.5C20 18.8978 19.842 19.2794 19.5607 19.5607C19.2794 19.842 18.8978 20 18.5 20H3.5C3.10218 20 2.72064 19.842 2.43934 19.5607C2.15804 19.2794 2 18.8978 2 18.5V10H20V18.5ZM20 9H2V5.5C2 4.672 2.67 4 3.5 4H6.5V5.5C6.5 5.63261 6.55268 5.75979 6.64645 5.85355C6.74022 5.94732 6.86739 6 7 6C7.13261 6 7.25979 5.94732 7.35355 5.85355C7.44732 5.75979 7.5 5.63261 7.5 5.5V4H14.5V5.5C14.5 5.63261 14.5527 5.75979 14.6464 5.85355C14.7402 5.94732 14.8674 6 15 6C15.1326 6 15.2598 5.94732 15.3536 5.85355C15.4473 5.75979 15.5 5.63261 15.5 5.5V4H18.5C18.8978 4 19.2794 4.15804 19.5607 4.43934C19.842 4.72064 20 5.10218 20 5.5V9Z" fill="#A4A6B3" stroke="white"/>
</svg>
