<svg width="19" height="18" viewBox="0 0 19 18" fill="none" xmlns="http://www.w3.org/2000/svg">
<path d="M19.6188 13.5078C19.7684 13.3524 19.8703 13.1544 19.9116 12.9389C19.9529 12.7234 19.9317 12.5001 19.8507 12.2971C19.7697 12.0941 19.6326 11.9205 19.4566 11.7984C19.2806 11.6763 19.0737 11.6112 18.8621 11.6111H11.3698V13.8333H16.2783L11.6834 18.6033C11.5338 18.7587 11.4319 18.9567 11.3906 19.1722C11.3493 19.3877 11.3705 19.6111 11.4515 19.8141C11.5325 20.0171 11.6697 20.1906 11.8456 20.3127C12.0216 20.4348 12.2285 20.5 12.4401 20.5H19.9324V18.2778H15.0239L19.6188 13.5078ZM4.94791 1.6L0.666626 6.04444H3.87759V19.3778H6.01823V6.04444H9.22919L4.94791 1.6ZM16.7214 0.5H14.5808C14.1345 0.5 13.7352 0.787778 13.5779 1.22111L10.6345 9.36889H12.9218L13.717 7.16667H17.5841L18.3794 9.36778H20.6666L17.7232 1.22C17.6466 1.00846 17.5097 0.826209 17.3307 0.697564C17.1517 0.56892 16.9391 0.5 16.7214 0.5ZM14.5198 4.94444L15.3225 2.72222H15.9786L16.7814 4.94444H14.5198V4.94444Z" fill="black"/>
</svg>
